  0
SECTION
  2
BLOCKS
  0
ENDSEC
  0
SECTION
  2
ENTITIES
  0
LINE
  8
0
 10
394.588
 20
0.0288849
 11
395.171
 21
0.115295
  0
LINE
  8
0
 10
395.171
 20
0.115295
 11
395.742
 21
0.258362
  0
LINE
  8
0
 10
395.742
 20
0.258362
 11
396.296
 21
0.456726
  0
LINE
  8
0
 10
396.296
 20
0.456726
 11
396.828
 21
0.708466
  0
LINE
  8
0
 10
396.828
 20
0.708466
 11
397.333
 21
1.01118
  0
LINE
  8
0
 10
397.333
 20
1.01118
 11
397.806
 21
1.36194
  0
LINE
  8
0
 10
397.806
 20
1.36194
 11
398.243
 21
1.75735
  0
LINE
  8
0
 10
398.243
 20
1.75735
 11
398.638
 21
2.19363
  0
LINE
  8
0
 10
398.638
 20
2.19363
 11
398.989
 21
2.66658
  0
LINE
  8
0
 10
398.989
 20
2.66658
 11
399.292
 21
3.17162
  0
LINE
  8
0
 10
399.292
 20
3.17162
 11
399.543
 21
3.7039
  0
LINE
  8
0
 10
399.543
 20
3.7039
 11
399.742
 21
4.25829
  0
LINE
  8
0
 10
399.742
 20
4.25829
 11
399.885
 21
4.82945
  0
LINE
  8
0
 10
399.885
 20
4.82945
 11
399.971
 21
5.4119
  0
LINE
  8
0
 10
399.971
 20
5.4119
 11
400
 21
6
  0
LINE
  8
0
 10
400
 20
6
 11
400
 21
644
  0
LINE
  8
0
 10
400
 20
644
 11
399.971
 21
644.588
  0
LINE
  8
0
 10
399.971
 20
644.588
 11
399.885
 21
645.171
  0
LINE
  8
0
 10
399.885
 20
645.171
 11
399.742
 21
645.742
  0
LINE
  8
0
 10
399.742
 20
645.742
 11
399.543
 21
646.296
  0
LINE
  8
0
 10
399.543
 20
646.296
 11
399.292
 21
646.828
  0
LINE
  8
0
 10
399.292
 20
646.828
 11
398.989
 21
647.333
  0
LINE
  8
0
 10
398.989
 20
647.333
 11
398.638
 21
647.806
  0
LINE
  8
0
 10
398.638
 20
647.806
 11
398.243
 21
648.243
  0
LINE
  8
0
 10
398.243
 20
648.243
 11
397.806
 21
648.638
  0
LINE
  8
0
 10
397.806
 20
648.638
 11
397.333
 21
648.989
  0
LINE
  8
0
 10
397.333
 20
648.989
 11
396.828
 21
649.292
  0
LINE
  8
0
 10
396.828
 20
649.292
 11
396.296
 21
649.543
  0
LINE
  8
0
 10
396.296
 20
649.543
 11
395.742
 21
649.742
  0
LINE
  8
0
 10
395.742
 20
649.742
 11
395.171
 21
649.885
  0
LINE
  8
0
 10
395.171
 20
649.885
 11
394.588
 21
649.971
  0
LINE
  8
0
 10
394.588
 20
649.971
 11
394
 21
650
  0
LINE
  8
0
 10
394
 20
650
 11
6
 21
650
  0
LINE
  8
0
 10
6
 20
650
 11
5.4119
 21
649.971
  0
LINE
  8
0
 10
5.4119
 20
649.971
 11
4.82945
 21
649.885
  0
LINE
  8
0
 10
4.82945
 20
649.885
 11
4.25829
 21
649.742
  0
LINE
  8
0
 10
4.25829
 20
649.742
 11
3.7039
 21
649.543
  0
LINE
  8
0
 10
3.7039
 20
649.543
 11
3.17162
 21
649.292
  0
LINE
  8
0
 10
3.17162
 20
649.292
 11
2.66658
 21
648.989
  0
LINE
  8
0
 10
2.66658
 20
648.989
 11
2.19363
 21
648.638
  0
LINE
  8
0
 10
2.19363
 20
648.638
 11
1.75735
 21
648.243
  0
LINE
  8
0
 10
1.75735
 20
648.243
 11
1.36194
 21
647.806
  0
LINE
  8
0
 10
1.36194
 20
647.806
 11
1.01118
 21
647.333
  0
LINE
  8
0
 10
1.01118
 20
647.333
 11
0.708466
 21
646.828
  0
LINE
  8
0
 10
0.708466
 20
646.828
 11
0.456726
 21
646.296
  0
LINE
  8
0
 10
0.456726
 20
646.296
 11
0.258362
 21
645.742
  0
LINE
  8
0
 10
0.258362
 20
645.742
 11
0.115295
 21
645.171
  0
LINE
  8
0
 10
0.115295
 20
645.171
 11
0.0288849
 21
644.588
  0
LINE
  8
0
 10
0.0288849
 20
644.588
 11
0
 21
644
  0
LINE
  8
0
 10
0
 20
644
 11
0
 21
6
  0
LINE
  8
0
 10
0
 20
6
 11
0.0288849
 21
5.4119
  0
LINE
  8
0
 10
0.0288849
 20
5.4119
 11
0.115295
 21
4.82945
  0
LINE
  8
0
 10
0.115295
 20
4.82945
 11
0.258362
 21
4.25829
  0
LINE
  8
0
 10
0.258362
 20
4.25829
 11
0.456726
 21
3.7039
  0
LINE
  8
0
 10
0.456726
 20
3.7039
 11
0.708466
 21
3.17162
  0
LINE
  8
0
 10
0.708466
 20
3.17162
 11
1.01118
 21
2.66658
  0
LINE
  8
0
 10
1.01118
 20
2.66658
 11
1.36194
 21
2.19363
  0
LINE
  8
0
 10
1.36194
 20
2.19363
 11
1.75735
 21
1.75735
  0
LINE
  8
0
 10
1.75735
 20
1.75735
 11
2.19363
 21
1.36194
  0
LINE
  8
0
 10
2.19363
 20
1.36194
 11
2.66658
 21
1.01118
  0
LINE
  8
0
 10
2.66658
 20
1.01118
 11
3.17162
 21
0.708466
  0
LINE
  8
0
 10
3.17162
 20
0.708466
 11
3.7039
 21
0.456726
  0
LINE
  8
0
 10
3.7039
 20
0.456726
 11
4.25829
 21
0.258362
  0
LINE
  8
0
 10
4.25829
 20
0.258362
 11
4.82945
 21
0.115295
  0
LINE
  8
0
 10
4.82945
 20
0.115295
 11
5.4119
 21
0.0288849
  0
LINE
  8
0
 10
5.4119
 20
0.0288849
 11
6
 21
0
  0
LINE
  8
0
 10
6
 20
0
 11
394
 21
0
  0
LINE
  8
0
 10
394
 20
0
 11
394.588
 21
0.0288849
  0
LINE
  8
0
 10
22.1814
 20
611.766
 11
21.866
 21
611.812
  0
LINE
  8
0
 10
21.866
 20
611.812
 11
21.5566
 21
611.89
  0
LINE
  8
0
 10
21.5566
 20
611.89
 11
21.2563
 21
611.997
  0
LINE
  8
0
 10
21.2563
 20
611.997
 11
20.968
 21
612.134
  0
LINE
  8
0
 10
20.968
 20
612.134
 11
20.6944
 21
612.298
  0
LINE
  8
0
 10
20.6944
 20
612.298
 11
20.4382
 21
612.488
  0
LINE
  8
0
 10
20.4382
 20
612.488
 11
20.2019
 21
612.702
  0
LINE
  8
0
 10
20.2019
 20
612.702
 11
19.9877
 21
612.938
  0
LINE
  8
0
 10
19.9877
 20
612.938
 11
19.7977
 21
613.194
  0
LINE
  8
0
 10
19.7977
 20
613.194
 11
19.6337
 21
613.468
  0
LINE
  8
0
 10
19.6337
 20
613.468
 11
19.4974
 21
613.756
  0
LINE
  8
0
 10
19.4974
 20
613.756
 11
19.3899
 21
614.057
  0
LINE
  8
0
 10
19.3899
 20
614.057
 11
19.3124
 21
614.366
  0
LINE
  8
0
 10
19.3124
 20
614.366
 11
19.2656
 21
614.681
  0
LINE
  8
0
 10
19.2656
 20
614.681
 11
19.25
 21
615
  0
LINE
  8
0
 10
19.25
 20
615
 11
19.2656
 21
615.319
  0
LINE
  8
0
 10
19.2656
 20
615.319
 11
19.3124
 21
615.634
  0
LINE
  8
0
 10
19.3124
 20
615.634
 11
19.3899
 21
615.943
  0
LINE
  8
0
 10
19.3899
 20
615.943
 11
19.4974
 21
616.244
  0
LINE
  8
0
 10
19.4974
 20
616.244
 11
19.6337
 21
616.532
  0
LINE
  8
0
 10
19.6337
 20
616.532
 11
19.7977
 21
616.806
  0
LINE
  8
0
 10
19.7977
 20
616.806
 11
19.9877
 21
617.062
  0
LINE
  8
0
 10
19.9877
 20
617.062
 11
20.2019
 21
617.298
  0
LINE
  8
0
 10
20.2019
 20
617.298
 11
20.4382
 21
617.512
  0
LINE
  8
0
 10
20.4382
 20
617.512
 11
20.6944
 21
617.702
  0
LINE
  8
0
 10
20.6944
 20
617.702
 11
20.968
 21
617.866
  0
LINE
  8
0
 10
20.968
 20
617.866
 11
21.2563
 21
618.003
  0
LINE
  8
0
 10
21.2563
 20
618.003
 11
21.5566
 21
618.11
  0
LINE
  8
0
 10
21.5566
 20
618.11
 11
21.866
 21
618.188
  0
LINE
  8
0
 10
21.866
 20
618.188
 11
22.1814
 21
618.234
  0
LINE
  8
0
 10
22.1814
 20
618.234
 11
22.5
 21
618.25
  0
LINE
  8
0
 10
22.5
 20
618.25
 11
22.8185
 21
618.234
  0
LINE
  8
0
 10
22.8185
 20
618.234
 11
23.134
 21
618.188
  0
LINE
  8
0
 10
23.134
 20
618.188
 11
23.4434
 21
618.11
  0
LINE
  8
0
 10
23.4434
 20
618.11
 11
23.7437
 21
618.003
  0
LINE
  8
0
 10
23.7437
 20
618.003
 11
24.032
 21
617.866
  0
LINE
  8
0
 10
24.032
 20
617.866
 11
24.3056
 21
617.702
  0
LINE
  8
0
 10
24.3056
 20
617.702
 11
24.5618
 21
617.512
  0
LINE
  8
0
 10
24.5618
 20
617.512
 11
24.7981
 21
617.298
  0
LINE
  8
0
 10
24.7981
 20
617.298
 11
25.0123
 21
617.062
  0
LINE
  8
0
 10
25.0123
 20
617.062
 11
25.2023
 21
616.806
  0
LINE
  8
0
 10
25.2023
 20
616.806
 11
25.3662
 21
616.532
  0
LINE
  8
0
 10
25.3662
 20
616.532
 11
25.5026
 21
616.244
  0
LINE
  8
0
 10
25.5026
 20
616.244
 11
25.61
 21
615.943
  0
LINE
  8
0
 10
25.61
 20
615.943
 11
25.6875
 21
615.634
  0
LINE
  8
0
 10
25.6875
 20
615.634
 11
25.7343
 21
615.319
  0
LINE
  8
0
 10
25.7343
 20
615.319
 11
25.75
 21
615
  0
LINE
  8
0
 10
25.75
 20
615
 11
25.7343
 21
614.681
  0
LINE
  8
0
 10
25.7343
 20
614.681
 11
25.6875
 21
614.366
  0
LINE
  8
0
 10
25.6875
 20
614.366
 11
25.61
 21
614.057
  0
LINE
  8
0
 10
25.61
 20
614.057
 11
25.5026
 21
613.756
  0
LINE
  8
0
 10
25.5026
 20
613.756
 11
25.3662
 21
613.468
  0
LINE
  8
0
 10
25.3662
 20
613.468
 11
25.2023
 21
613.194
  0
LINE
  8
0
 10
25.2023
 20
613.194
 11
25.0123
 21
612.938
  0
LINE
  8
0
 10
25.0123
 20
612.938
 11
24.7981
 21
612.702
  0
LINE
  8
0
 10
24.7981
 20
612.702
 11
24.5618
 21
612.488
  0
LINE
  8
0
 10
24.5618
 20
612.488
 11
24.3056
 21
612.298
  0
LINE
  8
0
 10
24.3056
 20
612.298
 11
24.032
 21
612.134
  0
LINE
  8
0
 10
24.032
 20
612.134
 11
23.7437
 21
611.997
  0
LINE
  8
0
 10
23.7437
 20
611.997
 11
23.4434
 21
611.89
  0
LINE
  8
0
 10
23.4434
 20
611.89
 11
23.134
 21
611.812
  0
LINE
  8
0
 10
23.134
 20
611.812
 11
22.8185
 21
611.766
  0
LINE
  8
0
 10
22.8185
 20
611.766
 11
22.5
 21
611.75
  0
LINE
  8
0
 10
22.5
 20
611.75
 11
22.1814
 21
611.766
  0
LINE
  8
0
 10
377.181
 20
611.766
 11
376.866
 21
611.812
  0
LINE
  8
0
 10
376.866
 20
611.812
 11
376.557
 21
611.89
  0
LINE
  8
0
 10
376.557
 20
611.89
 11
376.256
 21
611.997
  0
LINE
  8
0
 10
376.256
 20
611.997
 11
375.968
 21
612.134
  0
LINE
  8
0
 10
375.968
 20
612.134
 11
375.694
 21
612.298
  0
LINE
  8
0
 10
375.694
 20
612.298
 11
375.438
 21
612.488
  0
LINE
  8
0
 10
375.438
 20
612.488
 11
375.202
 21
612.702
  0
LINE
  8
0
 10
375.202
 20
612.702
 11
374.988
 21
612.938
  0
LINE
  8
0
 10
374.988
 20
612.938
 11
374.798
 21
613.194
  0
LINE
  8
0
 10
374.798
 20
613.194
 11
374.634
 21
613.468
  0
LINE
  8
0
 10
374.634
 20
613.468
 11
374.497
 21
613.756
  0
LINE
  8
0
 10
374.497
 20
613.756
 11
374.39
 21
614.057
  0
LINE
  8
0
 10
374.39
 20
614.057
 11
374.312
 21
614.366
  0
LINE
  8
0
 10
374.312
 20
614.366
 11
374.266
 21
614.681
  0
LINE
  8
0
 10
374.266
 20
614.681
 11
374.25
 21
615
  0
LINE
  8
0
 10
374.25
 20
615
 11
374.266
 21
615.319
  0
LINE
  8
0
 10
374.266
 20
615.319
 11
374.312
 21
615.634
  0
LINE
  8
0
 10
374.312
 20
615.634
 11
374.39
 21
615.943
  0
LINE
  8
0
 10
374.39
 20
615.943
 11
374.497
 21
616.244
  0
LINE
  8
0
 10
374.497
 20
616.244
 11
374.634
 21
616.532
  0
LINE
  8
0
 10
374.634
 20
616.532
 11
374.798
 21
616.806
  0
LINE
  8
0
 10
374.798
 20
616.806
 11
374.988
 21
617.062
  0
LINE
  8
0
 10
374.988
 20
617.062
 11
375.202
 21
617.298
  0
LINE
  8
0
 10
375.202
 20
617.298
 11
375.438
 21
617.512
  0
LINE
  8
0
 10
375.438
 20
617.512
 11
375.694
 21
617.702
  0
LINE
  8
0
 10
375.694
 20
617.702
 11
375.968
 21
617.866
  0
LINE
  8
0
 10
375.968
 20
617.866
 11
376.256
 21
618.003
  0
LINE
  8
0
 10
376.256
 20
618.003
 11
376.557
 21
618.11
  0
LINE
  8
0
 10
376.557
 20
618.11
 11
376.866
 21
618.188
  0
LINE
  8
0
 10
376.866
 20
618.188
 11
377.181
 21
618.234
  0
LINE
  8
0
 10
377.181
 20
618.234
 11
377.5
 21
618.25
  0
LINE
  8
0
 10
377.5
 20
618.25
 11
377.819
 21
618.234
  0
LINE
  8
0
 10
377.819
 20
618.234
 11
378.134
 21
618.188
  0
LINE
  8
0
 10
378.134
 20
618.188
 11
378.443
 21
618.11
  0
LINE
  8
0
 10
378.443
 20
618.11
 11
378.744
 21
618.003
  0
LINE
  8
0
 10
378.744
 20
618.003
 11
379.032
 21
617.866
  0
LINE
  8
0
 10
379.032
 20
617.866
 11
379.306
 21
617.702
  0
LINE
  8
0
 10
379.306
 20
617.702
 11
379.562
 21
617.512
  0
LINE
  8
0
 10
379.562
 20
617.512
 11
379.798
 21
617.298
  0
LINE
  8
0
 10
379.798
 20
617.298
 11
380.012
 21
617.062
  0
LINE
  8
0
 10
380.012
 20
617.062
 11
380.202
 21
616.806
  0
LINE
  8
0
 10
380.202
 20
616.806
 11
380.366
 21
616.532
  0
LINE
  8
0
 10
380.366
 20
616.532
 11
380.503
 21
616.244
  0
LINE
  8
0
 10
380.503
 20
616.244
 11
380.61
 21
615.943
  0
LINE
  8
0
 10
380.61
 20
615.943
 11
380.688
 21
615.634
  0
LINE
  8
0
 10
380.688
 20
615.634
 11
380.734
 21
615.319
  0
LINE
  8
0
 10
380.734
 20
615.319
 11
380.75
 21
615
  0
LINE
  8
0
 10
380.75
 20
615
 11
380.734
 21
614.681
  0
LINE
  8
0
 10
380.734
 20
614.681
 11
380.688
 21
614.366
  0
LINE
  8
0
 10
380.688
 20
614.366
 11
380.61
 21
614.057
  0
LINE
  8
0
 10
380.61
 20
614.057
 11
380.503
 21
613.756
  0
LINE
  8
0
 10
380.503
 20
613.756
 11
380.366
 21
613.468
  0
LINE
  8
0
 10
380.366
 20
613.468
 11
380.202
 21
613.194
  0
LINE
  8
0
 10
380.202
 20
613.194
 11
380.012
 21
612.938
  0
LINE
  8
0
 10
380.012
 20
612.938
 11
379.798
 21
612.702
  0
LINE
  8
0
 10
379.798
 20
612.702
 11
379.562
 21
612.488
  0
LINE
  8
0
 10
379.562
 20
612.488
 11
379.306
 21
612.298
  0
LINE
  8
0
 10
379.306
 20
612.298
 11
379.032
 21
612.134
  0
LINE
  8
0
 10
379.032
 20
612.134
 11
378.744
 21
611.997
  0
LINE
  8
0
 10
378.744
 20
611.997
 11
378.443
 21
611.89
  0
LINE
  8
0
 10
378.443
 20
611.89
 11
378.134
 21
611.812
  0
LINE
  8
0
 10
378.134
 20
611.812
 11
377.819
 21
611.766
  0
LINE
  8
0
 10
377.819
 20
611.766
 11
377.5
 21
611.75
  0
LINE
  8
0
 10
377.5
 20
611.75
 11
377.181
 21
611.766
  0
LINE
  8
0
 10
55
 20
80
 11
54.0198
 21
80.0482
  0
LINE
  8
0
 10
54.0198
 20
80.0482
 11
53.0491
 21
80.1922
  0
LINE
  8
0
 10
53.0491
 20
80.1922
 11
52.0972
 21
80.4306
  0
LINE
  8
0
 10
52.0972
 20
80.4306
 11
51.1732
 21
80.7612
  0
LINE
  8
0
 10
51.1732
 20
80.7612
 11
50.286
 21
81.1808
  0
LINE
  8
0
 10
50.286
 20
81.1808
 11
49.4443
 21
81.6853
  0
LINE
  8
0
 10
49.4443
 20
81.6853
 11
48.6561
 21
82.2699
  0
LINE
  8
0
 10
48.6561
 20
82.2699
 11
47.9289
 21
82.9289
  0
LINE
  8
0
 10
47.9289
 20
82.9289
 11
47.2699
 21
83.6561
  0
LINE
  8
0
 10
47.2699
 20
83.6561
 11
46.6853
 21
84.4443
  0
LINE
  8
0
 10
46.6853
 20
84.4443
 11
46.1808
 21
85.286
  0
LINE
  8
0
 10
46.1808
 20
85.286
 11
45.7612
 21
86.1732
  0
LINE
  8
0
 10
45.7612
 20
86.1732
 11
45.4306
 21
87.0972
  0
LINE
  8
0
 10
45.4306
 20
87.0972
 11
45.1922
 21
88.0491
  0
LINE
  8
0
 10
45.1922
 20
88.0491
 11
45.0482
 21
89.0198
  0
LINE
  8
0
 10
45.0482
 20
89.0198
 11
45
 21
90
  0
LINE
  8
0
 10
45
 20
90
 11
45
 21
550
  0
LINE
  8
0
 10
45
 20
550
 11
45.0482
 21
550.98
  0
LINE
  8
0
 10
45.0482
 20
550.98
 11
45.1922
 21
551.951
  0
LINE
  8
0
 10
45.1922
 20
551.951
 11
45.4306
 21
552.903
  0
LINE
  8
0
 10
45.4306
 20
552.903
 11
45.7612
 21
553.827
  0
LINE
  8
0
 10
45.7612
 20
553.827
 11
46.1808
 21
554.714
  0
LINE
  8
0
 10
46.1808
 20
554.714
 11
46.6853
 21
555.556
  0
LINE
  8
0
 10
46.6853
 20
555.556
 11
47.2699
 21
556.344
  0
LINE
  8
0
 10
47.2699
 20
556.344
 11
47.9289
 21
557.071
  0
LINE
  8
0
 10
47.9289
 20
557.071
 11
48.6561
 21
557.73
  0
LINE
  8
0
 10
48.6561
 20
557.73
 11
49.4443
 21
558.315
  0
LINE
  8
0
 10
49.4443
 20
558.315
 11
50.286
 21
558.819
  0
LINE
  8
0
 10
50.286
 20
558.819
 11
51.1732
 21
559.239
  0
LINE
  8
0
 10
51.1732
 20
559.239
 11
52.0972
 21
559.569
  0
LINE
  8
0
 10
52.0972
 20
559.569
 11
53.0491
 21
559.808
  0
LINE
  8
0
 10
53.0491
 20
559.808
 11
54.0198
 21
559.952
  0
LINE
  8
0
 10
54.0198
 20
559.952
 11
55
 21
560
  0
LINE
  8
0
 10
55
 20
560
 11
85
 21
560
  0
LINE
  8
0
 10
85
 20
560
 11
85.9802
 21
559.952
  0
LINE
  8
0
 10
85.9802
 20
559.952
 11
86.9509
 21
559.808
  0
LINE
  8
0
 10
86.9509
 20
559.808
 11
87.9028
 21
559.569
  0
LINE
  8
0
 10
87.9028
 20
559.569
 11
88.8268
 21
559.239
  0
LINE
  8
0
 10
88.8268
 20
559.239
 11
89.714
 21
558.819
  0
LINE
  8
0
 10
89.714
 20
558.819
 11
90.5557
 21
558.315
  0
LINE
  8
0
 10
90.5557
 20
558.315
 11
91.3439
 21
557.73
  0
LINE
  8
0
 10
91.3439
 20
557.73
 11
92.0711
 21
557.071
  0
LINE
  8
0
 10
92.0711
 20
557.071
 11
92.7301
 21
556.344
  0
LINE
  8
0
 10
92.7301
 20
556.344
 11
93.3147
 21
555.556
  0
LINE
  8
0
 10
93.3147
 20
555.556
 11
93.8192
 21
554.714
  0
LINE
  8
0
 10
93.8192
 20
554.714
 11
94.2388
 21
553.827
  0
LINE
  8
0
 10
94.2388
 20
553.827
 11
94.5694
 21
552.903
  0
LINE
  8
0
 10
94.5694
 20
552.903
 11
94.8078
 21
551.951
  0
LINE
  8
0
 10
94.8078
 20
551.951
 11
94.9518
 21
550.98
  0
LINE
  8
0
 10
94.9518
 20
550.98
 11
95
 21
550
  0
LINE
  8
0
 10
95
 20
550
 11
95
 21
90
  0
LINE
  8
0
 10
95
 20
90
 11
94.9518
 21
89.0198
  0
LINE
  8
0
 10
94.9518
 20
89.0198
 11
94.8078
 21
88.0491
  0
LINE
  8
0
 10
94.8078
 20
88.0491
 11
94.5694
 21
87.0972
  0
LINE
  8
0
 10
94.5694
 20
87.0972
 11
94.2388
 21
86.1732
  0
LINE
  8
0
 10
94.2388
 20
86.1732
 11
93.8192
 21
85.286
  0
LINE
  8
0
 10
93.8192
 20
85.286
 11
93.3147
 21
84.4443
  0
LINE
  8
0
 10
93.3147
 20
84.4443
 11
92.7301
 21
83.6561
  0
LINE
  8
0
 10
92.7301
 20
83.6561
 11
92.0711
 21
82.9289
  0
LINE
  8
0
 10
92.0711
 20
82.9289
 11
91.3439
 21
82.2699
  0
LINE
  8
0
 10
91.3439
 20
82.2699
 11
90.5557
 21
81.6853
  0
LINE
  8
0
 10
90.5557
 20
81.6853
 11
89.714
 21
81.1808
  0
LINE
  8
0
 10
89.714
 20
81.1808
 11
88.8268
 21
80.7612
  0
LINE
  8
0
 10
88.8268
 20
80.7612
 11
87.9028
 21
80.4306
  0
LINE
  8
0
 10
87.9028
 20
80.4306
 11
86.9509
 21
80.1922
  0
LINE
  8
0
 10
86.9509
 20
80.1922
 11
85.9802
 21
80.0482
  0
LINE
  8
0
 10
85.9802
 20
80.0482
 11
85
 21
80
  0
LINE
  8
0
 10
85
 20
80
 11
55
 21
80
  0
LINE
  8
0
 10
141.667
 20
80
 11
140.686
 21
80.0482
  0
LINE
  8
0
 10
140.686
 20
80.0482
 11
139.716
 21
80.1922
  0
LINE
  8
0
 10
139.716
 20
80.1922
 11
138.764
 21
80.4306
  0
LINE
  8
0
 10
138.764
 20
80.4306
 11
137.84
 21
80.7612
  0
LINE
  8
0
 10
137.84
 20
80.7612
 11
136.953
 21
81.1808
  0
LINE
  8
0
 10
136.953
 20
81.1808
 11
136.111
 21
81.6853
  0
LINE
  8
0
 10
136.111
 20
81.6853
 11
135.323
 21
82.2699
  0
LINE
  8
0
 10
135.323
 20
82.2699
 11
134.596
 21
82.9289
  0
LINE
  8
0
 10
134.596
 20
82.9289
 11
133.937
 21
83.6561
  0
LINE
  8
0
 10
133.937
 20
83.6561
 11
133.352
 21
84.4443
  0
LINE
  8
0
 10
133.352
 20
84.4443
 11
132.847
 21
85.286
  0
LINE
  8
0
 10
132.847
 20
85.286
 11
132.428
 21
86.1732
  0
LINE
  8
0
 10
132.428
 20
86.1732
 11
132.097
 21
87.0972
  0
LINE
  8
0
 10
132.097
 20
87.0972
 11
131.859
 21
88.0491
  0
LINE
  8
0
 10
131.859
 20
88.0491
 11
131.715
 21
89.0198
  0
LINE
  8
0
 10
131.715
 20
89.0198
 11
131.667
 21
90
  0
LINE
  8
0
 10
131.667
 20
90
 11
131.667
 21
550
  0
LINE
  8
0
 10
131.667
 20
550
 11
131.715
 21
550.98
  0
LINE
  8
0
 10
131.715
 20
550.98
 11
131.859
 21
551.951
  0
LINE
  8
0
 10
131.859
 20
551.951
 11
132.097
 21
552.903
  0
LINE
  8
0
 10
132.097
 20
552.903
 11
132.428
 21
553.827
  0
LINE
  8
0
 10
132.428
 20
553.827
 11
132.847
 21
554.714
  0
LINE
  8
0
 10
132.847
 20
554.714
 11
133.352
 21
555.556
  0
LINE
  8
0
 10
133.352
 20
555.556
 11
133.937
 21
556.344
  0
LINE
  8
0
 10
133.937
 20
556.344
 11
134.596
 21
557.071
  0
LINE
  8
0
 10
134.596
 20
557.071
 11
135.323
 21
557.73
  0
LINE
  8
0
 10
135.323
 20
557.73
 11
136.111
 21
558.315
  0
LINE
  8
0
 10
136.111
 20
558.315
 11
136.953
 21
558.819
  0
LINE
  8
0
 10
136.953
 20
558.819
 11
137.84
 21
559.239
  0
LINE
  8
0
 10
137.84
 20
559.239
 11
138.764
 21
559.569
  0
LINE
  8
0
 10
138.764
 20
559.569
 11
139.716
 21
559.808
  0
LINE
  8
0
 10
139.716
 20
559.808
 11
140.686
 21
559.952
  0
LINE
  8
0
 10
140.686
 20
559.952
 11
141.667
 21
560
  0
LINE
  8
0
 10
141.667
 20
560
 11
171.667
 21
560
  0
LINE
  8
0
 10
171.667
 20
560
 11
172.647
 21
559.952
  0
LINE
  8
0
 10
172.647
 20
559.952
 11
173.618
 21
559.808
  0
LINE
  8
0
 10
173.618
 20
559.808
 11
174.57
 21
559.569
  0
LINE
  8
0
 10
174.57
 20
559.569
 11
175.493
 21
559.239
  0
LINE
  8
0
 10
175.493
 20
559.239
 11
176.381
 21
558.819
  0
LINE
  8
0
 10
176.381
 20
558.819
 11
177.222
 21
558.315
  0
LINE
  8
0
 10
177.222
 20
558.315
 11
178.011
 21
557.73
  0
LINE
  8
0
 10
178.011
 20
557.73
 11
178.738
 21
557.071
  0
LINE
  8
0
 10
178.738
 20
557.071
 11
179.397
 21
556.344
  0
LINE
  8
0
 10
179.397
 20
556.344
 11
179.981
 21
555.556
  0
LINE
  8
0
 10
179.981
 20
555.556
 11
180.486
 21
554.714
  0
LINE
  8
0
 10
180.486
 20
554.714
 11
180.905
 21
553.827
  0
LINE
  8
0
 10
180.905
 20
553.827
 11
181.236
 21
552.903
  0
LINE
  8
0
 10
181.236
 20
552.903
 11
181.475
 21
551.951
  0
LINE
  8
0
 10
181.475
 20
551.951
 11
181.618
 21
550.98
  0
LINE
  8
0
 10
181.618
 20
550.98
 11
181.667
 21
550
  0
LINE
  8
0
 10
181.667
 20
550
 11
181.667
 21
90
  0
LINE
  8
0
 10
181.667
 20
90
 11
181.618
 21
89.0198
  0
LINE
  8
0
 10
181.618
 20
89.0198
 11
181.475
 21
88.0491
  0
LINE
  8
0
 10
181.475
 20
88.0491
 11
181.236
 21
87.0972
  0
LINE
  8
0
 10
181.236
 20
87.0972
 11
180.905
 21
86.1732
  0
LINE
  8
0
 10
180.905
 20
86.1732
 11
180.486
 21
85.286
  0
LINE
  8
0
 10
180.486
 20
85.286
 11
179.981
 21
84.4443
  0
LINE
  8
0
 10
179.981
 20
84.4443
 11
179.397
 21
83.6561
  0
LINE
  8
0
 10
179.397
 20
83.6561
 11
178.738
 21
82.9289
  0
LINE
  8
0
 10
178.738
 20
82.9289
 11
178.011
 21
82.2699
  0
LINE
  8
0
 10
178.011
 20
82.2699
 11
177.222
 21
81.6853
  0
LINE
  8
0
 10
177.222
 20
81.6853
 11
176.381
 21
81.1808
  0
LINE
  8
0
 10
176.381
 20
81.1808
 11
175.493
 21
80.7612
  0
LINE
  8
0
 10
175.493
 20
80.7612
 11
174.57
 21
80.4306
  0
LINE
  8
0
 10
174.57
 20
80.4306
 11
173.618
 21
80.1922
  0
LINE
  8
0
 10
173.618
 20
80.1922
 11
172.647
 21
80.0482
  0
LINE
  8
0
 10
172.647
 20
80.0482
 11
171.667
 21
80
  0
LINE
  8
0
 10
171.667
 20
80
 11
141.667
 21
80
  0
LINE
  8
0
 10
228.333
 20
80
 11
227.353
 21
80.0482
  0
LINE
  8
0
 10
227.353
 20
80.0482
 11
226.382
 21
80.1922
  0
LINE
  8
0
 10
226.382
 20
80.1922
 11
225.43
 21
80.4306
  0
LINE
  8
0
 10
225.43
 20
80.4306
 11
224.507
 21
80.7612
  0
LINE
  8
0
 10
224.507
 20
80.7612
 11
223.619
 21
81.1808
  0
LINE
  8
0
 10
223.619
 20
81.1808
 11
222.778
 21
81.6853
  0
LINE
  8
0
 10
222.778
 20
81.6853
 11
221.989
 21
82.2699
  0
LINE
  8
0
 10
221.989
 20
82.2699
 11
221.262
 21
82.9289
  0
LINE
  8
0
 10
221.262
 20
82.9289
 11
220.603
 21
83.6561
  0
LINE
  8
0
 10
220.603
 20
83.6561
 11
220.019
 21
84.4443
  0
LINE
  8
0
 10
220.019
 20
84.4443
 11
219.514
 21
85.286
  0
LINE
  8
0
 10
219.514
 20
85.286
 11
219.095
 21
86.1732
  0
LINE
  8
0
 10
219.095
 20
86.1732
 11
218.764
 21
87.0972
  0
LINE
  8
0
 10
218.764
 20
87.0972
 11
218.525
 21
88.0491
  0
LINE
  8
0
 10
218.525
 20
88.0491
 11
218.381
 21
89.0198
  0
LINE
  8
0
 10
218.381
 20
89.0198
 11
218.333
 21
90
  0
LINE
  8
0
 10
218.333
 20
90
 11
218.333
 21
550
  0
LINE
  8
0
 10
218.333
 20
550
 11
218.381
 21
550.98
  0
LINE
  8
0
 10
218.381
 20
550.98
 11
218.525
 21
551.951
  0
LINE
  8
0
 10
218.525
 20
551.951
 11
218.764
 21
552.903
  0
LINE
  8
0
 10
218.764
 20
552.903
 11
219.095
 21
553.827
  0
LINE
  8
0
 10
219.095
 20
553.827
 11
219.514
 21
554.714
  0
LINE
  8
0
 10
219.514
 20
554.714
 11
220.019
 21
555.556
  0
LINE
  8
0
 10
220.019
 20
555.556
 11
220.603
 21
556.344
  0
LINE
  8
0
 10
220.603
 20
556.344
 11
221.262
 21
557.071
  0
LINE
  8
0
 10
221.262
 20
557.071
 11
221.989
 21
557.73
  0
LINE
  8
0
 10
221.989
 20
557.73
 11
222.778
 21
558.315
  0
LINE
  8
0
 10
222.778
 20
558.315
 11
223.619
 21
558.819
  0
LINE
  8
0
 10
223.619
 20
558.819
 11
224.507
 21
559.239
  0
LINE
  8
0
 10
224.507
 20
559.239
 11
225.43
 21
559.569
  0
LINE
  8
0
 10
225.43
 20
559.569
 11
226.382
 21
559.808
  0
LINE
  8
0
 10
226.382
 20
559.808
 11
227.353
 21
559.952
  0
LINE
  8
0
 10
227.353
 20
559.952
 11
228.333
 21
560
  0
LINE
  8
0
 10
228.333
 20
560
 11
258.333
 21
560
  0
LINE
  8
0
 10
258.333
 20
560
 11
259.314
 21
559.952
  0
LINE
  8
0
 10
259.314
 20
559.952
 11
260.284
 21
559.808
  0
LINE
  8
0
 10
260.284
 20
559.808
 11
261.236
 21
559.569
  0
LINE
  8
0
 10
261.236
 20
559.569
 11
262.16
 21
559.239
  0
LINE
  8
0
 10
262.16
 20
559.239
 11
263.047
 21
558.819
  0
LINE
  8
0
 10
263.047
 20
558.819
 11
263.889
 21
558.315
  0
LINE
  8
0
 10
263.889
 20
558.315
 11
264.677
 21
557.73
  0
LINE
  8
0
 10
264.677
 20
557.73
 11
265.404
 21
557.071
  0
LINE
  8
0
 10
265.404
 20
557.071
 11
266.063
 21
556.344
  0
LINE
  8
0
 10
266.063
 20
556.344
 11
266.648
 21
555.556
  0
LINE
  8
0
 10
266.648
 20
555.556
 11
267.153
 21
554.714
  0
LINE
  8
0
 10
267.153
 20
554.714
 11
267.572
 21
553.827
  0
LINE
  8
0
 10
267.572
 20
553.827
 11
267.903
 21
552.903
  0
LINE
  8
0
 10
267.903
 20
552.903
 11
268.141
 21
551.951
  0
LINE
  8
0
 10
268.141
 20
551.951
 11
268.285
 21
550.98
  0
LINE
  8
0
 10
268.285
 20
550.98
 11
268.333
 21
550
  0
LINE
  8
0
 10
268.333
 20
550
 11
268.333
 21
90
  0
LINE
  8
0
 10
268.333
 20
90
 11
268.285
 21
89.0198
  0
LINE
  8
0
 10
268.285
 20
89.0198
 11
268.141
 21
88.0491
  0
LINE
  8
0
 10
268.141
 20
88.0491
 11
267.903
 21
87.0972
  0
LINE
  8
0
 10
267.903
 20
87.0972
 11
267.572
 21
86.1732
  0
LINE
  8
0
 10
267.572
 20
86.1732
 11
267.153
 21
85.286
  0
LINE
  8
0
 10
267.153
 20
85.286
 11
266.648
 21
84.4443
  0
LINE
  8
0
 10
266.648
 20
84.4443
 11
266.063
 21
83.6561
  0
LINE
  8
0
 10
266.063
 20
83.6561
 11
265.404
 21
82.9289
  0
LINE
  8
0
 10
265.404
 20
82.9289
 11
264.677
 21
82.2699
  0
LINE
  8
0
 10
264.677
 20
82.2699
 11
263.889
 21
81.6853
  0
LINE
  8
0
 10
263.889
 20
81.6853
 11
263.047
 21
81.1808
  0
LINE
  8
0
 10
263.047
 20
81.1808
 11
262.16
 21
80.7612
  0
LINE
  8
0
 10
262.16
 20
80.7612
 11
261.236
 21
80.4306
  0
LINE
  8
0
 10
261.236
 20
80.4306
 11
260.284
 21
80.1922
  0
LINE
  8
0
 10
260.284
 20
80.1922
 11
259.314
 21
80.0482
  0
LINE
  8
0
 10
259.314
 20
80.0482
 11
258.333
 21
80
  0
LINE
  8
0
 10
258.333
 20
80
 11
228.333
 21
80
  0
LINE
  8
0
 10
315
 20
80
 11
314.02
 21
80.0482
  0
LINE
  8
0
 10
314.02
 20
80.0482
 11
313.049
 21
80.1922
  0
LINE
  8
0
 10
313.049
 20
80.1922
 11
312.097
 21
80.4306
  0
LINE
  8
0
 10
312.097
 20
80.4306
 11
311.173
 21
80.7612
  0
LINE
  8
0
 10
311.173
 20
80.7612
 11
310.286
 21
81.1808
  0
LINE
  8
0
 10
310.286
 20
81.1808
 11
309.444
 21
81.6853
  0
LINE
  8
0
 10
309.444
 20
81.6853
 11
308.656
 21
82.2699
  0
LINE
  8
0
 10
308.656
 20
82.2699
 11
307.929
 21
82.9289
  0
LINE
  8
0
 10
307.929
 20
82.9289
 11
307.27
 21
83.6561
  0
LINE
  8
0
 10
307.27
 20
83.6561
 11
306.685
 21
84.4443
  0
LINE
  8
0
 10
306.685
 20
84.4443
 11
306.181
 21
85.286
  0
LINE
  8
0
 10
306.181
 20
85.286
 11
305.761
 21
86.1732
  0
LINE
  8
0
 10
305.761
 20
86.1732
 11
305.431
 21
87.0972
  0
LINE
  8
0
 10
305.431
 20
87.0972
 11
305.192
 21
88.0491
  0
LINE
  8
0
 10
305.192
 20
88.0491
 11
305.048
 21
89.0198
  0
LINE
  8
0
 10
305.048
 20
89.0198
 11
305
 21
90
  0
LINE
  8
0
 10
305
 20
90
 11
305
 21
550
  0
LINE
  8
0
 10
305
 20
550
 11
305.048
 21
550.98
  0
LINE
  8
0
 10
305.048
 20
550.98
 11
305.192
 21
551.951
  0
LINE
  8
0
 10
305.192
 20
551.951
 11
305.431
 21
552.903
  0
LINE
  8
0
 10
305.431
 20
552.903
 11
305.761
 21
553.827
  0
LINE
  8
0
 10
305.761
 20
553.827
 11
306.181
 21
554.714
  0
LINE
  8
0
 10
306.181
 20
554.714
 11
306.685
 21
555.556
  0
LINE
  8
0
 10
306.685
 20
555.556
 11
307.27
 21
556.344
  0
LINE
  8
0
 10
307.27
 20
556.344
 11
307.929
 21
557.071
  0
LINE
  8
0
 10
307.929
 20
557.071
 11
308.656
 21
557.73
  0
LINE
  8
0
 10
308.656
 20
557.73
 11
309.444
 21
558.315
  0
LINE
  8
0
 10
309.444
 20
558.315
 11
310.286
 21
558.819
  0
LINE
  8
0
 10
310.286
 20
558.819
 11
311.173
 21
559.239
  0
LINE
  8
0
 10
311.173
 20
559.239
 11
312.097
 21
559.569
  0
LINE
  8
0
 10
312.097
 20
559.569
 11
313.049
 21
559.808
  0
LINE
  8
0
 10
313.049
 20
559.808
 11
314.02
 21
559.952
  0
LINE
  8
0
 10
314.02
 20
559.952
 11
315
 21
560
  0
LINE
  8
0
 10
315
 20
560
 11
345
 21
560
  0
LINE
  8
0
 10
345
 20
560
 11
345.98
 21
559.952
  0
LINE
  8
0
 10
345.98
 20
559.952
 11
346.951
 21
559.808
  0
LINE
  8
0
 10
346.951
 20
559.808
 11
347.903
 21
559.569
  0
LINE
  8
0
 10
347.903
 20
559.569
 11
348.827
 21
559.239
  0
LINE
  8
0
 10
348.827
 20
559.239
 11
349.714
 21
558.819
  0
LINE
  8
0
 10
349.714
 20
558.819
 11
350.556
 21
558.315
  0
LINE
  8
0
 10
350.556
 20
558.315
 11
351.344
 21
557.73
  0
LINE
  8
0
 10
351.344
 20
557.73
 11
352.071
 21
557.071
  0
LINE
  8
0
 10
352.071
 20
557.071
 11
352.73
 21
556.344
  0
LINE
  8
0
 10
352.73
 20
556.344
 11
353.315
 21
555.556
  0
LINE
  8
0
 10
353.315
 20
555.556
 11
353.819
 21
554.714
  0
LINE
  8
0
 10
353.819
 20
554.714
 11
354.239
 21
553.827
  0
LINE
  8
0
 10
354.239
 20
553.827
 11
354.569
 21
552.903
  0
LINE
  8
0
 10
354.569
 20
552.903
 11
354.808
 21
551.951
  0
LINE
  8
0
 10
354.808
 20
551.951
 11
354.952
 21
550.98
  0
LINE
  8
0
 10
354.952
 20
550.98
 11
355
 21
550
  0
LINE
  8
0
 10
355
 20
550
 11
355
 21
90
  0
LINE
  8
0
 10
355
 20
90
 11
354.952
 21
89.0198
  0
LINE
  8
0
 10
354.952
 20
89.0198
 11
354.808
 21
88.0491
  0
LINE
  8
0
 10
354.808
 20
88.0491
 11
354.569
 21
87.0972
  0
LINE
  8
0
 10
354.569
 20
87.0972
 11
354.239
 21
86.1732
  0
LINE
  8
0
 10
354.239
 20
86.1732
 11
353.819
 21
85.286
  0
LINE
  8
0
 10
353.819
 20
85.286
 11
353.315
 21
84.4443
  0
LINE
  8
0
 10
353.315
 20
84.4443
 11
352.73
 21
83.6561
  0
LINE
  8
0
 10
352.73
 20
83.6561
 11
352.071
 21
82.9289
  0
LINE
  8
0
 10
352.071
 20
82.9289
 11
351.344
 21
82.2699
  0
LINE
  8
0
 10
351.344
 20
82.2699
 11
350.556
 21
81.6853
  0
LINE
  8
0
 10
350.556
 20
81.6853
 11
349.714
 21
81.1808
  0
LINE
  8
0
 10
349.714
 20
81.1808
 11
348.827
 21
80.7612
  0
LINE
  8
0
 10
348.827
 20
80.7612
 11
347.903
 21
80.4306
  0
LINE
  8
0
 10
347.903
 20
80.4306
 11
346.951
 21
80.1922
  0
LINE
  8
0
 10
346.951
 20
80.1922
 11
345.98
 21
80.0482
  0
LINE
  8
0
 10
345.98
 20
80.0482
 11
345
 21
80
  0
LINE
  8
0
 10
345
 20
80
 11
315
 21
80
  0
LINE
  8
0
 10
22.1814
 20
31.7656
 11
21.866
 21
31.8124
  0
LINE
  8
0
 10
21.866
 20
31.8124
 11
21.5566
 21
31.8899
  0
LINE
  8
0
 10
21.5566
 20
31.8899
 11
21.2563
 21
31.9974
  0
LINE
  8
0
 10
21.2563
 20
31.9974
 11
20.968
 21
32.1337
  0
LINE
  8
0
 10
20.968
 20
32.1337
 11
20.6944
 21
32.2977
  0
LINE
  8
0
 10
20.6944
 20
32.2977
 11
20.4382
 21
32.4877
  0
LINE
  8
0
 10
20.4382
 20
32.4877
 11
20.2019
 21
32.7019
  0
LINE
  8
0
 10
20.2019
 20
32.7019
 11
19.9877
 21
32.9382
  0
LINE
  8
0
 10
19.9877
 20
32.9382
 11
19.7977
 21
33.1944
  0
LINE
  8
0
 10
19.7977
 20
33.1944
 11
19.6337
 21
33.468
  0
LINE
  8
0
 10
19.6337
 20
33.468
 11
19.4974
 21
33.7563
  0
LINE
  8
0
 10
19.4974
 20
33.7563
 11
19.3899
 21
34.0566
  0
LINE
  8
0
 10
19.3899
 20
34.0566
 11
19.3124
 21
34.366
  0
LINE
  8
0
 10
19.3124
 20
34.366
 11
19.2656
 21
34.6814
  0
LINE
  8
0
 10
19.2656
 20
34.6814
 11
19.25
 21
35
  0
LINE
  8
0
 10
19.25
 20
35
 11
19.2656
 21
35.3185
  0
LINE
  8
0
 10
19.2656
 20
35.3185
 11
19.3124
 21
35.634
  0
LINE
  8
0
 10
19.3124
 20
35.634
 11
19.3899
 21
35.9434
  0
LINE
  8
0
 10
19.3899
 20
35.9434
 11
19.4974
 21
36.2437
  0
LINE
  8
0
 10
19.4974
 20
36.2437
 11
19.6337
 21
36.532
  0
LINE
  8
0
 10
19.6337
 20
36.532
 11
19.7977
 21
36.8056
  0
LINE
  8
0
 10
19.7977
 20
36.8056
 11
19.9877
 21
37.0618
  0
LINE
  8
0
 10
19.9877
 20
37.0618
 11
20.2019
 21
37.2981
  0
LINE
  8
0
 10
20.2019
 20
37.2981
 11
20.4382
 21
37.5123
  0
LINE
  8
0
 10
20.4382
 20
37.5123
 11
20.6944
 21
37.7023
  0
LINE
  8
0
 10
20.6944
 20
37.7023
 11
20.968
 21
37.8662
  0
LINE
  8
0
 10
20.968
 20
37.8662
 11
21.2563
 21
38.0026
  0
LINE
  8
0
 10
21.2563
 20
38.0026
 11
21.5566
 21
38.11
  0
LINE
  8
0
 10
21.5566
 20
38.11
 11
21.866
 21
38.1875
  0
LINE
  8
0
 10
21.866
 20
38.1875
 11
22.1814
 21
38.2343
  0
LINE
  8
0
 10
22.1814
 20
38.2343
 11
22.5
 21
38.25
  0
LINE
  8
0
 10
22.5
 20
38.25
 11
22.8185
 21
38.2343
  0
LINE
  8
0
 10
22.8185
 20
38.2343
 11
23.134
 21
38.1875
  0
LINE
  8
0
 10
23.134
 20
38.1875
 11
23.4434
 21
38.11
  0
LINE
  8
0
 10
23.4434
 20
38.11
 11
23.7437
 21
38.0026
  0
LINE
  8
0
 10
23.7437
 20
38.0026
 11
24.032
 21
37.8662
  0
LINE
  8
0
 10
24.032
 20
37.8662
 11
24.3056
 21
37.7023
  0
LINE
  8
0
 10
24.3056
 20
37.7023
 11
24.5618
 21
37.5123
  0
LINE
  8
0
 10
24.5618
 20
37.5123
 11
24.7981
 21
37.2981
  0
LINE
  8
0
 10
24.7981
 20
37.2981
 11
25.0123
 21
37.0618
  0
LINE
  8
0
 10
25.0123
 20
37.0618
 11
25.2023
 21
36.8056
  0
LINE
  8
0
 10
25.2023
 20
36.8056
 11
25.3662
 21
36.532
  0
LINE
  8
0
 10
25.3662
 20
36.532
 11
25.5026
 21
36.2437
  0
LINE
  8
0
 10
25.5026
 20
36.2437
 11
25.61
 21
35.9434
  0
LINE
  8
0
 10
25.61
 20
35.9434
 11
25.6875
 21
35.634
  0
LINE
  8
0
 10
25.6875
 20
35.634
 11
25.7343
 21
35.3185
  0
LINE
  8
0
 10
25.7343
 20
35.3185
 11
25.75
 21
35
  0
LINE
  8
0
 10
25.75
 20
35
 11
25.7343
 21
34.6814
  0
LINE
  8
0
 10
25.7343
 20
34.6814
 11
25.6875
 21
34.366
  0
LINE
  8
0
 10
25.6875
 20
34.366
 11
25.61
 21
34.0566
  0
LINE
  8
0
 10
25.61
 20
34.0566
 11
25.5026
 21
33.7563
  0
LINE
  8
0
 10
25.5026
 20
33.7563
 11
25.3662
 21
33.468
  0
LINE
  8
0
 10
25.3662
 20
33.468
 11
25.2023
 21
33.1944
  0
LINE
  8
0
 10
25.2023
 20
33.1944
 11
25.0123
 21
32.9382
  0
LINE
  8
0
 10
25.0123
 20
32.9382
 11
24.7981
 21
32.7019
  0
LINE
  8
0
 10
24.7981
 20
32.7019
 11
24.5618
 21
32.4877
  0
LINE
  8
0
 10
24.5618
 20
32.4877
 11
24.3056
 21
32.2977
  0
LINE
  8
0
 10
24.3056
 20
32.2977
 11
24.032
 21
32.1337
  0
LINE
  8
0
 10
24.032
 20
32.1337
 11
23.7437
 21
31.9974
  0
LINE
  8
0
 10
23.7437
 20
31.9974
 11
23.4434
 21
31.8899
  0
LINE
  8
0
 10
23.4434
 20
31.8899
 11
23.134
 21
31.8124
  0
LINE
  8
0
 10
23.134
 20
31.8124
 11
22.8185
 21
31.7656
  0
LINE
  8
0
 10
22.8185
 20
31.7656
 11
22.5
 21
31.75
  0
LINE
  8
0
 10
22.5
 20
31.75
 11
22.1814
 21
31.7656
  0
LINE
  8
0
 10
377.181
 20
31.7656
 11
376.866
 21
31.8124
  0
LINE
  8
0
 10
376.866
 20
31.8124
 11
376.557
 21
31.8899
  0
LINE
  8
0
 10
376.557
 20
31.8899
 11
376.256
 21
31.9974
  0
LINE
  8
0
 10
376.256
 20
31.9974
 11
375.968
 21
32.1337
  0
LINE
  8
0
 10
375.968
 20
32.1337
 11
375.694
 21
32.2977
  0
LINE
  8
0
 10
375.694
 20
32.2977
 11
375.438
 21
32.4877
  0
LINE
  8
0
 10
375.438
 20
32.4877
 11
375.202
 21
32.7019
  0
LINE
  8
0
 10
375.202
 20
32.7019
 11
374.988
 21
32.9382
  0
LINE
  8
0
 10
374.988
 20
32.9382
 11
374.798
 21
33.1944
  0
LINE
  8
0
 10
374.798
 20
33.1944
 11
374.634
 21
33.468
  0
LINE
  8
0
 10
374.634
 20
33.468
 11
374.497
 21
33.7563
  0
LINE
  8
0
 10
374.497
 20
33.7563
 11
374.39
 21
34.0566
  0
LINE
  8
0
 10
374.39
 20
34.0566
 11
374.312
 21
34.366
  0
LINE
  8
0
 10
374.312
 20
34.366
 11
374.266
 21
34.6814
  0
LINE
  8
0
 10
374.266
 20
34.6814
 11
374.25
 21
35
  0
LINE
  8
0
 10
374.25
 20
35
 11
374.266
 21
35.3185
  0
LINE
  8
0
 10
374.266
 20
35.3185
 11
374.312
 21
35.634
  0
LINE
  8
0
 10
374.312
 20
35.634
 11
374.39
 21
35.9434
  0
LINE
  8
0
 10
374.39
 20
35.9434
 11
374.497
 21
36.2437
  0
LINE
  8
0
 10
374.497
 20
36.2437
 11
374.634
 21
36.532
  0
LINE
  8
0
 10
374.634
 20
36.532
 11
374.798
 21
36.8056
  0
LINE
  8
0
 10
374.798
 20
36.8056
 11
374.988
 21
37.0618
  0
LINE
  8
0
 10
374.988
 20
37.0618
 11
375.202
 21
37.2981
  0
LINE
  8
0
 10
375.202
 20
37.2981
 11
375.438
 21
37.5123
  0
LINE
  8
0
 10
375.438
 20
37.5123
 11
375.694
 21
37.7023
  0
LINE
  8
0
 10
375.694
 20
37.7023
 11
375.968
 21
37.8662
  0
LINE
  8
0
 10
375.968
 20
37.8662
 11
376.256
 21
38.0026
  0
LINE
  8
0
 10
376.256
 20
38.0026
 11
376.557
 21
38.11
  0
LINE
  8
0
 10
376.557
 20
38.11
 11
376.866
 21
38.1875
  0
LINE
  8
0
 10
376.866
 20
38.1875
 11
377.181
 21
38.2343
  0
LINE
  8
0
 10
377.181
 20
38.2343
 11
377.5
 21
38.25
  0
LINE
  8
0
 10
377.5
 20
38.25
 11
377.819
 21
38.2343
  0
LINE
  8
0
 10
377.819
 20
38.2343
 11
378.134
 21
38.1875
  0
LINE
  8
0
 10
378.134
 20
38.1875
 11
378.443
 21
38.11
  0
LINE
  8
0
 10
378.443
 20
38.11
 11
378.744
 21
38.0026
  0
LINE
  8
0
 10
378.744
 20
38.0026
 11
379.032
 21
37.8662
  0
LINE
  8
0
 10
379.032
 20
37.8662
 11
379.306
 21
37.7023
  0
LINE
  8
0
 10
379.306
 20
37.7023
 11
379.562
 21
37.5123
  0
LINE
  8
0
 10
379.562
 20
37.5123
 11
379.798
 21
37.2981
  0
LINE
  8
0
 10
379.798
 20
37.2981
 11
380.012
 21
37.0618
  0
LINE
  8
0
 10
380.012
 20
37.0618
 11
380.202
 21
36.8056
  0
LINE
  8
0
 10
380.202
 20
36.8056
 11
380.366
 21
36.532
  0
LINE
  8
0
 10
380.366
 20
36.532
 11
380.503
 21
36.2437
  0
LINE
  8
0
 10
380.503
 20
36.2437
 11
380.61
 21
35.9434
  0
LINE
  8
0
 10
380.61
 20
35.9434
 11
380.688
 21
35.634
  0
LINE
  8
0
 10
380.688
 20
35.634
 11
380.734
 21
35.3185
  0
LINE
  8
0
 10
380.734
 20
35.3185
 11
380.75
 21
35
  0
LINE
  8
0
 10
380.75
 20
35
 11
380.734
 21
34.6814
  0
LINE
  8
0
 10
380.734
 20
34.6814
 11
380.688
 21
34.366
  0
LINE
  8
0
 10
380.688
 20
34.366
 11
380.61
 21
34.0566
  0
LINE
  8
0
 10
380.61
 20
34.0566
 11
380.503
 21
33.7563
  0
LINE
  8
0
 10
380.503
 20
33.7563
 11
380.366
 21
33.468
  0
LINE
  8
0
 10
380.366
 20
33.468
 11
380.202
 21
33.1944
  0
LINE
  8
0
 10
380.202
 20
33.1944
 11
380.012
 21
32.9382
  0
LINE
  8
0
 10
380.012
 20
32.9382
 11
379.798
 21
32.7019
  0
LINE
  8
0
 10
379.798
 20
32.7019
 11
379.562
 21
32.4877
  0
LINE
  8
0
 10
379.562
 20
32.4877
 11
379.306
 21
32.2977
  0
LINE
  8
0
 10
379.306
 20
32.2977
 11
379.032
 21
32.1337
  0
LINE
  8
0
 10
379.032
 20
32.1337
 11
378.744
 21
31.9974
  0
LINE
  8
0
 10
378.744
 20
31.9974
 11
378.443
 21
31.8899
  0
LINE
  8
0
 10
378.443
 20
31.8899
 11
378.134
 21
31.8124
  0
LINE
  8
0
 10
378.134
 20
31.8124
 11
377.819
 21
31.7656
  0
LINE
  8
0
 10
377.819
 20
31.7656
 11
377.5
 21
31.75
  0
LINE
  8
0
 10
377.5
 20
31.75
 11
377.181
 21
31.7656
  0
ENDSEC
  0
SECTION
  2
OBJECTS
  0
DICTIONARY
  0
ENDSEC
  0
EOF
