  0
SECTION
  2
BLOCKS
  0
ENDSEC
  0
SECTION
  2
ENTITIES
  0
LINE
  8
0
 10
794.588
 20
0.0288849
 11
795.171
 21
0.115295
  0
LINE
  8
0
 10
795.171
 20
0.115295
 11
795.742
 21
0.258362
  0
LINE
  8
0
 10
795.742
 20
0.258362
 11
796.296
 21
0.456726
  0
LINE
  8
0
 10
796.296
 20
0.456726
 11
796.828
 21
0.708466
  0
LINE
  8
0
 10
796.828
 20
0.708466
 11
797.333
 21
1.01118
  0
LINE
  8
0
 10
797.333
 20
1.01118
 11
797.806
 21
1.36194
  0
LINE
  8
0
 10
797.806
 20
1.36194
 11
798.243
 21
1.75735
  0
LINE
  8
0
 10
798.243
 20
1.75735
 11
798.638
 21
2.19363
  0
LINE
  8
0
 10
798.638
 20
2.19363
 11
798.989
 21
2.66658
  0
LINE
  8
0
 10
798.989
 20
2.66658
 11
799.292
 21
3.17162
  0
LINE
  8
0
 10
799.292
 20
3.17162
 11
799.543
 21
3.7039
  0
LINE
  8
0
 10
799.543
 20
3.7039
 11
799.742
 21
4.25829
  0
LINE
  8
0
 10
799.742
 20
4.25829
 11
799.885
 21
4.82945
  0
LINE
  8
0
 10
799.885
 20
4.82945
 11
799.971
 21
5.4119
  0
LINE
  8
0
 10
799.971
 20
5.4119
 11
800
 21
6
  0
LINE
  8
0
 10
800
 20
6
 11
800
 21
644
  0
LINE
  8
0
 10
800
 20
644
 11
799.971
 21
644.588
  0
LINE
  8
0
 10
799.971
 20
644.588
 11
799.885
 21
645.171
  0
LINE
  8
0
 10
799.885
 20
645.171
 11
799.742
 21
645.742
  0
LINE
  8
0
 10
799.742
 20
645.742
 11
799.543
 21
646.296
  0
LINE
  8
0
 10
799.543
 20
646.296
 11
799.292
 21
646.828
  0
LINE
  8
0
 10
799.292
 20
646.828
 11
798.989
 21
647.333
  0
LINE
  8
0
 10
798.989
 20
647.333
 11
798.638
 21
647.806
  0
LINE
  8
0
 10
798.638
 20
647.806
 11
798.243
 21
648.243
  0
LINE
  8
0
 10
798.243
 20
648.243
 11
797.806
 21
648.638
  0
LINE
  8
0
 10
797.806
 20
648.638
 11
797.333
 21
648.989
  0
LINE
  8
0
 10
797.333
 20
648.989
 11
796.828
 21
649.292
  0
LINE
  8
0
 10
796.828
 20
649.292
 11
796.296
 21
649.543
  0
LINE
  8
0
 10
796.296
 20
649.543
 11
795.742
 21
649.742
  0
LINE
  8
0
 10
795.742
 20
649.742
 11
795.171
 21
649.885
  0
LINE
  8
0
 10
795.171
 20
649.885
 11
794.588
 21
649.971
  0
LINE
  8
0
 10
794.588
 20
649.971
 11
794
 21
650
  0
LINE
  8
0
 10
794
 20
650
 11
6
 21
650
  0
LINE
  8
0
 10
6
 20
650
 11
5.4119
 21
649.971
  0
LINE
  8
0
 10
5.4119
 20
649.971
 11
4.82945
 21
649.885
  0
LINE
  8
0
 10
4.82945
 20
649.885
 11
4.25829
 21
649.742
  0
LINE
  8
0
 10
4.25829
 20
649.742
 11
3.7039
 21
649.543
  0
LINE
  8
0
 10
3.7039
 20
649.543
 11
3.17162
 21
649.292
  0
LINE
  8
0
 10
3.17162
 20
649.292
 11
2.66658
 21
648.989
  0
LINE
  8
0
 10
2.66658
 20
648.989
 11
2.19363
 21
648.638
  0
LINE
  8
0
 10
2.19363
 20
648.638
 11
1.75735
 21
648.243
  0
LINE
  8
0
 10
1.75735
 20
648.243
 11
1.36194
 21
647.806
  0
LINE
  8
0
 10
1.36194
 20
647.806
 11
1.01118
 21
647.333
  0
LINE
  8
0
 10
1.01118
 20
647.333
 11
0.708466
 21
646.828
  0
LINE
  8
0
 10
0.708466
 20
646.828
 11
0.456726
 21
646.296
  0
LINE
  8
0
 10
0.456726
 20
646.296
 11
0.258362
 21
645.742
  0
LINE
  8
0
 10
0.258362
 20
645.742
 11
0.115295
 21
645.171
  0
LINE
  8
0
 10
0.115295
 20
645.171
 11
0.0288849
 21
644.588
  0
LINE
  8
0
 10
0.0288849
 20
644.588
 11
0
 21
644
  0
LINE
  8
0
 10
0
 20
644
 11
0
 21
6
  0
LINE
  8
0
 10
0
 20
6
 11
0.0288849
 21
5.4119
  0
LINE
  8
0
 10
0.0288849
 20
5.4119
 11
0.115295
 21
4.82945
  0
LINE
  8
0
 10
0.115295
 20
4.82945
 11
0.258362
 21
4.25829
  0
LINE
  8
0
 10
0.258362
 20
4.25829
 11
0.456726
 21
3.7039
  0
LINE
  8
0
 10
0.456726
 20
3.7039
 11
0.708466
 21
3.17162
  0
LINE
  8
0
 10
0.708466
 20
3.17162
 11
1.01118
 21
2.66658
  0
LINE
  8
0
 10
1.01118
 20
2.66658
 11
1.36194
 21
2.19363
  0
LINE
  8
0
 10
1.36194
 20
2.19363
 11
1.75735
 21
1.75735
  0
LINE
  8
0
 10
1.75735
 20
1.75735
 11
2.19363
 21
1.36194
  0
LINE
  8
0
 10
2.19363
 20
1.36194
 11
2.66658
 21
1.01118
  0
LINE
  8
0
 10
2.66658
 20
1.01118
 11
3.17162
 21
0.708466
  0
LINE
  8
0
 10
3.17162
 20
0.708466
 11
3.7039
 21
0.456726
  0
LINE
  8
0
 10
3.7039
 20
0.456726
 11
4.25829
 21
0.258362
  0
LINE
  8
0
 10
4.25829
 20
0.258362
 11
4.82945
 21
0.115295
  0
LINE
  8
0
 10
4.82945
 20
0.115295
 11
5.4119
 21
0.0288849
  0
LINE
  8
0
 10
5.4119
 20
0.0288849
 11
6
 21
0
  0
LINE
  8
0
 10
6
 20
0
 11
794
 21
0
  0
LINE
  8
0
 10
794
 20
0
 11
794.588
 21
0.0288849
  0
LINE
  8
0
 10
22.1814
 20
611.766
 11
21.866
 21
611.812
  0
LINE
  8
0
 10
21.866
 20
611.812
 11
21.5566
 21
611.89
  0
LINE
  8
0
 10
21.5566
 20
611.89
 11
21.2563
 21
611.997
  0
LINE
  8
0
 10
21.2563
 20
611.997
 11
20.968
 21
612.134
  0
LINE
  8
0
 10
20.968
 20
612.134
 11
20.6944
 21
612.298
  0
LINE
  8
0
 10
20.6944
 20
612.298
 11
20.4382
 21
612.488
  0
LINE
  8
0
 10
20.4382
 20
612.488
 11
20.2019
 21
612.702
  0
LINE
  8
0
 10
20.2019
 20
612.702
 11
19.9877
 21
612.938
  0
LINE
  8
0
 10
19.9877
 20
612.938
 11
19.7977
 21
613.194
  0
LINE
  8
0
 10
19.7977
 20
613.194
 11
19.6337
 21
613.468
  0
LINE
  8
0
 10
19.6337
 20
613.468
 11
19.4974
 21
613.756
  0
LINE
  8
0
 10
19.4974
 20
613.756
 11
19.3899
 21
614.057
  0
LINE
  8
0
 10
19.3899
 20
614.057
 11
19.3124
 21
614.366
  0
LINE
  8
0
 10
19.3124
 20
614.366
 11
19.2656
 21
614.681
  0
LINE
  8
0
 10
19.2656
 20
614.681
 11
19.25
 21
615
  0
LINE
  8
0
 10
19.25
 20
615
 11
19.2656
 21
615.319
  0
LINE
  8
0
 10
19.2656
 20
615.319
 11
19.3124
 21
615.634
  0
LINE
  8
0
 10
19.3124
 20
615.634
 11
19.3899
 21
615.943
  0
LINE
  8
0
 10
19.3899
 20
615.943
 11
19.4974
 21
616.244
  0
LINE
  8
0
 10
19.4974
 20
616.244
 11
19.6337
 21
616.532
  0
LINE
  8
0
 10
19.6337
 20
616.532
 11
19.7977
 21
616.806
  0
LINE
  8
0
 10
19.7977
 20
616.806
 11
19.9877
 21
617.062
  0
LINE
  8
0
 10
19.9877
 20
617.062
 11
20.2019
 21
617.298
  0
LINE
  8
0
 10
20.2019
 20
617.298
 11
20.4382
 21
617.512
  0
LINE
  8
0
 10
20.4382
 20
617.512
 11
20.6944
 21
617.702
  0
LINE
  8
0
 10
20.6944
 20
617.702
 11
20.968
 21
617.866
  0
LINE
  8
0
 10
20.968
 20
617.866
 11
21.2563
 21
618.003
  0
LINE
  8
0
 10
21.2563
 20
618.003
 11
21.5566
 21
618.11
  0
LINE
  8
0
 10
21.5566
 20
618.11
 11
21.866
 21
618.188
  0
LINE
  8
0
 10
21.866
 20
618.188
 11
22.1814
 21
618.234
  0
LINE
  8
0
 10
22.1814
 20
618.234
 11
22.5
 21
618.25
  0
LINE
  8
0
 10
22.5
 20
618.25
 11
22.8185
 21
618.234
  0
LINE
  8
0
 10
22.8185
 20
618.234
 11
23.134
 21
618.188
  0
LINE
  8
0
 10
23.134
 20
618.188
 11
23.4434
 21
618.11
  0
LINE
  8
0
 10
23.4434
 20
618.11
 11
23.7437
 21
618.003
  0
LINE
  8
0
 10
23.7437
 20
618.003
 11
24.032
 21
617.866
  0
LINE
  8
0
 10
24.032
 20
617.866
 11
24.3056
 21
617.702
  0
LINE
  8
0
 10
24.3056
 20
617.702
 11
24.5618
 21
617.512
  0
LINE
  8
0
 10
24.5618
 20
617.512
 11
24.7981
 21
617.298
  0
LINE
  8
0
 10
24.7981
 20
617.298
 11
25.0123
 21
617.062
  0
LINE
  8
0
 10
25.0123
 20
617.062
 11
25.2023
 21
616.806
  0
LINE
  8
0
 10
25.2023
 20
616.806
 11
25.3662
 21
616.532
  0
LINE
  8
0
 10
25.3662
 20
616.532
 11
25.5026
 21
616.244
  0
LINE
  8
0
 10
25.5026
 20
616.244
 11
25.61
 21
615.943
  0
LINE
  8
0
 10
25.61
 20
615.943
 11
25.6875
 21
615.634
  0
LINE
  8
0
 10
25.6875
 20
615.634
 11
25.7343
 21
615.319
  0
LINE
  8
0
 10
25.7343
 20
615.319
 11
25.75
 21
615
  0
LINE
  8
0
 10
25.75
 20
615
 11
25.7343
 21
614.681
  0
LINE
  8
0
 10
25.7343
 20
614.681
 11
25.6875
 21
614.366
  0
LINE
  8
0
 10
25.6875
 20
614.366
 11
25.61
 21
614.057
  0
LINE
  8
0
 10
25.61
 20
614.057
 11
25.5026
 21
613.756
  0
LINE
  8
0
 10
25.5026
 20
613.756
 11
25.3662
 21
613.468
  0
LINE
  8
0
 10
25.3662
 20
613.468
 11
25.2023
 21
613.194
  0
LINE
  8
0
 10
25.2023
 20
613.194
 11
25.0123
 21
612.938
  0
LINE
  8
0
 10
25.0123
 20
612.938
 11
24.7981
 21
612.702
  0
LINE
  8
0
 10
24.7981
 20
612.702
 11
24.5618
 21
612.488
  0
LINE
  8
0
 10
24.5618
 20
612.488
 11
24.3056
 21
612.298
  0
LINE
  8
0
 10
24.3056
 20
612.298
 11
24.032
 21
612.134
  0
LINE
  8
0
 10
24.032
 20
612.134
 11
23.7437
 21
611.997
  0
LINE
  8
0
 10
23.7437
 20
611.997
 11
23.4434
 21
611.89
  0
LINE
  8
0
 10
23.4434
 20
611.89
 11
23.134
 21
611.812
  0
LINE
  8
0
 10
23.134
 20
611.812
 11
22.8185
 21
611.766
  0
LINE
  8
0
 10
22.8185
 20
611.766
 11
22.5
 21
611.75
  0
LINE
  8
0
 10
22.5
 20
611.75
 11
22.1814
 21
611.766
  0
LINE
  8
0
 10
777.181
 20
611.766
 11
776.866
 21
611.812
  0
LINE
  8
0
 10
776.866
 20
611.812
 11
776.557
 21
611.89
  0
LINE
  8
0
 10
776.557
 20
611.89
 11
776.256
 21
611.997
  0
LINE
  8
0
 10
776.256
 20
611.997
 11
775.968
 21
612.134
  0
LINE
  8
0
 10
775.968
 20
612.134
 11
775.694
 21
612.298
  0
LINE
  8
0
 10
775.694
 20
612.298
 11
775.438
 21
612.488
  0
LINE
  8
0
 10
775.438
 20
612.488
 11
775.202
 21
612.702
  0
LINE
  8
0
 10
775.202
 20
612.702
 11
774.988
 21
612.938
  0
LINE
  8
0
 10
774.988
 20
612.938
 11
774.798
 21
613.194
  0
LINE
  8
0
 10
774.798
 20
613.194
 11
774.634
 21
613.468
  0
LINE
  8
0
 10
774.634
 20
613.468
 11
774.497
 21
613.756
  0
LINE
  8
0
 10
774.497
 20
613.756
 11
774.39
 21
614.057
  0
LINE
  8
0
 10
774.39
 20
614.057
 11
774.312
 21
614.366
  0
LINE
  8
0
 10
774.312
 20
614.366
 11
774.266
 21
614.681
  0
LINE
  8
0
 10
774.266
 20
614.681
 11
774.25
 21
615
  0
LINE
  8
0
 10
774.25
 20
615
 11
774.266
 21
615.319
  0
LINE
  8
0
 10
774.266
 20
615.319
 11
774.312
 21
615.634
  0
LINE
  8
0
 10
774.312
 20
615.634
 11
774.39
 21
615.943
  0
LINE
  8
0
 10
774.39
 20
615.943
 11
774.497
 21
616.244
  0
LINE
  8
0
 10
774.497
 20
616.244
 11
774.634
 21
616.532
  0
LINE
  8
0
 10
774.634
 20
616.532
 11
774.798
 21
616.806
  0
LINE
  8
0
 10
774.798
 20
616.806
 11
774.988
 21
617.062
  0
LINE
  8
0
 10
774.988
 20
617.062
 11
775.202
 21
617.298
  0
LINE
  8
0
 10
775.202
 20
617.298
 11
775.438
 21
617.512
  0
LINE
  8
0
 10
775.438
 20
617.512
 11
775.694
 21
617.702
  0
LINE
  8
0
 10
775.694
 20
617.702
 11
775.968
 21
617.866
  0
LINE
  8
0
 10
775.968
 20
617.866
 11
776.256
 21
618.003
  0
LINE
  8
0
 10
776.256
 20
618.003
 11
776.557
 21
618.11
  0
LINE
  8
0
 10
776.557
 20
618.11
 11
776.866
 21
618.188
  0
LINE
  8
0
 10
776.866
 20
618.188
 11
777.181
 21
618.234
  0
LINE
  8
0
 10
777.181
 20
618.234
 11
777.5
 21
618.25
  0
LINE
  8
0
 10
777.5
 20
618.25
 11
777.819
 21
618.234
  0
LINE
  8
0
 10
777.819
 20
618.234
 11
778.134
 21
618.188
  0
LINE
  8
0
 10
778.134
 20
618.188
 11
778.443
 21
618.11
  0
LINE
  8
0
 10
778.443
 20
618.11
 11
778.744
 21
618.003
  0
LINE
  8
0
 10
778.744
 20
618.003
 11
779.032
 21
617.866
  0
LINE
  8
0
 10
779.032
 20
617.866
 11
779.306
 21
617.702
  0
LINE
  8
0
 10
779.306
 20
617.702
 11
779.562
 21
617.512
  0
LINE
  8
0
 10
779.562
 20
617.512
 11
779.798
 21
617.298
  0
LINE
  8
0
 10
779.798
 20
617.298
 11
780.012
 21
617.062
  0
LINE
  8
0
 10
780.012
 20
617.062
 11
780.202
 21
616.806
  0
LINE
  8
0
 10
780.202
 20
616.806
 11
780.366
 21
616.532
  0
LINE
  8
0
 10
780.366
 20
616.532
 11
780.503
 21
616.244
  0
LINE
  8
0
 10
780.503
 20
616.244
 11
780.61
 21
615.943
  0
LINE
  8
0
 10
780.61
 20
615.943
 11
780.688
 21
615.634
  0
LINE
  8
0
 10
780.688
 20
615.634
 11
780.734
 21
615.319
  0
LINE
  8
0
 10
780.734
 20
615.319
 11
780.75
 21
615
  0
LINE
  8
0
 10
780.75
 20
615
 11
780.734
 21
614.681
  0
LINE
  8
0
 10
780.734
 20
614.681
 11
780.688
 21
614.366
  0
LINE
  8
0
 10
780.688
 20
614.366
 11
780.61
 21
614.057
  0
LINE
  8
0
 10
780.61
 20
614.057
 11
780.503
 21
613.756
  0
LINE
  8
0
 10
780.503
 20
613.756
 11
780.366
 21
613.468
  0
LINE
  8
0
 10
780.366
 20
613.468
 11
780.202
 21
613.194
  0
LINE
  8
0
 10
780.202
 20
613.194
 11
780.012
 21
612.938
  0
LINE
  8
0
 10
780.012
 20
612.938
 11
779.798
 21
612.702
  0
LINE
  8
0
 10
779.798
 20
612.702
 11
779.562
 21
612.488
  0
LINE
  8
0
 10
779.562
 20
612.488
 11
779.306
 21
612.298
  0
LINE
  8
0
 10
779.306
 20
612.298
 11
779.032
 21
612.134
  0
LINE
  8
0
 10
779.032
 20
612.134
 11
778.744
 21
611.997
  0
LINE
  8
0
 10
778.744
 20
611.997
 11
778.443
 21
611.89
  0
LINE
  8
0
 10
778.443
 20
611.89
 11
778.134
 21
611.812
  0
LINE
  8
0
 10
778.134
 20
611.812
 11
777.819
 21
611.766
  0
LINE
  8
0
 10
777.819
 20
611.766
 11
777.5
 21
611.75
  0
LINE
  8
0
 10
777.5
 20
611.75
 11
777.181
 21
611.766
  0
LINE
  8
0
 10
55
 20
80
 11
54.0198
 21
80.0482
  0
LINE
  8
0
 10
54.0198
 20
80.0482
 11
53.0491
 21
80.1922
  0
LINE
  8
0
 10
53.0491
 20
80.1922
 11
52.0972
 21
80.4306
  0
LINE
  8
0
 10
52.0972
 20
80.4306
 11
51.1732
 21
80.7612
  0
LINE
  8
0
 10
51.1732
 20
80.7612
 11
50.286
 21
81.1808
  0
LINE
  8
0
 10
50.286
 20
81.1808
 11
49.4443
 21
81.6853
  0
LINE
  8
0
 10
49.4443
 20
81.6853
 11
48.6561
 21
82.2699
  0
LINE
  8
0
 10
48.6561
 20
82.2699
 11
47.9289
 21
82.9289
  0
LINE
  8
0
 10
47.9289
 20
82.9289
 11
47.2699
 21
83.6561
  0
LINE
  8
0
 10
47.2699
 20
83.6561
 11
46.6853
 21
84.4443
  0
LINE
  8
0
 10
46.6853
 20
84.4443
 11
46.1808
 21
85.286
  0
LINE
  8
0
 10
46.1808
 20
85.286
 11
45.7612
 21
86.1732
  0
LINE
  8
0
 10
45.7612
 20
86.1732
 11
45.4306
 21
87.0972
  0
LINE
  8
0
 10
45.4306
 20
87.0972
 11
45.1922
 21
88.0491
  0
LINE
  8
0
 10
45.1922
 20
88.0491
 11
45.0482
 21
89.0198
  0
LINE
  8
0
 10
45.0482
 20
89.0198
 11
45
 21
90
  0
LINE
  8
0
 10
45
 20
90
 11
45
 21
550
  0
LINE
  8
0
 10
45
 20
550
 11
45.0482
 21
550.98
  0
LINE
  8
0
 10
45.0482
 20
550.98
 11
45.1922
 21
551.951
  0
LINE
  8
0
 10
45.1922
 20
551.951
 11
45.4306
 21
552.903
  0
LINE
  8
0
 10
45.4306
 20
552.903
 11
45.7612
 21
553.827
  0
LINE
  8
0
 10
45.7612
 20
553.827
 11
46.1808
 21
554.714
  0
LINE
  8
0
 10
46.1808
 20
554.714
 11
46.6853
 21
555.556
  0
LINE
  8
0
 10
46.6853
 20
555.556
 11
47.2699
 21
556.344
  0
LINE
  8
0
 10
47.2699
 20
556.344
 11
47.9289
 21
557.071
  0
LINE
  8
0
 10
47.9289
 20
557.071
 11
48.6561
 21
557.73
  0
LINE
  8
0
 10
48.6561
 20
557.73
 11
49.4443
 21
558.315
  0
LINE
  8
0
 10
49.4443
 20
558.315
 11
50.286
 21
558.819
  0
LINE
  8
0
 10
50.286
 20
558.819
 11
51.1732
 21
559.239
  0
LINE
  8
0
 10
51.1732
 20
559.239
 11
52.0972
 21
559.569
  0
LINE
  8
0
 10
52.0972
 20
559.569
 11
53.0491
 21
559.808
  0
LINE
  8
0
 10
53.0491
 20
559.808
 11
54.0198
 21
559.952
  0
LINE
  8
0
 10
54.0198
 20
559.952
 11
55
 21
560
  0
LINE
  8
0
 10
55
 20
560
 11
85
 21
560
  0
LINE
  8
0
 10
85
 20
560
 11
85.9802
 21
559.952
  0
LINE
  8
0
 10
85.9802
 20
559.952
 11
86.9509
 21
559.808
  0
LINE
  8
0
 10
86.9509
 20
559.808
 11
87.9028
 21
559.569
  0
LINE
  8
0
 10
87.9028
 20
559.569
 11
88.8268
 21
559.239
  0
LINE
  8
0
 10
88.8268
 20
559.239
 11
89.714
 21
558.819
  0
LINE
  8
0
 10
89.714
 20
558.819
 11
90.5557
 21
558.315
  0
LINE
  8
0
 10
90.5557
 20
558.315
 11
91.3439
 21
557.73
  0
LINE
  8
0
 10
91.3439
 20
557.73
 11
92.0711
 21
557.071
  0
LINE
  8
0
 10
92.0711
 20
557.071
 11
92.7301
 21
556.344
  0
LINE
  8
0
 10
92.7301
 20
556.344
 11
93.3147
 21
555.556
  0
LINE
  8
0
 10
93.3147
 20
555.556
 11
93.8192
 21
554.714
  0
LINE
  8
0
 10
93.8192
 20
554.714
 11
94.2388
 21
553.827
  0
LINE
  8
0
 10
94.2388
 20
553.827
 11
94.5694
 21
552.903
  0
LINE
  8
0
 10
94.5694
 20
552.903
 11
94.8078
 21
551.951
  0
LINE
  8
0
 10
94.8078
 20
551.951
 11
94.9518
 21
550.98
  0
LINE
  8
0
 10
94.9518
 20
550.98
 11
95
 21
550
  0
LINE
  8
0
 10
95
 20
550
 11
95
 21
90
  0
LINE
  8
0
 10
95
 20
90
 11
94.9518
 21
89.0198
  0
LINE
  8
0
 10
94.9518
 20
89.0198
 11
94.8078
 21
88.0491
  0
LINE
  8
0
 10
94.8078
 20
88.0491
 11
94.5694
 21
87.0972
  0
LINE
  8
0
 10
94.5694
 20
87.0972
 11
94.2388
 21
86.1732
  0
LINE
  8
0
 10
94.2388
 20
86.1732
 11
93.8192
 21
85.286
  0
LINE
  8
0
 10
93.8192
 20
85.286
 11
93.3147
 21
84.4443
  0
LINE
  8
0
 10
93.3147
 20
84.4443
 11
92.7301
 21
83.6561
  0
LINE
  8
0
 10
92.7301
 20
83.6561
 11
92.0711
 21
82.9289
  0
LINE
  8
0
 10
92.0711
 20
82.9289
 11
91.3439
 21
82.2699
  0
LINE
  8
0
 10
91.3439
 20
82.2699
 11
90.5557
 21
81.6853
  0
LINE
  8
0
 10
90.5557
 20
81.6853
 11
89.714
 21
81.1808
  0
LINE
  8
0
 10
89.714
 20
81.1808
 11
88.8268
 21
80.7612
  0
LINE
  8
0
 10
88.8268
 20
80.7612
 11
87.9028
 21
80.4306
  0
LINE
  8
0
 10
87.9028
 20
80.4306
 11
86.9509
 21
80.1922
  0
LINE
  8
0
 10
86.9509
 20
80.1922
 11
85.9802
 21
80.0482
  0
LINE
  8
0
 10
85.9802
 20
80.0482
 11
85
 21
80
  0
LINE
  8
0
 10
85
 20
80
 11
55
 21
80
  0
LINE
  8
0
 10
149.286
 20
80
 11
148.306
 21
80.0482
  0
LINE
  8
0
 10
148.306
 20
80.0482
 11
147.335
 21
80.1922
  0
LINE
  8
0
 10
147.335
 20
80.1922
 11
146.383
 21
80.4306
  0
LINE
  8
0
 10
146.383
 20
80.4306
 11
145.459
 21
80.7612
  0
LINE
  8
0
 10
145.459
 20
80.7612
 11
144.572
 21
81.1808
  0
LINE
  8
0
 10
144.572
 20
81.1808
 11
143.73
 21
81.6853
  0
LINE
  8
0
 10
143.73
 20
81.6853
 11
142.942
 21
82.2699
  0
LINE
  8
0
 10
142.942
 20
82.2699
 11
142.215
 21
82.9289
  0
LINE
  8
0
 10
142.215
 20
82.9289
 11
141.556
 21
83.6561
  0
LINE
  8
0
 10
141.556
 20
83.6561
 11
140.971
 21
84.4443
  0
LINE
  8
0
 10
140.971
 20
84.4443
 11
140.466
 21
85.286
  0
LINE
  8
0
 10
140.466
 20
85.286
 11
140.047
 21
86.1732
  0
LINE
  8
0
 10
140.047
 20
86.1732
 11
139.716
 21
87.0972
  0
LINE
  8
0
 10
139.716
 20
87.0972
 11
139.478
 21
88.0491
  0
LINE
  8
0
 10
139.478
 20
88.0491
 11
139.334
 21
89.0198
  0
LINE
  8
0
 10
139.334
 20
89.0198
 11
139.286
 21
90
  0
LINE
  8
0
 10
139.286
 20
90
 11
139.286
 21
550
  0
LINE
  8
0
 10
139.286
 20
550
 11
139.334
 21
550.98
  0
LINE
  8
0
 10
139.334
 20
550.98
 11
139.478
 21
551.951
  0
LINE
  8
0
 10
139.478
 20
551.951
 11
139.716
 21
552.903
  0
LINE
  8
0
 10
139.716
 20
552.903
 11
140.047
 21
553.827
  0
LINE
  8
0
 10
140.047
 20
553.827
 11
140.466
 21
554.714
  0
LINE
  8
0
 10
140.466
 20
554.714
 11
140.971
 21
555.556
  0
LINE
  8
0
 10
140.971
 20
555.556
 11
141.556
 21
556.344
  0
LINE
  8
0
 10
141.556
 20
556.344
 11
142.215
 21
557.071
  0
LINE
  8
0
 10
142.215
 20
557.071
 11
142.942
 21
557.73
  0
LINE
  8
0
 10
142.942
 20
557.73
 11
143.73
 21
558.315
  0
LINE
  8
0
 10
143.73
 20
558.315
 11
144.572
 21
558.819
  0
LINE
  8
0
 10
144.572
 20
558.819
 11
145.459
 21
559.239
  0
LINE
  8
0
 10
145.459
 20
559.239
 11
146.383
 21
559.569
  0
LINE
  8
0
 10
146.383
 20
559.569
 11
147.335
 21
559.808
  0
LINE
  8
0
 10
147.335
 20
559.808
 11
148.306
 21
559.952
  0
LINE
  8
0
 10
148.306
 20
559.952
 11
149.286
 21
560
  0
LINE
  8
0
 10
149.286
 20
560
 11
179.286
 21
560
  0
LINE
  8
0
 10
179.286
 20
560
 11
180.266
 21
559.952
  0
LINE
  8
0
 10
180.266
 20
559.952
 11
181.237
 21
559.808
  0
LINE
  8
0
 10
181.237
 20
559.808
 11
182.189
 21
559.569
  0
LINE
  8
0
 10
182.189
 20
559.569
 11
183.113
 21
559.239
  0
LINE
  8
0
 10
183.113
 20
559.239
 11
184
 21
558.819
  0
LINE
  8
0
 10
184
 20
558.819
 11
184.841
 21
558.315
  0
LINE
  8
0
 10
184.841
 20
558.315
 11
185.63
 21
557.73
  0
LINE
  8
0
 10
185.63
 20
557.73
 11
186.357
 21
557.071
  0
LINE
  8
0
 10
186.357
 20
557.071
 11
187.016
 21
556.344
  0
LINE
  8
0
 10
187.016
 20
556.344
 11
187.6
 21
555.556
  0
LINE
  8
0
 10
187.6
 20
555.556
 11
188.105
 21
554.714
  0
LINE
  8
0
 10
188.105
 20
554.714
 11
188.525
 21
553.827
  0
LINE
  8
0
 10
188.525
 20
553.827
 11
188.855
 21
552.903
  0
LINE
  8
0
 10
188.855
 20
552.903
 11
189.094
 21
551.951
  0
LINE
  8
0
 10
189.094
 20
551.951
 11
189.238
 21
550.98
  0
LINE
  8
0
 10
189.238
 20
550.98
 11
189.286
 21
550
  0
LINE
  8
0
 10
189.286
 20
550
 11
189.286
 21
90
  0
LINE
  8
0
 10
189.286
 20
90
 11
189.238
 21
89.0198
  0
LINE
  8
0
 10
189.238
 20
89.0198
 11
189.094
 21
88.0491
  0
LINE
  8
0
 10
189.094
 20
88.0491
 11
188.855
 21
87.0972
  0
LINE
  8
0
 10
188.855
 20
87.0972
 11
188.525
 21
86.1732
  0
LINE
  8
0
 10
188.525
 20
86.1732
 11
188.105
 21
85.286
  0
LINE
  8
0
 10
188.105
 20
85.286
 11
187.6
 21
84.4443
  0
LINE
  8
0
 10
187.6
 20
84.4443
 11
187.016
 21
83.6561
  0
LINE
  8
0
 10
187.016
 20
83.6561
 11
186.357
 21
82.9289
  0
LINE
  8
0
 10
186.357
 20
82.9289
 11
185.63
 21
82.2699
  0
LINE
  8
0
 10
185.63
 20
82.2699
 11
184.841
 21
81.6853
  0
LINE
  8
0
 10
184.841
 20
81.6853
 11
184
 21
81.1808
  0
LINE
  8
0
 10
184
 20
81.1808
 11
183.113
 21
80.7612
  0
LINE
  8
0
 10
183.113
 20
80.7612
 11
182.189
 21
80.4306
  0
LINE
  8
0
 10
182.189
 20
80.4306
 11
181.237
 21
80.1922
  0
LINE
  8
0
 10
181.237
 20
80.1922
 11
180.266
 21
80.0482
  0
LINE
  8
0
 10
180.266
 20
80.0482
 11
179.286
 21
80
  0
LINE
  8
0
 10
179.286
 20
80
 11
149.286
 21
80
  0
LINE
  8
0
 10
243.571
 20
80
 11
242.591
 21
80.0482
  0
LINE
  8
0
 10
242.591
 20
80.0482
 11
241.621
 21
80.1922
  0
LINE
  8
0
 10
241.621
 20
80.1922
 11
240.669
 21
80.4306
  0
LINE
  8
0
 10
240.669
 20
80.4306
 11
239.745
 21
80.7612
  0
LINE
  8
0
 10
239.745
 20
80.7612
 11
238.857
 21
81.1808
  0
LINE
  8
0
 10
238.857
 20
81.1808
 11
238.016
 21
81.6853
  0
LINE
  8
0
 10
238.016
 20
81.6853
 11
237.227
 21
82.2699
  0
LINE
  8
0
 10
237.227
 20
82.2699
 11
236.5
 21
82.9289
  0
LINE
  8
0
 10
236.5
 20
82.9289
 11
235.841
 21
83.6561
  0
LINE
  8
0
 10
235.841
 20
83.6561
 11
235.257
 21
84.4443
  0
LINE
  8
0
 10
235.257
 20
84.4443
 11
234.752
 21
85.286
  0
LINE
  8
0
 10
234.752
 20
85.286
 11
234.333
 21
86.1732
  0
LINE
  8
0
 10
234.333
 20
86.1732
 11
234.002
 21
87.0972
  0
LINE
  8
0
 10
234.002
 20
87.0972
 11
233.764
 21
88.0491
  0
LINE
  8
0
 10
233.764
 20
88.0491
 11
233.62
 21
89.0198
  0
LINE
  8
0
 10
233.62
 20
89.0198
 11
233.571
 21
90
  0
LINE
  8
0
 10
233.571
 20
90
 11
233.571
 21
550
  0
LINE
  8
0
 10
233.571
 20
550
 11
233.62
 21
550.98
  0
LINE
  8
0
 10
233.62
 20
550.98
 11
233.764
 21
551.951
  0
LINE
  8
0
 10
233.764
 20
551.951
 11
234.002
 21
552.903
  0
LINE
  8
0
 10
234.002
 20
552.903
 11
234.333
 21
553.827
  0
LINE
  8
0
 10
234.333
 20
553.827
 11
234.752
 21
554.714
  0
LINE
  8
0
 10
234.752
 20
554.714
 11
235.257
 21
555.556
  0
LINE
  8
0
 10
235.257
 20
555.556
 11
235.841
 21
556.344
  0
LINE
  8
0
 10
235.841
 20
556.344
 11
236.5
 21
557.071
  0
LINE
  8
0
 10
236.5
 20
557.071
 11
237.227
 21
557.73
  0
LINE
  8
0
 10
237.227
 20
557.73
 11
238.016
 21
558.315
  0
LINE
  8
0
 10
238.016
 20
558.315
 11
238.857
 21
558.819
  0
LINE
  8
0
 10
238.857
 20
558.819
 11
239.745
 21
559.239
  0
LINE
  8
0
 10
239.745
 20
559.239
 11
240.669
 21
559.569
  0
LINE
  8
0
 10
240.669
 20
559.569
 11
241.621
 21
559.808
  0
LINE
  8
0
 10
241.621
 20
559.808
 11
242.591
 21
559.952
  0
LINE
  8
0
 10
242.591
 20
559.952
 11
243.571
 21
560
  0
LINE
  8
0
 10
243.571
 20
560
 11
273.571
 21
560
  0
LINE
  8
0
 10
273.571
 20
560
 11
274.552
 21
559.952
  0
LINE
  8
0
 10
274.552
 20
559.952
 11
275.522
 21
559.808
  0
LINE
  8
0
 10
275.522
 20
559.808
 11
276.474
 21
559.569
  0
LINE
  8
0
 10
276.474
 20
559.569
 11
277.398
 21
559.239
  0
LINE
  8
0
 10
277.398
 20
559.239
 11
278.285
 21
558.819
  0
LINE
  8
0
 10
278.285
 20
558.819
 11
279.127
 21
558.315
  0
LINE
  8
0
 10
279.127
 20
558.315
 11
279.915
 21
557.73
  0
LINE
  8
0
 10
279.915
 20
557.73
 11
280.643
 21
557.071
  0
LINE
  8
0
 10
280.643
 20
557.071
 11
281.302
 21
556.344
  0
LINE
  8
0
 10
281.302
 20
556.344
 11
281.886
 21
555.556
  0
LINE
  8
0
 10
281.886
 20
555.556
 11
282.391
 21
554.714
  0
LINE
  8
0
 10
282.391
 20
554.714
 11
282.81
 21
553.827
  0
LINE
  8
0
 10
282.81
 20
553.827
 11
283.141
 21
552.903
  0
LINE
  8
0
 10
283.141
 20
552.903
 11
283.379
 21
551.951
  0
LINE
  8
0
 10
283.379
 20
551.951
 11
283.523
 21
550.98
  0
LINE
  8
0
 10
283.523
 20
550.98
 11
283.571
 21
550
  0
LINE
  8
0
 10
283.571
 20
550
 11
283.571
 21
90
  0
LINE
  8
0
 10
283.571
 20
90
 11
283.523
 21
89.0198
  0
LINE
  8
0
 10
283.523
 20
89.0198
 11
283.379
 21
88.0491
  0
LINE
  8
0
 10
283.379
 20
88.0491
 11
283.141
 21
87.0972
  0
LINE
  8
0
 10
283.141
 20
87.0972
 11
282.81
 21
86.1732
  0
LINE
  8
0
 10
282.81
 20
86.1732
 11
282.391
 21
85.286
  0
LINE
  8
0
 10
282.391
 20
85.286
 11
281.886
 21
84.4443
  0
LINE
  8
0
 10
281.886
 20
84.4443
 11
281.302
 21
83.6561
  0
LINE
  8
0
 10
281.302
 20
83.6561
 11
280.643
 21
82.9289
  0
LINE
  8
0
 10
280.643
 20
82.9289
 11
279.915
 21
82.2699
  0
LINE
  8
0
 10
279.915
 20
82.2699
 11
279.127
 21
81.6853
  0
LINE
  8
0
 10
279.127
 20
81.6853
 11
278.285
 21
81.1808
  0
LINE
  8
0
 10
278.285
 20
81.1808
 11
277.398
 21
80.7612
  0
LINE
  8
0
 10
277.398
 20
80.7612
 11
276.474
 21
80.4306
  0
LINE
  8
0
 10
276.474
 20
80.4306
 11
275.522
 21
80.1922
  0
LINE
  8
0
 10
275.522
 20
80.1922
 11
274.552
 21
80.0482
  0
LINE
  8
0
 10
274.552
 20
80.0482
 11
273.571
 21
80
  0
LINE
  8
0
 10
273.571
 20
80
 11
243.571
 21
80
  0
LINE
  8
0
 10
337.857
 20
80
 11
336.877
 21
80.0482
  0
LINE
  8
0
 10
336.877
 20
80.0482
 11
335.906
 21
80.1922
  0
LINE
  8
0
 10
335.906
 20
80.1922
 11
334.954
 21
80.4306
  0
LINE
  8
0
 10
334.954
 20
80.4306
 11
334.03
 21
80.7612
  0
LINE
  8
0
 10
334.03
 20
80.7612
 11
333.143
 21
81.1808
  0
LINE
  8
0
 10
333.143
 20
81.1808
 11
332.301
 21
81.6853
  0
LINE
  8
0
 10
332.301
 20
81.6853
 11
331.513
 21
82.2699
  0
LINE
  8
0
 10
331.513
 20
82.2699
 11
330.786
 21
82.9289
  0
LINE
  8
0
 10
330.786
 20
82.9289
 11
330.127
 21
83.6561
  0
LINE
  8
0
 10
330.127
 20
83.6561
 11
329.542
 21
84.4443
  0
LINE
  8
0
 10
329.542
 20
84.4443
 11
329.038
 21
85.286
  0
LINE
  8
0
 10
329.038
 20
85.286
 11
328.618
 21
86.1732
  0
LINE
  8
0
 10
328.618
 20
86.1732
 11
328.288
 21
87.0972
  0
LINE
  8
0
 10
328.288
 20
87.0972
 11
328.049
 21
88.0491
  0
LINE
  8
0
 10
328.049
 20
88.0491
 11
327.905
 21
89.0198
  0
LINE
  8
0
 10
327.905
 20
89.0198
 11
327.857
 21
90
  0
LINE
  8
0
 10
327.857
 20
90
 11
327.857
 21
550
  0
LINE
  8
0
 10
327.857
 20
550
 11
327.905
 21
550.98
  0
LINE
  8
0
 10
327.905
 20
550.98
 11
328.049
 21
551.951
  0
LINE
  8
0
 10
328.049
 20
551.951
 11
328.288
 21
552.903
  0
LINE
  8
0
 10
328.288
 20
552.903
 11
328.618
 21
553.827
  0
LINE
  8
0
 10
328.618
 20
553.827
 11
329.038
 21
554.714
  0
LINE
  8
0
 10
329.038
 20
554.714
 11
329.542
 21
555.556
  0
LINE
  8
0
 10
329.542
 20
555.556
 11
330.127
 21
556.344
  0
LINE
  8
0
 10
330.127
 20
556.344
 11
330.786
 21
557.071
  0
LINE
  8
0
 10
330.786
 20
557.071
 11
331.513
 21
557.73
  0
LINE
  8
0
 10
331.513
 20
557.73
 11
332.301
 21
558.315
  0
LINE
  8
0
 10
332.301
 20
558.315
 11
333.143
 21
558.819
  0
LINE
  8
0
 10
333.143
 20
558.819
 11
334.03
 21
559.239
  0
LINE
  8
0
 10
334.03
 20
559.239
 11
334.954
 21
559.569
  0
LINE
  8
0
 10
334.954
 20
559.569
 11
335.906
 21
559.808
  0
LINE
  8
0
 10
335.906
 20
559.808
 11
336.877
 21
559.952
  0
LINE
  8
0
 10
336.877
 20
559.952
 11
337.857
 21
560
  0
LINE
  8
0
 10
337.857
 20
560
 11
367.857
 21
560
  0
LINE
  8
0
 10
367.857
 20
560
 11
368.837
 21
559.952
  0
LINE
  8
0
 10
368.837
 20
559.952
 11
369.808
 21
559.808
  0
LINE
  8
0
 10
369.808
 20
559.808
 11
370.76
 21
559.569
  0
LINE
  8
0
 10
370.76
 20
559.569
 11
371.684
 21
559.239
  0
LINE
  8
0
 10
371.684
 20
559.239
 11
372.571
 21
558.819
  0
LINE
  8
0
 10
372.571
 20
558.819
 11
373.413
 21
558.315
  0
LINE
  8
0
 10
373.413
 20
558.315
 11
374.201
 21
557.73
  0
LINE
  8
0
 10
374.201
 20
557.73
 11
374.928
 21
557.071
  0
LINE
  8
0
 10
374.928
 20
557.071
 11
375.587
 21
556.344
  0
LINE
  8
0
 10
375.587
 20
556.344
 11
376.172
 21
555.556
  0
LINE
  8
0
 10
376.172
 20
555.556
 11
376.676
 21
554.714
  0
LINE
  8
0
 10
376.676
 20
554.714
 11
377.096
 21
553.827
  0
LINE
  8
0
 10
377.096
 20
553.827
 11
377.427
 21
552.903
  0
LINE
  8
0
 10
377.427
 20
552.903
 11
377.665
 21
551.951
  0
LINE
  8
0
 10
377.665
 20
551.951
 11
377.809
 21
550.98
  0
LINE
  8
0
 10
377.809
 20
550.98
 11
377.857
 21
550
  0
LINE
  8
0
 10
377.857
 20
550
 11
377.857
 21
90
  0
LINE
  8
0
 10
377.857
 20
90
 11
377.809
 21
89.0198
  0
LINE
  8
0
 10
377.809
 20
89.0198
 11
377.665
 21
88.0491
  0
LINE
  8
0
 10
377.665
 20
88.0491
 11
377.427
 21
87.0972
  0
LINE
  8
0
 10
377.427
 20
87.0972
 11
377.096
 21
86.1732
  0
LINE
  8
0
 10
377.096
 20
86.1732
 11
376.676
 21
85.286
  0
LINE
  8
0
 10
376.676
 20
85.286
 11
376.172
 21
84.4443
  0
LINE
  8
0
 10
376.172
 20
84.4443
 11
375.587
 21
83.6561
  0
LINE
  8
0
 10
375.587
 20
83.6561
 11
374.928
 21
82.9289
  0
LINE
  8
0
 10
374.928
 20
82.9289
 11
374.201
 21
82.2699
  0
LINE
  8
0
 10
374.201
 20
82.2699
 11
373.413
 21
81.6853
  0
LINE
  8
0
 10
373.413
 20
81.6853
 11
372.571
 21
81.1808
  0
LINE
  8
0
 10
372.571
 20
81.1808
 11
371.684
 21
80.7612
  0
LINE
  8
0
 10
371.684
 20
80.7612
 11
370.76
 21
80.4306
  0
LINE
  8
0
 10
370.76
 20
80.4306
 11
369.808
 21
80.1922
  0
LINE
  8
0
 10
369.808
 20
80.1922
 11
368.837
 21
80.0482
  0
LINE
  8
0
 10
368.837
 20
80.0482
 11
367.857
 21
80
  0
LINE
  8
0
 10
367.857
 20
80
 11
337.857
 21
80
  0
LINE
  8
0
 10
432.143
 20
80
 11
431.163
 21
80.0482
  0
LINE
  8
0
 10
431.163
 20
80.0482
 11
430.192
 21
80.1922
  0
LINE
  8
0
 10
430.192
 20
80.1922
 11
429.24
 21
80.4306
  0
LINE
  8
0
 10
429.24
 20
80.4306
 11
428.316
 21
80.7612
  0
LINE
  8
0
 10
428.316
 20
80.7612
 11
427.429
 21
81.1808
  0
LINE
  8
0
 10
427.429
 20
81.1808
 11
426.587
 21
81.6853
  0
LINE
  8
0
 10
426.587
 20
81.6853
 11
425.799
 21
82.2699
  0
LINE
  8
0
 10
425.799
 20
82.2699
 11
425.072
 21
82.9289
  0
LINE
  8
0
 10
425.072
 20
82.9289
 11
424.413
 21
83.6561
  0
LINE
  8
0
 10
424.413
 20
83.6561
 11
423.828
 21
84.4443
  0
LINE
  8
0
 10
423.828
 20
84.4443
 11
423.324
 21
85.286
  0
LINE
  8
0
 10
423.324
 20
85.286
 11
422.904
 21
86.1732
  0
LINE
  8
0
 10
422.904
 20
86.1732
 11
422.573
 21
87.0972
  0
LINE
  8
0
 10
422.573
 20
87.0972
 11
422.335
 21
88.0491
  0
LINE
  8
0
 10
422.335
 20
88.0491
 11
422.191
 21
89.0198
  0
LINE
  8
0
 10
422.191
 20
89.0198
 11
422.143
 21
90
  0
LINE
  8
0
 10
422.143
 20
90
 11
422.143
 21
550
  0
LINE
  8
0
 10
422.143
 20
550
 11
422.191
 21
550.98
  0
LINE
  8
0
 10
422.191
 20
550.98
 11
422.335
 21
551.951
  0
LINE
  8
0
 10
422.335
 20
551.951
 11
422.573
 21
552.903
  0
LINE
  8
0
 10
422.573
 20
552.903
 11
422.904
 21
553.827
  0
LINE
  8
0
 10
422.904
 20
553.827
 11
423.324
 21
554.714
  0
LINE
  8
0
 10
423.324
 20
554.714
 11
423.828
 21
555.556
  0
LINE
  8
0
 10
423.828
 20
555.556
 11
424.413
 21
556.344
  0
LINE
  8
0
 10
424.413
 20
556.344
 11
425.072
 21
557.071
  0
LINE
  8
0
 10
425.072
 20
557.071
 11
425.799
 21
557.73
  0
LINE
  8
0
 10
425.799
 20
557.73
 11
426.587
 21
558.315
  0
LINE
  8
0
 10
426.587
 20
558.315
 11
427.429
 21
558.819
  0
LINE
  8
0
 10
427.429
 20
558.819
 11
428.316
 21
559.239
  0
LINE
  8
0
 10
428.316
 20
559.239
 11
429.24
 21
559.569
  0
LINE
  8
0
 10
429.24
 20
559.569
 11
430.192
 21
559.808
  0
LINE
  8
0
 10
430.192
 20
559.808
 11
431.163
 21
559.952
  0
LINE
  8
0
 10
431.163
 20
559.952
 11
432.143
 21
560
  0
LINE
  8
0
 10
432.143
 20
560
 11
462.143
 21
560
  0
LINE
  8
0
 10
462.143
 20
560
 11
463.123
 21
559.952
  0
LINE
  8
0
 10
463.123
 20
559.952
 11
464.094
 21
559.808
  0
LINE
  8
0
 10
464.094
 20
559.808
 11
465.046
 21
559.569
  0
LINE
  8
0
 10
465.046
 20
559.569
 11
465.97
 21
559.239
  0
LINE
  8
0
 10
465.97
 20
559.239
 11
466.857
 21
558.819
  0
LINE
  8
0
 10
466.857
 20
558.819
 11
467.699
 21
558.315
  0
LINE
  8
0
 10
467.699
 20
558.315
 11
468.487
 21
557.73
  0
LINE
  8
0
 10
468.487
 20
557.73
 11
469.214
 21
557.071
  0
LINE
  8
0
 10
469.214
 20
557.071
 11
469.873
 21
556.344
  0
LINE
  8
0
 10
469.873
 20
556.344
 11
470.458
 21
555.556
  0
LINE
  8
0
 10
470.458
 20
555.556
 11
470.962
 21
554.714
  0
LINE
  8
0
 10
470.962
 20
554.714
 11
471.382
 21
553.827
  0
LINE
  8
0
 10
471.382
 20
553.827
 11
471.712
 21
552.903
  0
LINE
  8
0
 10
471.712
 20
552.903
 11
471.951
 21
551.951
  0
LINE
  8
0
 10
471.951
 20
551.951
 11
472.095
 21
550.98
  0
LINE
  8
0
 10
472.095
 20
550.98
 11
472.143
 21
550
  0
LINE
  8
0
 10
472.143
 20
550
 11
472.143
 21
90
  0
LINE
  8
0
 10
472.143
 20
90
 11
472.095
 21
89.0198
  0
LINE
  8
0
 10
472.095
 20
89.0198
 11
471.951
 21
88.0491
  0
LINE
  8
0
 10
471.951
 20
88.0491
 11
471.712
 21
87.0972
  0
LINE
  8
0
 10
471.712
 20
87.0972
 11
471.382
 21
86.1732
  0
LINE
  8
0
 10
471.382
 20
86.1732
 11
470.962
 21
85.286
  0
LINE
  8
0
 10
470.962
 20
85.286
 11
470.458
 21
84.4443
  0
LINE
  8
0
 10
470.458
 20
84.4443
 11
469.873
 21
83.6561
  0
LINE
  8
0
 10
469.873
 20
83.6561
 11
469.214
 21
82.9289
  0
LINE
  8
0
 10
469.214
 20
82.9289
 11
468.487
 21
82.2699
  0
LINE
  8
0
 10
468.487
 20
82.2699
 11
467.699
 21
81.6853
  0
LINE
  8
0
 10
467.699
 20
81.6853
 11
466.857
 21
81.1808
  0
LINE
  8
0
 10
466.857
 20
81.1808
 11
465.97
 21
80.7612
  0
LINE
  8
0
 10
465.97
 20
80.7612
 11
465.046
 21
80.4306
  0
LINE
  8
0
 10
465.046
 20
80.4306
 11
464.094
 21
80.1922
  0
LINE
  8
0
 10
464.094
 20
80.1922
 11
463.123
 21
80.0482
  0
LINE
  8
0
 10
463.123
 20
80.0482
 11
462.143
 21
80
  0
LINE
  8
0
 10
462.143
 20
80
 11
432.143
 21
80
  0
LINE
  8
0
 10
526.429
 20
80
 11
525.448
 21
80.0482
  0
LINE
  8
0
 10
525.448
 20
80.0482
 11
524.478
 21
80.1922
  0
LINE
  8
0
 10
524.478
 20
80.1922
 11
523.526
 21
80.4306
  0
LINE
  8
0
 10
523.526
 20
80.4306
 11
522.602
 21
80.7612
  0
LINE
  8
0
 10
522.602
 20
80.7612
 11
521.715
 21
81.1808
  0
LINE
  8
0
 10
521.715
 20
81.1808
 11
520.873
 21
81.6853
  0
LINE
  8
0
 10
520.873
 20
81.6853
 11
520.085
 21
82.2699
  0
LINE
  8
0
 10
520.085
 20
82.2699
 11
519.357
 21
82.9289
  0
LINE
  8
0
 10
519.357
 20
82.9289
 11
518.698
 21
83.6561
  0
LINE
  8
0
 10
518.698
 20
83.6561
 11
518.114
 21
84.4443
  0
LINE
  8
0
 10
518.114
 20
84.4443
 11
517.609
 21
85.286
  0
LINE
  8
0
 10
517.609
 20
85.286
 11
517.19
 21
86.1732
  0
LINE
  8
0
 10
517.19
 20
86.1732
 11
516.859
 21
87.0972
  0
LINE
  8
0
 10
516.859
 20
87.0972
 11
516.621
 21
88.0491
  0
LINE
  8
0
 10
516.621
 20
88.0491
 11
516.477
 21
89.0198
  0
LINE
  8
0
 10
516.477
 20
89.0198
 11
516.429
 21
90
  0
LINE
  8
0
 10
516.429
 20
90
 11
516.429
 21
550
  0
LINE
  8
0
 10
516.429
 20
550
 11
516.477
 21
550.98
  0
LINE
  8
0
 10
516.477
 20
550.98
 11
516.621
 21
551.951
  0
LINE
  8
0
 10
516.621
 20
551.951
 11
516.859
 21
552.903
  0
LINE
  8
0
 10
516.859
 20
552.903
 11
517.19
 21
553.827
  0
LINE
  8
0
 10
517.19
 20
553.827
 11
517.609
 21
554.714
  0
LINE
  8
0
 10
517.609
 20
554.714
 11
518.114
 21
555.556
  0
LINE
  8
0
 10
518.114
 20
555.556
 11
518.698
 21
556.344
  0
LINE
  8
0
 10
518.698
 20
556.344
 11
519.357
 21
557.071
  0
LINE
  8
0
 10
519.357
 20
557.071
 11
520.085
 21
557.73
  0
LINE
  8
0
 10
520.085
 20
557.73
 11
520.873
 21
558.315
  0
LINE
  8
0
 10
520.873
 20
558.315
 11
521.715
 21
558.819
  0
LINE
  8
0
 10
521.715
 20
558.819
 11
522.602
 21
559.239
  0
LINE
  8
0
 10
522.602
 20
559.239
 11
523.526
 21
559.569
  0
LINE
  8
0
 10
523.526
 20
559.569
 11
524.478
 21
559.808
  0
LINE
  8
0
 10
524.478
 20
559.808
 11
525.448
 21
559.952
  0
LINE
  8
0
 10
525.448
 20
559.952
 11
526.429
 21
560
  0
LINE
  8
0
 10
526.429
 20
560
 11
556.429
 21
560
  0
LINE
  8
0
 10
556.429
 20
560
 11
557.409
 21
559.952
  0
LINE
  8
0
 10
557.409
 20
559.952
 11
558.379
 21
559.808
  0
LINE
  8
0
 10
558.379
 20
559.808
 11
559.331
 21
559.569
  0
LINE
  8
0
 10
559.331
 20
559.569
 11
560.255
 21
559.239
  0
LINE
  8
0
 10
560.255
 20
559.239
 11
561.143
 21
558.819
  0
LINE
  8
0
 10
561.143
 20
558.819
 11
561.984
 21
558.315
  0
LINE
  8
0
 10
561.984
 20
558.315
 11
562.772
 21
557.73
  0
LINE
  8
0
 10
562.772
 20
557.73
 11
563.5
 21
557.071
  0
LINE
  8
0
 10
563.5
 20
557.071
 11
564.159
 21
556.344
  0
LINE
  8
0
 10
564.159
 20
556.344
 11
564.743
 21
555.556
  0
LINE
  8
0
 10
564.743
 20
555.556
 11
565.248
 21
554.714
  0
LINE
  8
0
 10
565.248
 20
554.714
 11
565.667
 21
553.827
  0
LINE
  8
0
 10
565.667
 20
553.827
 11
565.998
 21
552.903
  0
LINE
  8
0
 10
565.998
 20
552.903
 11
566.236
 21
551.951
  0
LINE
  8
0
 10
566.236
 20
551.951
 11
566.38
 21
550.98
  0
LINE
  8
0
 10
566.38
 20
550.98
 11
566.429
 21
550
  0
LINE
  8
0
 10
566.429
 20
550
 11
566.429
 21
90
  0
LINE
  8
0
 10
566.429
 20
90
 11
566.38
 21
89.0198
  0
LINE
  8
0
 10
566.38
 20
89.0198
 11
566.236
 21
88.0491
  0
LINE
  8
0
 10
566.236
 20
88.0491
 11
565.998
 21
87.0972
  0
LINE
  8
0
 10
565.998
 20
87.0972
 11
565.667
 21
86.1732
  0
LINE
  8
0
 10
565.667
 20
86.1732
 11
565.248
 21
85.286
  0
LINE
  8
0
 10
565.248
 20
85.286
 11
564.743
 21
84.4443
  0
LINE
  8
0
 10
564.743
 20
84.4443
 11
564.159
 21
83.6561
  0
LINE
  8
0
 10
564.159
 20
83.6561
 11
563.5
 21
82.9289
  0
LINE
  8
0
 10
563.5
 20
82.9289
 11
562.772
 21
82.2699
  0
LINE
  8
0
 10
562.772
 20
82.2699
 11
561.984
 21
81.6853
  0
LINE
  8
0
 10
561.984
 20
81.6853
 11
561.143
 21
81.1808
  0
LINE
  8
0
 10
561.143
 20
81.1808
 11
560.255
 21
80.7612
  0
LINE
  8
0
 10
560.255
 20
80.7612
 11
559.331
 21
80.4306
  0
LINE
  8
0
 10
559.331
 20
80.4306
 11
558.379
 21
80.1922
  0
LINE
  8
0
 10
558.379
 20
80.1922
 11
557.409
 21
80.0482
  0
LINE
  8
0
 10
557.409
 20
80.0482
 11
556.429
 21
80
  0
LINE
  8
0
 10
556.429
 20
80
 11
526.429
 21
80
  0
LINE
  8
0
 10
620.714
 20
80
 11
619.734
 21
80.0482
  0
LINE
  8
0
 10
619.734
 20
80.0482
 11
618.763
 21
80.1922
  0
LINE
  8
0
 10
618.763
 20
80.1922
 11
617.811
 21
80.4306
  0
LINE
  8
0
 10
617.811
 20
80.4306
 11
616.887
 21
80.7612
  0
LINE
  8
0
 10
616.887
 20
80.7612
 11
616
 21
81.1808
  0
LINE
  8
0
 10
616
 20
81.1808
 11
615.159
 21
81.6853
  0
LINE
  8
0
 10
615.159
 20
81.6853
 11
614.37
 21
82.2699
  0
LINE
  8
0
 10
614.37
 20
82.2699
 11
613.643
 21
82.9289
  0
LINE
  8
0
 10
613.643
 20
82.9289
 11
612.984
 21
83.6561
  0
LINE
  8
0
 10
612.984
 20
83.6561
 11
612.4
 21
84.4443
  0
LINE
  8
0
 10
612.4
 20
84.4443
 11
611.895
 21
85.286
  0
LINE
  8
0
 10
611.895
 20
85.286
 11
611.475
 21
86.1732
  0
LINE
  8
0
 10
611.475
 20
86.1732
 11
611.145
 21
87.0972
  0
LINE
  8
0
 10
611.145
 20
87.0972
 11
610.906
 21
88.0491
  0
LINE
  8
0
 10
610.906
 20
88.0491
 11
610.762
 21
89.0198
  0
LINE
  8
0
 10
610.762
 20
89.0198
 11
610.714
 21
90
  0
LINE
  8
0
 10
610.714
 20
90
 11
610.714
 21
550
  0
LINE
  8
0
 10
610.714
 20
550
 11
610.762
 21
550.98
  0
LINE
  8
0
 10
610.762
 20
550.98
 11
610.906
 21
551.951
  0
LINE
  8
0
 10
610.906
 20
551.951
 11
611.145
 21
552.903
  0
LINE
  8
0
 10
611.145
 20
552.903
 11
611.475
 21
553.827
  0
LINE
  8
0
 10
611.475
 20
553.827
 11
611.895
 21
554.714
  0
LINE
  8
0
 10
611.895
 20
554.714
 11
612.4
 21
555.556
  0
LINE
  8
0
 10
612.4
 20
555.556
 11
612.984
 21
556.344
  0
LINE
  8
0
 10
612.984
 20
556.344
 11
613.643
 21
557.071
  0
LINE
  8
0
 10
613.643
 20
557.071
 11
614.37
 21
557.73
  0
LINE
  8
0
 10
614.37
 20
557.73
 11
615.159
 21
558.315
  0
LINE
  8
0
 10
615.159
 20
558.315
 11
616
 21
558.819
  0
LINE
  8
0
 10
616
 20
558.819
 11
616.887
 21
559.239
  0
LINE
  8
0
 10
616.887
 20
559.239
 11
617.811
 21
559.569
  0
LINE
  8
0
 10
617.811
 20
559.569
 11
618.763
 21
559.808
  0
LINE
  8
0
 10
618.763
 20
559.808
 11
619.734
 21
559.952
  0
LINE
  8
0
 10
619.734
 20
559.952
 11
620.714
 21
560
  0
LINE
  8
0
 10
620.714
 20
560
 11
650.714
 21
560
  0
LINE
  8
0
 10
650.714
 20
560
 11
651.694
 21
559.952
  0
LINE
  8
0
 10
651.694
 20
559.952
 11
652.665
 21
559.808
  0
LINE
  8
0
 10
652.665
 20
559.808
 11
653.617
 21
559.569
  0
LINE
  8
0
 10
653.617
 20
559.569
 11
654.541
 21
559.239
  0
LINE
  8
0
 10
654.541
 20
559.239
 11
655.428
 21
558.819
  0
LINE
  8
0
 10
655.428
 20
558.819
 11
656.27
 21
558.315
  0
LINE
  8
0
 10
656.27
 20
558.315
 11
657.058
 21
557.73
  0
LINE
  8
0
 10
657.058
 20
557.73
 11
657.785
 21
557.071
  0
LINE
  8
0
 10
657.785
 20
557.071
 11
658.444
 21
556.344
  0
LINE
  8
0
 10
658.444
 20
556.344
 11
659.029
 21
555.556
  0
LINE
  8
0
 10
659.029
 20
555.556
 11
659.533
 21
554.714
  0
LINE
  8
0
 10
659.533
 20
554.714
 11
659.953
 21
553.827
  0
LINE
  8
0
 10
659.953
 20
553.827
 11
660.284
 21
552.903
  0
LINE
  8
0
 10
660.284
 20
552.903
 11
660.522
 21
551.951
  0
LINE
  8
0
 10
660.522
 20
551.951
 11
660.666
 21
550.98
  0
LINE
  8
0
 10
660.666
 20
550.98
 11
660.714
 21
550
  0
LINE
  8
0
 10
660.714
 20
550
 11
660.714
 21
90
  0
LINE
  8
0
 10
660.714
 20
90
 11
660.666
 21
89.0198
  0
LINE
  8
0
 10
660.666
 20
89.0198
 11
660.522
 21
88.0491
  0
LINE
  8
0
 10
660.522
 20
88.0491
 11
660.284
 21
87.0972
  0
LINE
  8
0
 10
660.284
 20
87.0972
 11
659.953
 21
86.1732
  0
LINE
  8
0
 10
659.953
 20
86.1732
 11
659.533
 21
85.286
  0
LINE
  8
0
 10
659.533
 20
85.286
 11
659.029
 21
84.4443
  0
LINE
  8
0
 10
659.029
 20
84.4443
 11
658.444
 21
83.6561
  0
LINE
  8
0
 10
658.444
 20
83.6561
 11
657.785
 21
82.9289
  0
LINE
  8
0
 10
657.785
 20
82.9289
 11
657.058
 21
82.2699
  0
LINE
  8
0
 10
657.058
 20
82.2699
 11
656.27
 21
81.6853
  0
LINE
  8
0
 10
656.27
 20
81.6853
 11
655.428
 21
81.1808
  0
LINE
  8
0
 10
655.428
 20
81.1808
 11
654.541
 21
80.7612
  0
LINE
  8
0
 10
654.541
 20
80.7612
 11
653.617
 21
80.4306
  0
LINE
  8
0
 10
653.617
 20
80.4306
 11
652.665
 21
80.1922
  0
LINE
  8
0
 10
652.665
 20
80.1922
 11
651.694
 21
80.0482
  0
LINE
  8
0
 10
651.694
 20
80.0482
 11
650.714
 21
80
  0
LINE
  8
0
 10
650.714
 20
80
 11
620.714
 21
80
  0
LINE
  8
0
 10
715
 20
80
 11
714.02
 21
80.0482
  0
LINE
  8
0
 10
714.02
 20
80.0482
 11
713.049
 21
80.1922
  0
LINE
  8
0
 10
713.049
 20
80.1922
 11
712.097
 21
80.4306
  0
LINE
  8
0
 10
712.097
 20
80.4306
 11
711.173
 21
80.7612
  0
LINE
  8
0
 10
711.173
 20
80.7612
 11
710.286
 21
81.1808
  0
LINE
  8
0
 10
710.286
 20
81.1808
 11
709.444
 21
81.6853
  0
LINE
  8
0
 10
709.444
 20
81.6853
 11
708.656
 21
82.2699
  0
LINE
  8
0
 10
708.656
 20
82.2699
 11
707.929
 21
82.9289
  0
LINE
  8
0
 10
707.929
 20
82.9289
 11
707.27
 21
83.6561
  0
LINE
  8
0
 10
707.27
 20
83.6561
 11
706.685
 21
84.4443
  0
LINE
  8
0
 10
706.685
 20
84.4443
 11
706.181
 21
85.286
  0
LINE
  8
0
 10
706.181
 20
85.286
 11
705.761
 21
86.1732
  0
LINE
  8
0
 10
705.761
 20
86.1732
 11
705.431
 21
87.0972
  0
LINE
  8
0
 10
705.431
 20
87.0972
 11
705.192
 21
88.0491
  0
LINE
  8
0
 10
705.192
 20
88.0491
 11
705.048
 21
89.0198
  0
LINE
  8
0
 10
705.048
 20
89.0198
 11
705
 21
90
  0
LINE
  8
0
 10
705
 20
90
 11
705
 21
550
  0
LINE
  8
0
 10
705
 20
550
 11
705.048
 21
550.98
  0
LINE
  8
0
 10
705.048
 20
550.98
 11
705.192
 21
551.951
  0
LINE
  8
0
 10
705.192
 20
551.951
 11
705.431
 21
552.903
  0
LINE
  8
0
 10
705.431
 20
552.903
 11
705.761
 21
553.827
  0
LINE
  8
0
 10
705.761
 20
553.827
 11
706.181
 21
554.714
  0
LINE
  8
0
 10
706.181
 20
554.714
 11
706.685
 21
555.556
  0
LINE
  8
0
 10
706.685
 20
555.556
 11
707.27
 21
556.344
  0
LINE
  8
0
 10
707.27
 20
556.344
 11
707.929
 21
557.071
  0
LINE
  8
0
 10
707.929
 20
557.071
 11
708.656
 21
557.73
  0
LINE
  8
0
 10
708.656
 20
557.73
 11
709.444
 21
558.315
  0
LINE
  8
0
 10
709.444
 20
558.315
 11
710.286
 21
558.819
  0
LINE
  8
0
 10
710.286
 20
558.819
 11
711.173
 21
559.239
  0
LINE
  8
0
 10
711.173
 20
559.239
 11
712.097
 21
559.569
  0
LINE
  8
0
 10
712.097
 20
559.569
 11
713.049
 21
559.808
  0
LINE
  8
0
 10
713.049
 20
559.808
 11
714.02
 21
559.952
  0
LINE
  8
0
 10
714.02
 20
559.952
 11
715
 21
560
  0
LINE
  8
0
 10
715
 20
560
 11
745
 21
560
  0
LINE
  8
0
 10
745
 20
560
 11
745.98
 21
559.952
  0
LINE
  8
0
 10
745.98
 20
559.952
 11
746.951
 21
559.808
  0
LINE
  8
0
 10
746.951
 20
559.808
 11
747.903
 21
559.569
  0
LINE
  8
0
 10
747.903
 20
559.569
 11
748.827
 21
559.239
  0
LINE
  8
0
 10
748.827
 20
559.239
 11
749.714
 21
558.819
  0
LINE
  8
0
 10
749.714
 20
558.819
 11
750.556
 21
558.315
  0
LINE
  8
0
 10
750.556
 20
558.315
 11
751.344
 21
557.73
  0
LINE
  8
0
 10
751.344
 20
557.73
 11
752.071
 21
557.071
  0
LINE
  8
0
 10
752.071
 20
557.071
 11
752.73
 21
556.344
  0
LINE
  8
0
 10
752.73
 20
556.344
 11
753.315
 21
555.556
  0
LINE
  8
0
 10
753.315
 20
555.556
 11
753.819
 21
554.714
  0
LINE
  8
0
 10
753.819
 20
554.714
 11
754.239
 21
553.827
  0
LINE
  8
0
 10
754.239
 20
553.827
 11
754.569
 21
552.903
  0
LINE
  8
0
 10
754.569
 20
552.903
 11
754.808
 21
551.951
  0
LINE
  8
0
 10
754.808
 20
551.951
 11
754.952
 21
550.98
  0
LINE
  8
0
 10
754.952
 20
550.98
 11
755
 21
550
  0
LINE
  8
0
 10
755
 20
550
 11
755
 21
90
  0
LINE
  8
0
 10
755
 20
90
 11
754.952
 21
89.0198
  0
LINE
  8
0
 10
754.952
 20
89.0198
 11
754.808
 21
88.0491
  0
LINE
  8
0
 10
754.808
 20
88.0491
 11
754.569
 21
87.0972
  0
LINE
  8
0
 10
754.569
 20
87.0972
 11
754.239
 21
86.1732
  0
LINE
  8
0
 10
754.239
 20
86.1732
 11
753.819
 21
85.286
  0
LINE
  8
0
 10
753.819
 20
85.286
 11
753.315
 21
84.4443
  0
LINE
  8
0
 10
753.315
 20
84.4443
 11
752.73
 21
83.6561
  0
LINE
  8
0
 10
752.73
 20
83.6561
 11
752.071
 21
82.9289
  0
LINE
  8
0
 10
752.071
 20
82.9289
 11
751.344
 21
82.2699
  0
LINE
  8
0
 10
751.344
 20
82.2699
 11
750.556
 21
81.6853
  0
LINE
  8
0
 10
750.556
 20
81.6853
 11
749.714
 21
81.1808
  0
LINE
  8
0
 10
749.714
 20
81.1808
 11
748.827
 21
80.7612
  0
LINE
  8
0
 10
748.827
 20
80.7612
 11
747.903
 21
80.4306
  0
LINE
  8
0
 10
747.903
 20
80.4306
 11
746.951
 21
80.1922
  0
LINE
  8
0
 10
746.951
 20
80.1922
 11
745.98
 21
80.0482
  0
LINE
  8
0
 10
745.98
 20
80.0482
 11
745
 21
80
  0
LINE
  8
0
 10
745
 20
80
 11
715
 21
80
  0
LINE
  8
0
 10
22.1814
 20
31.7656
 11
21.866
 21
31.8124
  0
LINE
  8
0
 10
21.866
 20
31.8124
 11
21.5566
 21
31.8899
  0
LINE
  8
0
 10
21.5566
 20
31.8899
 11
21.2563
 21
31.9974
  0
LINE
  8
0
 10
21.2563
 20
31.9974
 11
20.968
 21
32.1337
  0
LINE
  8
0
 10
20.968
 20
32.1337
 11
20.6944
 21
32.2977
  0
LINE
  8
0
 10
20.6944
 20
32.2977
 11
20.4382
 21
32.4877
  0
LINE
  8
0
 10
20.4382
 20
32.4877
 11
20.2019
 21
32.7019
  0
LINE
  8
0
 10
20.2019
 20
32.7019
 11
19.9877
 21
32.9382
  0
LINE
  8
0
 10
19.9877
 20
32.9382
 11
19.7977
 21
33.1944
  0
LINE
  8
0
 10
19.7977
 20
33.1944
 11
19.6337
 21
33.468
  0
LINE
  8
0
 10
19.6337
 20
33.468
 11
19.4974
 21
33.7563
  0
LINE
  8
0
 10
19.4974
 20
33.7563
 11
19.3899
 21
34.0566
  0
LINE
  8
0
 10
19.3899
 20
34.0566
 11
19.3124
 21
34.366
  0
LINE
  8
0
 10
19.3124
 20
34.366
 11
19.2656
 21
34.6814
  0
LINE
  8
0
 10
19.2656
 20
34.6814
 11
19.25
 21
35
  0
LINE
  8
0
 10
19.25
 20
35
 11
19.2656
 21
35.3185
  0
LINE
  8
0
 10
19.2656
 20
35.3185
 11
19.3124
 21
35.634
  0
LINE
  8
0
 10
19.3124
 20
35.634
 11
19.3899
 21
35.9434
  0
LINE
  8
0
 10
19.3899
 20
35.9434
 11
19.4974
 21
36.2437
  0
LINE
  8
0
 10
19.4974
 20
36.2437
 11
19.6337
 21
36.532
  0
LINE
  8
0
 10
19.6337
 20
36.532
 11
19.7977
 21
36.8056
  0
LINE
  8
0
 10
19.7977
 20
36.8056
 11
19.9877
 21
37.0618
  0
LINE
  8
0
 10
19.9877
 20
37.0618
 11
20.2019
 21
37.2981
  0
LINE
  8
0
 10
20.2019
 20
37.2981
 11
20.4382
 21
37.5123
  0
LINE
  8
0
 10
20.4382
 20
37.5123
 11
20.6944
 21
37.7023
  0
LINE
  8
0
 10
20.6944
 20
37.7023
 11
20.968
 21
37.8662
  0
LINE
  8
0
 10
20.968
 20
37.8662
 11
21.2563
 21
38.0026
  0
LINE
  8
0
 10
21.2563
 20
38.0026
 11
21.5566
 21
38.11
  0
LINE
  8
0
 10
21.5566
 20
38.11
 11
21.866
 21
38.1875
  0
LINE
  8
0
 10
21.866
 20
38.1875
 11
22.1814
 21
38.2343
  0
LINE
  8
0
 10
22.1814
 20
38.2343
 11
22.5
 21
38.25
  0
LINE
  8
0
 10
22.5
 20
38.25
 11
22.8185
 21
38.2343
  0
LINE
  8
0
 10
22.8185
 20
38.2343
 11
23.134
 21
38.1875
  0
LINE
  8
0
 10
23.134
 20
38.1875
 11
23.4434
 21
38.11
  0
LINE
  8
0
 10
23.4434
 20
38.11
 11
23.7437
 21
38.0026
  0
LINE
  8
0
 10
23.7437
 20
38.0026
 11
24.032
 21
37.8662
  0
LINE
  8
0
 10
24.032
 20
37.8662
 11
24.3056
 21
37.7023
  0
LINE
  8
0
 10
24.3056
 20
37.7023
 11
24.5618
 21
37.5123
  0
LINE
  8
0
 10
24.5618
 20
37.5123
 11
24.7981
 21
37.2981
  0
LINE
  8
0
 10
24.7981
 20
37.2981
 11
25.0123
 21
37.0618
  0
LINE
  8
0
 10
25.0123
 20
37.0618
 11
25.2023
 21
36.8056
  0
LINE
  8
0
 10
25.2023
 20
36.8056
 11
25.3662
 21
36.532
  0
LINE
  8
0
 10
25.3662
 20
36.532
 11
25.5026
 21
36.2437
  0
LINE
  8
0
 10
25.5026
 20
36.2437
 11
25.61
 21
35.9434
  0
LINE
  8
0
 10
25.61
 20
35.9434
 11
25.6875
 21
35.634
  0
LINE
  8
0
 10
25.6875
 20
35.634
 11
25.7343
 21
35.3185
  0
LINE
  8
0
 10
25.7343
 20
35.3185
 11
25.75
 21
35
  0
LINE
  8
0
 10
25.75
 20
35
 11
25.7343
 21
34.6814
  0
LINE
  8
0
 10
25.7343
 20
34.6814
 11
25.6875
 21
34.366
  0
LINE
  8
0
 10
25.6875
 20
34.366
 11
25.61
 21
34.0566
  0
LINE
  8
0
 10
25.61
 20
34.0566
 11
25.5026
 21
33.7563
  0
LINE
  8
0
 10
25.5026
 20
33.7563
 11
25.3662
 21
33.468
  0
LINE
  8
0
 10
25.3662
 20
33.468
 11
25.2023
 21
33.1944
  0
LINE
  8
0
 10
25.2023
 20
33.1944
 11
25.0123
 21
32.9382
  0
LINE
  8
0
 10
25.0123
 20
32.9382
 11
24.7981
 21
32.7019
  0
LINE
  8
0
 10
24.7981
 20
32.7019
 11
24.5618
 21
32.4877
  0
LINE
  8
0
 10
24.5618
 20
32.4877
 11
24.3056
 21
32.2977
  0
LINE
  8
0
 10
24.3056
 20
32.2977
 11
24.032
 21
32.1337
  0
LINE
  8
0
 10
24.032
 20
32.1337
 11
23.7437
 21
31.9974
  0
LINE
  8
0
 10
23.7437
 20
31.9974
 11
23.4434
 21
31.8899
  0
LINE
  8
0
 10
23.4434
 20
31.8899
 11
23.134
 21
31.8124
  0
LINE
  8
0
 10
23.134
 20
31.8124
 11
22.8185
 21
31.7656
  0
LINE
  8
0
 10
22.8185
 20
31.7656
 11
22.5
 21
31.75
  0
LINE
  8
0
 10
22.5
 20
31.75
 11
22.1814
 21
31.7656
  0
LINE
  8
0
 10
777.181
 20
31.7656
 11
776.866
 21
31.8124
  0
LINE
  8
0
 10
776.866
 20
31.8124
 11
776.557
 21
31.8899
  0
LINE
  8
0
 10
776.557
 20
31.8899
 11
776.256
 21
31.9974
  0
LINE
  8
0
 10
776.256
 20
31.9974
 11
775.968
 21
32.1337
  0
LINE
  8
0
 10
775.968
 20
32.1337
 11
775.694
 21
32.2977
  0
LINE
  8
0
 10
775.694
 20
32.2977
 11
775.438
 21
32.4877
  0
LINE
  8
0
 10
775.438
 20
32.4877
 11
775.202
 21
32.7019
  0
LINE
  8
0
 10
775.202
 20
32.7019
 11
774.988
 21
32.9382
  0
LINE
  8
0
 10
774.988
 20
32.9382
 11
774.798
 21
33.1944
  0
LINE
  8
0
 10
774.798
 20
33.1944
 11
774.634
 21
33.468
  0
LINE
  8
0
 10
774.634
 20
33.468
 11
774.497
 21
33.7563
  0
LINE
  8
0
 10
774.497
 20
33.7563
 11
774.39
 21
34.0566
  0
LINE
  8
0
 10
774.39
 20
34.0566
 11
774.312
 21
34.366
  0
LINE
  8
0
 10
774.312
 20
34.366
 11
774.266
 21
34.6814
  0
LINE
  8
0
 10
774.266
 20
34.6814
 11
774.25
 21
35
  0
LINE
  8
0
 10
774.25
 20
35
 11
774.266
 21
35.3185
  0
LINE
  8
0
 10
774.266
 20
35.3185
 11
774.312
 21
35.634
  0
LINE
  8
0
 10
774.312
 20
35.634
 11
774.39
 21
35.9434
  0
LINE
  8
0
 10
774.39
 20
35.9434
 11
774.497
 21
36.2437
  0
LINE
  8
0
 10
774.497
 20
36.2437
 11
774.634
 21
36.532
  0
LINE
  8
0
 10
774.634
 20
36.532
 11
774.798
 21
36.8056
  0
LINE
  8
0
 10
774.798
 20
36.8056
 11
774.988
 21
37.0618
  0
LINE
  8
0
 10
774.988
 20
37.0618
 11
775.202
 21
37.2981
  0
LINE
  8
0
 10
775.202
 20
37.2981
 11
775.438
 21
37.5123
  0
LINE
  8
0
 10
775.438
 20
37.5123
 11
775.694
 21
37.7023
  0
LINE
  8
0
 10
775.694
 20
37.7023
 11
775.968
 21
37.8662
  0
LINE
  8
0
 10
775.968
 20
37.8662
 11
776.256
 21
38.0026
  0
LINE
  8
0
 10
776.256
 20
38.0026
 11
776.557
 21
38.11
  0
LINE
  8
0
 10
776.557
 20
38.11
 11
776.866
 21
38.1875
  0
LINE
  8
0
 10
776.866
 20
38.1875
 11
777.181
 21
38.2343
  0
LINE
  8
0
 10
777.181
 20
38.2343
 11
777.5
 21
38.25
  0
LINE
  8
0
 10
777.5
 20
38.25
 11
777.819
 21
38.2343
  0
LINE
  8
0
 10
777.819
 20
38.2343
 11
778.134
 21
38.1875
  0
LINE
  8
0
 10
778.134
 20
38.1875
 11
778.443
 21
38.11
  0
LINE
  8
0
 10
778.443
 20
38.11
 11
778.744
 21
38.0026
  0
LINE
  8
0
 10
778.744
 20
38.0026
 11
779.032
 21
37.8662
  0
LINE
  8
0
 10
779.032
 20
37.8662
 11
779.306
 21
37.7023
  0
LINE
  8
0
 10
779.306
 20
37.7023
 11
779.562
 21
37.5123
  0
LINE
  8
0
 10
779.562
 20
37.5123
 11
779.798
 21
37.2981
  0
LINE
  8
0
 10
779.798
 20
37.2981
 11
780.012
 21
37.0618
  0
LINE
  8
0
 10
780.012
 20
37.0618
 11
780.202
 21
36.8056
  0
LINE
  8
0
 10
780.202
 20
36.8056
 11
780.366
 21
36.532
  0
LINE
  8
0
 10
780.366
 20
36.532
 11
780.503
 21
36.2437
  0
LINE
  8
0
 10
780.503
 20
36.2437
 11
780.61
 21
35.9434
  0
LINE
  8
0
 10
780.61
 20
35.9434
 11
780.688
 21
35.634
  0
LINE
  8
0
 10
780.688
 20
35.634
 11
780.734
 21
35.3185
  0
LINE
  8
0
 10
780.734
 20
35.3185
 11
780.75
 21
35
  0
LINE
  8
0
 10
780.75
 20
35
 11
780.734
 21
34.6814
  0
LINE
  8
0
 10
780.734
 20
34.6814
 11
780.688
 21
34.366
  0
LINE
  8
0
 10
780.688
 20
34.366
 11
780.61
 21
34.0566
  0
LINE
  8
0
 10
780.61
 20
34.0566
 11
780.503
 21
33.7563
  0
LINE
  8
0
 10
780.503
 20
33.7563
 11
780.366
 21
33.468
  0
LINE
  8
0
 10
780.366
 20
33.468
 11
780.202
 21
33.1944
  0
LINE
  8
0
 10
780.202
 20
33.1944
 11
780.012
 21
32.9382
  0
LINE
  8
0
 10
780.012
 20
32.9382
 11
779.798
 21
32.7019
  0
LINE
  8
0
 10
779.798
 20
32.7019
 11
779.562
 21
32.4877
  0
LINE
  8
0
 10
779.562
 20
32.4877
 11
779.306
 21
32.2977
  0
LINE
  8
0
 10
779.306
 20
32.2977
 11
779.032
 21
32.1337
  0
LINE
  8
0
 10
779.032
 20
32.1337
 11
778.744
 21
31.9974
  0
LINE
  8
0
 10
778.744
 20
31.9974
 11
778.443
 21
31.8899
  0
LINE
  8
0
 10
778.443
 20
31.8899
 11
778.134
 21
31.8124
  0
LINE
  8
0
 10
778.134
 20
31.8124
 11
777.819
 21
31.7656
  0
LINE
  8
0
 10
777.819
 20
31.7656
 11
777.5
 21
31.75
  0
LINE
  8
0
 10
777.5
 20
31.75
 11
777.181
 21
31.7656
  0
ENDSEC
  0
SECTION
  2
OBJECTS
  0
DICTIONARY
  0
ENDSEC
  0
EOF
