  0
SECTION
  2
BLOCKS
  0
ENDSEC
  0
SECTION
  2
ENTITIES
  0
LINE
  8
0
 10
594.588
 20
0.0288849
 11
595.171
 21
0.115295
  0
LINE
  8
0
 10
595.171
 20
0.115295
 11
595.742
 21
0.258362
  0
LINE
  8
0
 10
595.742
 20
0.258362
 11
596.296
 21
0.456726
  0
LINE
  8
0
 10
596.296
 20
0.456726
 11
596.828
 21
0.708466
  0
LINE
  8
0
 10
596.828
 20
0.708466
 11
597.333
 21
1.01118
  0
LINE
  8
0
 10
597.333
 20
1.01118
 11
597.806
 21
1.36194
  0
LINE
  8
0
 10
597.806
 20
1.36194
 11
598.243
 21
1.75735
  0
LINE
  8
0
 10
598.243
 20
1.75735
 11
598.638
 21
2.19363
  0
LINE
  8
0
 10
598.638
 20
2.19363
 11
598.989
 21
2.66658
  0
LINE
  8
0
 10
598.989
 20
2.66658
 11
599.292
 21
3.17162
  0
LINE
  8
0
 10
599.292
 20
3.17162
 11
599.543
 21
3.7039
  0
LINE
  8
0
 10
599.543
 20
3.7039
 11
599.742
 21
4.25829
  0
LINE
  8
0
 10
599.742
 20
4.25829
 11
599.885
 21
4.82945
  0
LINE
  8
0
 10
599.885
 20
4.82945
 11
599.971
 21
5.4119
  0
LINE
  8
0
 10
599.971
 20
5.4119
 11
600
 21
6
  0
LINE
  8
0
 10
600
 20
6
 11
600
 21
644
  0
LINE
  8
0
 10
600
 20
644
 11
599.971
 21
644.588
  0
LINE
  8
0
 10
599.971
 20
644.588
 11
599.885
 21
645.171
  0
LINE
  8
0
 10
599.885
 20
645.171
 11
599.742
 21
645.742
  0
LINE
  8
0
 10
599.742
 20
645.742
 11
599.543
 21
646.296
  0
LINE
  8
0
 10
599.543
 20
646.296
 11
599.292
 21
646.828
  0
LINE
  8
0
 10
599.292
 20
646.828
 11
598.989
 21
647.333
  0
LINE
  8
0
 10
598.989
 20
647.333
 11
598.638
 21
647.806
  0
LINE
  8
0
 10
598.638
 20
647.806
 11
598.243
 21
648.243
  0
LINE
  8
0
 10
598.243
 20
648.243
 11
597.806
 21
648.638
  0
LINE
  8
0
 10
597.806
 20
648.638
 11
597.333
 21
648.989
  0
LINE
  8
0
 10
597.333
 20
648.989
 11
596.828
 21
649.292
  0
LINE
  8
0
 10
596.828
 20
649.292
 11
596.296
 21
649.543
  0
LINE
  8
0
 10
596.296
 20
649.543
 11
595.742
 21
649.742
  0
LINE
  8
0
 10
595.742
 20
649.742
 11
595.171
 21
649.885
  0
LINE
  8
0
 10
595.171
 20
649.885
 11
594.588
 21
649.971
  0
LINE
  8
0
 10
594.588
 20
649.971
 11
594
 21
650
  0
LINE
  8
0
 10
594
 20
650
 11
6
 21
650
  0
LINE
  8
0
 10
6
 20
650
 11
5.4119
 21
649.971
  0
LINE
  8
0
 10
5.4119
 20
649.971
 11
4.82945
 21
649.885
  0
LINE
  8
0
 10
4.82945
 20
649.885
 11
4.25829
 21
649.742
  0
LINE
  8
0
 10
4.25829
 20
649.742
 11
3.7039
 21
649.543
  0
LINE
  8
0
 10
3.7039
 20
649.543
 11
3.17162
 21
649.292
  0
LINE
  8
0
 10
3.17162
 20
649.292
 11
2.66658
 21
648.989
  0
LINE
  8
0
 10
2.66658
 20
648.989
 11
2.19363
 21
648.638
  0
LINE
  8
0
 10
2.19363
 20
648.638
 11
1.75735
 21
648.243
  0
LINE
  8
0
 10
1.75735
 20
648.243
 11
1.36194
 21
647.806
  0
LINE
  8
0
 10
1.36194
 20
647.806
 11
1.01118
 21
647.333
  0
LINE
  8
0
 10
1.01118
 20
647.333
 11
0.708466
 21
646.828
  0
LINE
  8
0
 10
0.708466
 20
646.828
 11
0.456726
 21
646.296
  0
LINE
  8
0
 10
0.456726
 20
646.296
 11
0.258362
 21
645.742
  0
LINE
  8
0
 10
0.258362
 20
645.742
 11
0.115295
 21
645.171
  0
LINE
  8
0
 10
0.115295
 20
645.171
 11
0.0288849
 21
644.588
  0
LINE
  8
0
 10
0.0288849
 20
644.588
 11
0
 21
644
  0
LINE
  8
0
 10
0
 20
644
 11
0
 21
6
  0
LINE
  8
0
 10
0
 20
6
 11
0.0288849
 21
5.4119
  0
LINE
  8
0
 10
0.0288849
 20
5.4119
 11
0.115295
 21
4.82945
  0
LINE
  8
0
 10
0.115295
 20
4.82945
 11
0.258362
 21
4.25829
  0
LINE
  8
0
 10
0.258362
 20
4.25829
 11
0.456726
 21
3.7039
  0
LINE
  8
0
 10
0.456726
 20
3.7039
 11
0.708466
 21
3.17162
  0
LINE
  8
0
 10
0.708466
 20
3.17162
 11
1.01118
 21
2.66658
  0
LINE
  8
0
 10
1.01118
 20
2.66658
 11
1.36194
 21
2.19363
  0
LINE
  8
0
 10
1.36194
 20
2.19363
 11
1.75735
 21
1.75735
  0
LINE
  8
0
 10
1.75735
 20
1.75735
 11
2.19363
 21
1.36194
  0
LINE
  8
0
 10
2.19363
 20
1.36194
 11
2.66658
 21
1.01118
  0
LINE
  8
0
 10
2.66658
 20
1.01118
 11
3.17162
 21
0.708466
  0
LINE
  8
0
 10
3.17162
 20
0.708466
 11
3.7039
 21
0.456726
  0
LINE
  8
0
 10
3.7039
 20
0.456726
 11
4.25829
 21
0.258362
  0
LINE
  8
0
 10
4.25829
 20
0.258362
 11
4.82945
 21
0.115295
  0
LINE
  8
0
 10
4.82945
 20
0.115295
 11
5.4119
 21
0.0288849
  0
LINE
  8
0
 10
5.4119
 20
0.0288849
 11
6
 21
0
  0
LINE
  8
0
 10
6
 20
0
 11
594
 21
0
  0
LINE
  8
0
 10
594
 20
0
 11
594.588
 21
0.0288849
  0
LINE
  8
0
 10
22.1814
 20
611.766
 11
21.866
 21
611.812
  0
LINE
  8
0
 10
21.866
 20
611.812
 11
21.5566
 21
611.89
  0
LINE
  8
0
 10
21.5566
 20
611.89
 11
21.2563
 21
611.997
  0
LINE
  8
0
 10
21.2563
 20
611.997
 11
20.968
 21
612.134
  0
LINE
  8
0
 10
20.968
 20
612.134
 11
20.6944
 21
612.298
  0
LINE
  8
0
 10
20.6944
 20
612.298
 11
20.4382
 21
612.488
  0
LINE
  8
0
 10
20.4382
 20
612.488
 11
20.2019
 21
612.702
  0
LINE
  8
0
 10
20.2019
 20
612.702
 11
19.9877
 21
612.938
  0
LINE
  8
0
 10
19.9877
 20
612.938
 11
19.7977
 21
613.194
  0
LINE
  8
0
 10
19.7977
 20
613.194
 11
19.6337
 21
613.468
  0
LINE
  8
0
 10
19.6337
 20
613.468
 11
19.4974
 21
613.756
  0
LINE
  8
0
 10
19.4974
 20
613.756
 11
19.3899
 21
614.057
  0
LINE
  8
0
 10
19.3899
 20
614.057
 11
19.3124
 21
614.366
  0
LINE
  8
0
 10
19.3124
 20
614.366
 11
19.2656
 21
614.681
  0
LINE
  8
0
 10
19.2656
 20
614.681
 11
19.25
 21
615
  0
LINE
  8
0
 10
19.25
 20
615
 11
19.2656
 21
615.319
  0
LINE
  8
0
 10
19.2656
 20
615.319
 11
19.3124
 21
615.634
  0
LINE
  8
0
 10
19.3124
 20
615.634
 11
19.3899
 21
615.943
  0
LINE
  8
0
 10
19.3899
 20
615.943
 11
19.4974
 21
616.244
  0
LINE
  8
0
 10
19.4974
 20
616.244
 11
19.6337
 21
616.532
  0
LINE
  8
0
 10
19.6337
 20
616.532
 11
19.7977
 21
616.806
  0
LINE
  8
0
 10
19.7977
 20
616.806
 11
19.9877
 21
617.062
  0
LINE
  8
0
 10
19.9877
 20
617.062
 11
20.2019
 21
617.298
  0
LINE
  8
0
 10
20.2019
 20
617.298
 11
20.4382
 21
617.512
  0
LINE
  8
0
 10
20.4382
 20
617.512
 11
20.6944
 21
617.702
  0
LINE
  8
0
 10
20.6944
 20
617.702
 11
20.968
 21
617.866
  0
LINE
  8
0
 10
20.968
 20
617.866
 11
21.2563
 21
618.003
  0
LINE
  8
0
 10
21.2563
 20
618.003
 11
21.5566
 21
618.11
  0
LINE
  8
0
 10
21.5566
 20
618.11
 11
21.866
 21
618.188
  0
LINE
  8
0
 10
21.866
 20
618.188
 11
22.1814
 21
618.234
  0
LINE
  8
0
 10
22.1814
 20
618.234
 11
22.5
 21
618.25
  0
LINE
  8
0
 10
22.5
 20
618.25
 11
22.8185
 21
618.234
  0
LINE
  8
0
 10
22.8185
 20
618.234
 11
23.134
 21
618.188
  0
LINE
  8
0
 10
23.134
 20
618.188
 11
23.4434
 21
618.11
  0
LINE
  8
0
 10
23.4434
 20
618.11
 11
23.7437
 21
618.003
  0
LINE
  8
0
 10
23.7437
 20
618.003
 11
24.032
 21
617.866
  0
LINE
  8
0
 10
24.032
 20
617.866
 11
24.3056
 21
617.702
  0
LINE
  8
0
 10
24.3056
 20
617.702
 11
24.5618
 21
617.512
  0
LINE
  8
0
 10
24.5618
 20
617.512
 11
24.7981
 21
617.298
  0
LINE
  8
0
 10
24.7981
 20
617.298
 11
25.0123
 21
617.062
  0
LINE
  8
0
 10
25.0123
 20
617.062
 11
25.2023
 21
616.806
  0
LINE
  8
0
 10
25.2023
 20
616.806
 11
25.3662
 21
616.532
  0
LINE
  8
0
 10
25.3662
 20
616.532
 11
25.5026
 21
616.244
  0
LINE
  8
0
 10
25.5026
 20
616.244
 11
25.61
 21
615.943
  0
LINE
  8
0
 10
25.61
 20
615.943
 11
25.6875
 21
615.634
  0
LINE
  8
0
 10
25.6875
 20
615.634
 11
25.7343
 21
615.319
  0
LINE
  8
0
 10
25.7343
 20
615.319
 11
25.75
 21
615
  0
LINE
  8
0
 10
25.75
 20
615
 11
25.7343
 21
614.681
  0
LINE
  8
0
 10
25.7343
 20
614.681
 11
25.6875
 21
614.366
  0
LINE
  8
0
 10
25.6875
 20
614.366
 11
25.61
 21
614.057
  0
LINE
  8
0
 10
25.61
 20
614.057
 11
25.5026
 21
613.756
  0
LINE
  8
0
 10
25.5026
 20
613.756
 11
25.3662
 21
613.468
  0
LINE
  8
0
 10
25.3662
 20
613.468
 11
25.2023
 21
613.194
  0
LINE
  8
0
 10
25.2023
 20
613.194
 11
25.0123
 21
612.938
  0
LINE
  8
0
 10
25.0123
 20
612.938
 11
24.7981
 21
612.702
  0
LINE
  8
0
 10
24.7981
 20
612.702
 11
24.5618
 21
612.488
  0
LINE
  8
0
 10
24.5618
 20
612.488
 11
24.3056
 21
612.298
  0
LINE
  8
0
 10
24.3056
 20
612.298
 11
24.032
 21
612.134
  0
LINE
  8
0
 10
24.032
 20
612.134
 11
23.7437
 21
611.997
  0
LINE
  8
0
 10
23.7437
 20
611.997
 11
23.4434
 21
611.89
  0
LINE
  8
0
 10
23.4434
 20
611.89
 11
23.134
 21
611.812
  0
LINE
  8
0
 10
23.134
 20
611.812
 11
22.8185
 21
611.766
  0
LINE
  8
0
 10
22.8185
 20
611.766
 11
22.5
 21
611.75
  0
LINE
  8
0
 10
22.5
 20
611.75
 11
22.1814
 21
611.766
  0
LINE
  8
0
 10
577.181
 20
611.766
 11
576.866
 21
611.812
  0
LINE
  8
0
 10
576.866
 20
611.812
 11
576.557
 21
611.89
  0
LINE
  8
0
 10
576.557
 20
611.89
 11
576.256
 21
611.997
  0
LINE
  8
0
 10
576.256
 20
611.997
 11
575.968
 21
612.134
  0
LINE
  8
0
 10
575.968
 20
612.134
 11
575.694
 21
612.298
  0
LINE
  8
0
 10
575.694
 20
612.298
 11
575.438
 21
612.488
  0
LINE
  8
0
 10
575.438
 20
612.488
 11
575.202
 21
612.702
  0
LINE
  8
0
 10
575.202
 20
612.702
 11
574.988
 21
612.938
  0
LINE
  8
0
 10
574.988
 20
612.938
 11
574.798
 21
613.194
  0
LINE
  8
0
 10
574.798
 20
613.194
 11
574.634
 21
613.468
  0
LINE
  8
0
 10
574.634
 20
613.468
 11
574.497
 21
613.756
  0
LINE
  8
0
 10
574.497
 20
613.756
 11
574.39
 21
614.057
  0
LINE
  8
0
 10
574.39
 20
614.057
 11
574.312
 21
614.366
  0
LINE
  8
0
 10
574.312
 20
614.366
 11
574.266
 21
614.681
  0
LINE
  8
0
 10
574.266
 20
614.681
 11
574.25
 21
615
  0
LINE
  8
0
 10
574.25
 20
615
 11
574.266
 21
615.319
  0
LINE
  8
0
 10
574.266
 20
615.319
 11
574.312
 21
615.634
  0
LINE
  8
0
 10
574.312
 20
615.634
 11
574.39
 21
615.943
  0
LINE
  8
0
 10
574.39
 20
615.943
 11
574.497
 21
616.244
  0
LINE
  8
0
 10
574.497
 20
616.244
 11
574.634
 21
616.532
  0
LINE
  8
0
 10
574.634
 20
616.532
 11
574.798
 21
616.806
  0
LINE
  8
0
 10
574.798
 20
616.806
 11
574.988
 21
617.062
  0
LINE
  8
0
 10
574.988
 20
617.062
 11
575.202
 21
617.298
  0
LINE
  8
0
 10
575.202
 20
617.298
 11
575.438
 21
617.512
  0
LINE
  8
0
 10
575.438
 20
617.512
 11
575.694
 21
617.702
  0
LINE
  8
0
 10
575.694
 20
617.702
 11
575.968
 21
617.866
  0
LINE
  8
0
 10
575.968
 20
617.866
 11
576.256
 21
618.003
  0
LINE
  8
0
 10
576.256
 20
618.003
 11
576.557
 21
618.11
  0
LINE
  8
0
 10
576.557
 20
618.11
 11
576.866
 21
618.188
  0
LINE
  8
0
 10
576.866
 20
618.188
 11
577.181
 21
618.234
  0
LINE
  8
0
 10
577.181
 20
618.234
 11
577.5
 21
618.25
  0
LINE
  8
0
 10
577.5
 20
618.25
 11
577.819
 21
618.234
  0
LINE
  8
0
 10
577.819
 20
618.234
 11
578.134
 21
618.188
  0
LINE
  8
0
 10
578.134
 20
618.188
 11
578.443
 21
618.11
  0
LINE
  8
0
 10
578.443
 20
618.11
 11
578.744
 21
618.003
  0
LINE
  8
0
 10
578.744
 20
618.003
 11
579.032
 21
617.866
  0
LINE
  8
0
 10
579.032
 20
617.866
 11
579.306
 21
617.702
  0
LINE
  8
0
 10
579.306
 20
617.702
 11
579.562
 21
617.512
  0
LINE
  8
0
 10
579.562
 20
617.512
 11
579.798
 21
617.298
  0
LINE
  8
0
 10
579.798
 20
617.298
 11
580.012
 21
617.062
  0
LINE
  8
0
 10
580.012
 20
617.062
 11
580.202
 21
616.806
  0
LINE
  8
0
 10
580.202
 20
616.806
 11
580.366
 21
616.532
  0
LINE
  8
0
 10
580.366
 20
616.532
 11
580.503
 21
616.244
  0
LINE
  8
0
 10
580.503
 20
616.244
 11
580.61
 21
615.943
  0
LINE
  8
0
 10
580.61
 20
615.943
 11
580.688
 21
615.634
  0
LINE
  8
0
 10
580.688
 20
615.634
 11
580.734
 21
615.319
  0
LINE
  8
0
 10
580.734
 20
615.319
 11
580.75
 21
615
  0
LINE
  8
0
 10
580.75
 20
615
 11
580.734
 21
614.681
  0
LINE
  8
0
 10
580.734
 20
614.681
 11
580.688
 21
614.366
  0
LINE
  8
0
 10
580.688
 20
614.366
 11
580.61
 21
614.057
  0
LINE
  8
0
 10
580.61
 20
614.057
 11
580.503
 21
613.756
  0
LINE
  8
0
 10
580.503
 20
613.756
 11
580.366
 21
613.468
  0
LINE
  8
0
 10
580.366
 20
613.468
 11
580.202
 21
613.194
  0
LINE
  8
0
 10
580.202
 20
613.194
 11
580.012
 21
612.938
  0
LINE
  8
0
 10
580.012
 20
612.938
 11
579.798
 21
612.702
  0
LINE
  8
0
 10
579.798
 20
612.702
 11
579.562
 21
612.488
  0
LINE
  8
0
 10
579.562
 20
612.488
 11
579.306
 21
612.298
  0
LINE
  8
0
 10
579.306
 20
612.298
 11
579.032
 21
612.134
  0
LINE
  8
0
 10
579.032
 20
612.134
 11
578.744
 21
611.997
  0
LINE
  8
0
 10
578.744
 20
611.997
 11
578.443
 21
611.89
  0
LINE
  8
0
 10
578.443
 20
611.89
 11
578.134
 21
611.812
  0
LINE
  8
0
 10
578.134
 20
611.812
 11
577.819
 21
611.766
  0
LINE
  8
0
 10
577.819
 20
611.766
 11
577.5
 21
611.75
  0
LINE
  8
0
 10
577.5
 20
611.75
 11
577.181
 21
611.766
  0
LINE
  8
0
 10
55
 20
80
 11
54.0198
 21
80.0482
  0
LINE
  8
0
 10
54.0198
 20
80.0482
 11
53.0491
 21
80.1922
  0
LINE
  8
0
 10
53.0491
 20
80.1922
 11
52.0972
 21
80.4306
  0
LINE
  8
0
 10
52.0972
 20
80.4306
 11
51.1732
 21
80.7612
  0
LINE
  8
0
 10
51.1732
 20
80.7612
 11
50.286
 21
81.1808
  0
LINE
  8
0
 10
50.286
 20
81.1808
 11
49.4443
 21
81.6853
  0
LINE
  8
0
 10
49.4443
 20
81.6853
 11
48.6561
 21
82.2699
  0
LINE
  8
0
 10
48.6561
 20
82.2699
 11
47.9289
 21
82.9289
  0
LINE
  8
0
 10
47.9289
 20
82.9289
 11
47.2699
 21
83.6561
  0
LINE
  8
0
 10
47.2699
 20
83.6561
 11
46.6853
 21
84.4443
  0
LINE
  8
0
 10
46.6853
 20
84.4443
 11
46.1808
 21
85.286
  0
LINE
  8
0
 10
46.1808
 20
85.286
 11
45.7612
 21
86.1732
  0
LINE
  8
0
 10
45.7612
 20
86.1732
 11
45.4306
 21
87.0972
  0
LINE
  8
0
 10
45.4306
 20
87.0972
 11
45.1922
 21
88.0491
  0
LINE
  8
0
 10
45.1922
 20
88.0491
 11
45.0482
 21
89.0198
  0
LINE
  8
0
 10
45.0482
 20
89.0198
 11
45
 21
90
  0
LINE
  8
0
 10
45
 20
90
 11
45
 21
550
  0
LINE
  8
0
 10
45
 20
550
 11
45.0482
 21
550.98
  0
LINE
  8
0
 10
45.0482
 20
550.98
 11
45.1922
 21
551.951
  0
LINE
  8
0
 10
45.1922
 20
551.951
 11
45.4306
 21
552.903
  0
LINE
  8
0
 10
45.4306
 20
552.903
 11
45.7612
 21
553.827
  0
LINE
  8
0
 10
45.7612
 20
553.827
 11
46.1808
 21
554.714
  0
LINE
  8
0
 10
46.1808
 20
554.714
 11
46.6853
 21
555.556
  0
LINE
  8
0
 10
46.6853
 20
555.556
 11
47.2699
 21
556.344
  0
LINE
  8
0
 10
47.2699
 20
556.344
 11
47.9289
 21
557.071
  0
LINE
  8
0
 10
47.9289
 20
557.071
 11
48.6561
 21
557.73
  0
LINE
  8
0
 10
48.6561
 20
557.73
 11
49.4443
 21
558.315
  0
LINE
  8
0
 10
49.4443
 20
558.315
 11
50.286
 21
558.819
  0
LINE
  8
0
 10
50.286
 20
558.819
 11
51.1732
 21
559.239
  0
LINE
  8
0
 10
51.1732
 20
559.239
 11
52.0972
 21
559.569
  0
LINE
  8
0
 10
52.0972
 20
559.569
 11
53.0491
 21
559.808
  0
LINE
  8
0
 10
53.0491
 20
559.808
 11
54.0198
 21
559.952
  0
LINE
  8
0
 10
54.0198
 20
559.952
 11
55
 21
560
  0
LINE
  8
0
 10
55
 20
560
 11
85
 21
560
  0
LINE
  8
0
 10
85
 20
560
 11
85.9802
 21
559.952
  0
LINE
  8
0
 10
85.9802
 20
559.952
 11
86.9509
 21
559.808
  0
LINE
  8
0
 10
86.9509
 20
559.808
 11
87.9028
 21
559.569
  0
LINE
  8
0
 10
87.9028
 20
559.569
 11
88.8268
 21
559.239
  0
LINE
  8
0
 10
88.8268
 20
559.239
 11
89.714
 21
558.819
  0
LINE
  8
0
 10
89.714
 20
558.819
 11
90.5557
 21
558.315
  0
LINE
  8
0
 10
90.5557
 20
558.315
 11
91.3439
 21
557.73
  0
LINE
  8
0
 10
91.3439
 20
557.73
 11
92.0711
 21
557.071
  0
LINE
  8
0
 10
92.0711
 20
557.071
 11
92.7301
 21
556.344
  0
LINE
  8
0
 10
92.7301
 20
556.344
 11
93.3147
 21
555.556
  0
LINE
  8
0
 10
93.3147
 20
555.556
 11
93.8192
 21
554.714
  0
LINE
  8
0
 10
93.8192
 20
554.714
 11
94.2388
 21
553.827
  0
LINE
  8
0
 10
94.2388
 20
553.827
 11
94.5694
 21
552.903
  0
LINE
  8
0
 10
94.5694
 20
552.903
 11
94.8078
 21
551.951
  0
LINE
  8
0
 10
94.8078
 20
551.951
 11
94.9518
 21
550.98
  0
LINE
  8
0
 10
94.9518
 20
550.98
 11
95
 21
550
  0
LINE
  8
0
 10
95
 20
550
 11
95
 21
90
  0
LINE
  8
0
 10
95
 20
90
 11
94.9518
 21
89.0198
  0
LINE
  8
0
 10
94.9518
 20
89.0198
 11
94.8078
 21
88.0491
  0
LINE
  8
0
 10
94.8078
 20
88.0491
 11
94.5694
 21
87.0972
  0
LINE
  8
0
 10
94.5694
 20
87.0972
 11
94.2388
 21
86.1732
  0
LINE
  8
0
 10
94.2388
 20
86.1732
 11
93.8192
 21
85.286
  0
LINE
  8
0
 10
93.8192
 20
85.286
 11
93.3147
 21
84.4443
  0
LINE
  8
0
 10
93.3147
 20
84.4443
 11
92.7301
 21
83.6561
  0
LINE
  8
0
 10
92.7301
 20
83.6561
 11
92.0711
 21
82.9289
  0
LINE
  8
0
 10
92.0711
 20
82.9289
 11
91.3439
 21
82.2699
  0
LINE
  8
0
 10
91.3439
 20
82.2699
 11
90.5557
 21
81.6853
  0
LINE
  8
0
 10
90.5557
 20
81.6853
 11
89.714
 21
81.1808
  0
LINE
  8
0
 10
89.714
 20
81.1808
 11
88.8268
 21
80.7612
  0
LINE
  8
0
 10
88.8268
 20
80.7612
 11
87.9028
 21
80.4306
  0
LINE
  8
0
 10
87.9028
 20
80.4306
 11
86.9509
 21
80.1922
  0
LINE
  8
0
 10
86.9509
 20
80.1922
 11
85.9802
 21
80.0482
  0
LINE
  8
0
 10
85.9802
 20
80.0482
 11
85
 21
80
  0
LINE
  8
0
 10
85
 20
80
 11
55
 21
80
  0
LINE
  8
0
 10
147
 20
80
 11
146.02
 21
80.0482
  0
LINE
  8
0
 10
146.02
 20
80.0482
 11
145.049
 21
80.1922
  0
LINE
  8
0
 10
145.049
 20
80.1922
 11
144.097
 21
80.4306
  0
LINE
  8
0
 10
144.097
 20
80.4306
 11
143.173
 21
80.7612
  0
LINE
  8
0
 10
143.173
 20
80.7612
 11
142.286
 21
81.1808
  0
LINE
  8
0
 10
142.286
 20
81.1808
 11
141.444
 21
81.6853
  0
LINE
  8
0
 10
141.444
 20
81.6853
 11
140.656
 21
82.2699
  0
LINE
  8
0
 10
140.656
 20
82.2699
 11
139.929
 21
82.9289
  0
LINE
  8
0
 10
139.929
 20
82.9289
 11
139.27
 21
83.6561
  0
LINE
  8
0
 10
139.27
 20
83.6561
 11
138.685
 21
84.4443
  0
LINE
  8
0
 10
138.685
 20
84.4443
 11
138.181
 21
85.286
  0
LINE
  8
0
 10
138.181
 20
85.286
 11
137.761
 21
86.1732
  0
LINE
  8
0
 10
137.761
 20
86.1732
 11
137.431
 21
87.0972
  0
LINE
  8
0
 10
137.431
 20
87.0972
 11
137.192
 21
88.0491
  0
LINE
  8
0
 10
137.192
 20
88.0491
 11
137.048
 21
89.0198
  0
LINE
  8
0
 10
137.048
 20
89.0198
 11
137
 21
90
  0
LINE
  8
0
 10
137
 20
90
 11
137
 21
550
  0
LINE
  8
0
 10
137
 20
550
 11
137.048
 21
550.98
  0
LINE
  8
0
 10
137.048
 20
550.98
 11
137.192
 21
551.951
  0
LINE
  8
0
 10
137.192
 20
551.951
 11
137.431
 21
552.903
  0
LINE
  8
0
 10
137.431
 20
552.903
 11
137.761
 21
553.827
  0
LINE
  8
0
 10
137.761
 20
553.827
 11
138.181
 21
554.714
  0
LINE
  8
0
 10
138.181
 20
554.714
 11
138.685
 21
555.556
  0
LINE
  8
0
 10
138.685
 20
555.556
 11
139.27
 21
556.344
  0
LINE
  8
0
 10
139.27
 20
556.344
 11
139.929
 21
557.071
  0
LINE
  8
0
 10
139.929
 20
557.071
 11
140.656
 21
557.73
  0
LINE
  8
0
 10
140.656
 20
557.73
 11
141.444
 21
558.315
  0
LINE
  8
0
 10
141.444
 20
558.315
 11
142.286
 21
558.819
  0
LINE
  8
0
 10
142.286
 20
558.819
 11
143.173
 21
559.239
  0
LINE
  8
0
 10
143.173
 20
559.239
 11
144.097
 21
559.569
  0
LINE
  8
0
 10
144.097
 20
559.569
 11
145.049
 21
559.808
  0
LINE
  8
0
 10
145.049
 20
559.808
 11
146.02
 21
559.952
  0
LINE
  8
0
 10
146.02
 20
559.952
 11
147
 21
560
  0
LINE
  8
0
 10
147
 20
560
 11
177
 21
560
  0
LINE
  8
0
 10
177
 20
560
 11
177.98
 21
559.952
  0
LINE
  8
0
 10
177.98
 20
559.952
 11
178.951
 21
559.808
  0
LINE
  8
0
 10
178.951
 20
559.808
 11
179.903
 21
559.569
  0
LINE
  8
0
 10
179.903
 20
559.569
 11
180.827
 21
559.239
  0
LINE
  8
0
 10
180.827
 20
559.239
 11
181.714
 21
558.819
  0
LINE
  8
0
 10
181.714
 20
558.819
 11
182.556
 21
558.315
  0
LINE
  8
0
 10
182.556
 20
558.315
 11
183.344
 21
557.73
  0
LINE
  8
0
 10
183.344
 20
557.73
 11
184.071
 21
557.071
  0
LINE
  8
0
 10
184.071
 20
557.071
 11
184.73
 21
556.344
  0
LINE
  8
0
 10
184.73
 20
556.344
 11
185.315
 21
555.556
  0
LINE
  8
0
 10
185.315
 20
555.556
 11
185.819
 21
554.714
  0
LINE
  8
0
 10
185.819
 20
554.714
 11
186.239
 21
553.827
  0
LINE
  8
0
 10
186.239
 20
553.827
 11
186.569
 21
552.903
  0
LINE
  8
0
 10
186.569
 20
552.903
 11
186.808
 21
551.951
  0
LINE
  8
0
 10
186.808
 20
551.951
 11
186.952
 21
550.98
  0
LINE
  8
0
 10
186.952
 20
550.98
 11
187
 21
550
  0
LINE
  8
0
 10
187
 20
550
 11
187
 21
90
  0
LINE
  8
0
 10
187
 20
90
 11
186.952
 21
89.0198
  0
LINE
  8
0
 10
186.952
 20
89.0198
 11
186.808
 21
88.0491
  0
LINE
  8
0
 10
186.808
 20
88.0491
 11
186.569
 21
87.0972
  0
LINE
  8
0
 10
186.569
 20
87.0972
 11
186.239
 21
86.1732
  0
LINE
  8
0
 10
186.239
 20
86.1732
 11
185.819
 21
85.286
  0
LINE
  8
0
 10
185.819
 20
85.286
 11
185.315
 21
84.4443
  0
LINE
  8
0
 10
185.315
 20
84.4443
 11
184.73
 21
83.6561
  0
LINE
  8
0
 10
184.73
 20
83.6561
 11
184.071
 21
82.9289
  0
LINE
  8
0
 10
184.071
 20
82.9289
 11
183.344
 21
82.2699
  0
LINE
  8
0
 10
183.344
 20
82.2699
 11
182.556
 21
81.6853
  0
LINE
  8
0
 10
182.556
 20
81.6853
 11
181.714
 21
81.1808
  0
LINE
  8
0
 10
181.714
 20
81.1808
 11
180.827
 21
80.7612
  0
LINE
  8
0
 10
180.827
 20
80.7612
 11
179.903
 21
80.4306
  0
LINE
  8
0
 10
179.903
 20
80.4306
 11
178.951
 21
80.1922
  0
LINE
  8
0
 10
178.951
 20
80.1922
 11
177.98
 21
80.0482
  0
LINE
  8
0
 10
177.98
 20
80.0482
 11
177
 21
80
  0
LINE
  8
0
 10
177
 20
80
 11
147
 21
80
  0
LINE
  8
0
 10
239
 20
80
 11
238.02
 21
80.0482
  0
LINE
  8
0
 10
238.02
 20
80.0482
 11
237.049
 21
80.1922
  0
LINE
  8
0
 10
237.049
 20
80.1922
 11
236.097
 21
80.4306
  0
LINE
  8
0
 10
236.097
 20
80.4306
 11
235.173
 21
80.7612
  0
LINE
  8
0
 10
235.173
 20
80.7612
 11
234.286
 21
81.1808
  0
LINE
  8
0
 10
234.286
 20
81.1808
 11
233.444
 21
81.6853
  0
LINE
  8
0
 10
233.444
 20
81.6853
 11
232.656
 21
82.2699
  0
LINE
  8
0
 10
232.656
 20
82.2699
 11
231.929
 21
82.9289
  0
LINE
  8
0
 10
231.929
 20
82.9289
 11
231.27
 21
83.6561
  0
LINE
  8
0
 10
231.27
 20
83.6561
 11
230.685
 21
84.4443
  0
LINE
  8
0
 10
230.685
 20
84.4443
 11
230.181
 21
85.286
  0
LINE
  8
0
 10
230.181
 20
85.286
 11
229.761
 21
86.1732
  0
LINE
  8
0
 10
229.761
 20
86.1732
 11
229.431
 21
87.0972
  0
LINE
  8
0
 10
229.431
 20
87.0972
 11
229.192
 21
88.0491
  0
LINE
  8
0
 10
229.192
 20
88.0491
 11
229.048
 21
89.0198
  0
LINE
  8
0
 10
229.048
 20
89.0198
 11
229
 21
90
  0
LINE
  8
0
 10
229
 20
90
 11
229
 21
550
  0
LINE
  8
0
 10
229
 20
550
 11
229.048
 21
550.98
  0
LINE
  8
0
 10
229.048
 20
550.98
 11
229.192
 21
551.951
  0
LINE
  8
0
 10
229.192
 20
551.951
 11
229.431
 21
552.903
  0
LINE
  8
0
 10
229.431
 20
552.903
 11
229.761
 21
553.827
  0
LINE
  8
0
 10
229.761
 20
553.827
 11
230.181
 21
554.714
  0
LINE
  8
0
 10
230.181
 20
554.714
 11
230.685
 21
555.556
  0
LINE
  8
0
 10
230.685
 20
555.556
 11
231.27
 21
556.344
  0
LINE
  8
0
 10
231.27
 20
556.344
 11
231.929
 21
557.071
  0
LINE
  8
0
 10
231.929
 20
557.071
 11
232.656
 21
557.73
  0
LINE
  8
0
 10
232.656
 20
557.73
 11
233.444
 21
558.315
  0
LINE
  8
0
 10
233.444
 20
558.315
 11
234.286
 21
558.819
  0
LINE
  8
0
 10
234.286
 20
558.819
 11
235.173
 21
559.239
  0
LINE
  8
0
 10
235.173
 20
559.239
 11
236.097
 21
559.569
  0
LINE
  8
0
 10
236.097
 20
559.569
 11
237.049
 21
559.808
  0
LINE
  8
0
 10
237.049
 20
559.808
 11
238.02
 21
559.952
  0
LINE
  8
0
 10
238.02
 20
559.952
 11
239
 21
560
  0
LINE
  8
0
 10
239
 20
560
 11
269
 21
560
  0
LINE
  8
0
 10
269
 20
560
 11
269.98
 21
559.952
  0
LINE
  8
0
 10
269.98
 20
559.952
 11
270.951
 21
559.808
  0
LINE
  8
0
 10
270.951
 20
559.808
 11
271.903
 21
559.569
  0
LINE
  8
0
 10
271.903
 20
559.569
 11
272.827
 21
559.239
  0
LINE
  8
0
 10
272.827
 20
559.239
 11
273.714
 21
558.819
  0
LINE
  8
0
 10
273.714
 20
558.819
 11
274.556
 21
558.315
  0
LINE
  8
0
 10
274.556
 20
558.315
 11
275.344
 21
557.73
  0
LINE
  8
0
 10
275.344
 20
557.73
 11
276.071
 21
557.071
  0
LINE
  8
0
 10
276.071
 20
557.071
 11
276.73
 21
556.344
  0
LINE
  8
0
 10
276.73
 20
556.344
 11
277.315
 21
555.556
  0
LINE
  8
0
 10
277.315
 20
555.556
 11
277.819
 21
554.714
  0
LINE
  8
0
 10
277.819
 20
554.714
 11
278.239
 21
553.827
  0
LINE
  8
0
 10
278.239
 20
553.827
 11
278.569
 21
552.903
  0
LINE
  8
0
 10
278.569
 20
552.903
 11
278.808
 21
551.951
  0
LINE
  8
0
 10
278.808
 20
551.951
 11
278.952
 21
550.98
  0
LINE
  8
0
 10
278.952
 20
550.98
 11
279
 21
550
  0
LINE
  8
0
 10
279
 20
550
 11
279
 21
90
  0
LINE
  8
0
 10
279
 20
90
 11
278.952
 21
89.0198
  0
LINE
  8
0
 10
278.952
 20
89.0198
 11
278.808
 21
88.0491
  0
LINE
  8
0
 10
278.808
 20
88.0491
 11
278.569
 21
87.0972
  0
LINE
  8
0
 10
278.569
 20
87.0972
 11
278.239
 21
86.1732
  0
LINE
  8
0
 10
278.239
 20
86.1732
 11
277.819
 21
85.286
  0
LINE
  8
0
 10
277.819
 20
85.286
 11
277.315
 21
84.4443
  0
LINE
  8
0
 10
277.315
 20
84.4443
 11
276.73
 21
83.6561
  0
LINE
  8
0
 10
276.73
 20
83.6561
 11
276.071
 21
82.9289
  0
LINE
  8
0
 10
276.071
 20
82.9289
 11
275.344
 21
82.2699
  0
LINE
  8
0
 10
275.344
 20
82.2699
 11
274.556
 21
81.6853
  0
LINE
  8
0
 10
274.556
 20
81.6853
 11
273.714
 21
81.1808
  0
LINE
  8
0
 10
273.714
 20
81.1808
 11
272.827
 21
80.7612
  0
LINE
  8
0
 10
272.827
 20
80.7612
 11
271.903
 21
80.4306
  0
LINE
  8
0
 10
271.903
 20
80.4306
 11
270.951
 21
80.1922
  0
LINE
  8
0
 10
270.951
 20
80.1922
 11
269.98
 21
80.0482
  0
LINE
  8
0
 10
269.98
 20
80.0482
 11
269
 21
80
  0
LINE
  8
0
 10
269
 20
80
 11
239
 21
80
  0
LINE
  8
0
 10
331
 20
80
 11
330.02
 21
80.0482
  0
LINE
  8
0
 10
330.02
 20
80.0482
 11
329.049
 21
80.1922
  0
LINE
  8
0
 10
329.049
 20
80.1922
 11
328.097
 21
80.4306
  0
LINE
  8
0
 10
328.097
 20
80.4306
 11
327.173
 21
80.7612
  0
LINE
  8
0
 10
327.173
 20
80.7612
 11
326.286
 21
81.1808
  0
LINE
  8
0
 10
326.286
 20
81.1808
 11
325.444
 21
81.6853
  0
LINE
  8
0
 10
325.444
 20
81.6853
 11
324.656
 21
82.2699
  0
LINE
  8
0
 10
324.656
 20
82.2699
 11
323.929
 21
82.9289
  0
LINE
  8
0
 10
323.929
 20
82.9289
 11
323.27
 21
83.6561
  0
LINE
  8
0
 10
323.27
 20
83.6561
 11
322.685
 21
84.4443
  0
LINE
  8
0
 10
322.685
 20
84.4443
 11
322.181
 21
85.286
  0
LINE
  8
0
 10
322.181
 20
85.286
 11
321.761
 21
86.1732
  0
LINE
  8
0
 10
321.761
 20
86.1732
 11
321.431
 21
87.0972
  0
LINE
  8
0
 10
321.431
 20
87.0972
 11
321.192
 21
88.0491
  0
LINE
  8
0
 10
321.192
 20
88.0491
 11
321.048
 21
89.0198
  0
LINE
  8
0
 10
321.048
 20
89.0198
 11
321
 21
90
  0
LINE
  8
0
 10
321
 20
90
 11
321
 21
550
  0
LINE
  8
0
 10
321
 20
550
 11
321.048
 21
550.98
  0
LINE
  8
0
 10
321.048
 20
550.98
 11
321.192
 21
551.951
  0
LINE
  8
0
 10
321.192
 20
551.951
 11
321.431
 21
552.903
  0
LINE
  8
0
 10
321.431
 20
552.903
 11
321.761
 21
553.827
  0
LINE
  8
0
 10
321.761
 20
553.827
 11
322.181
 21
554.714
  0
LINE
  8
0
 10
322.181
 20
554.714
 11
322.685
 21
555.556
  0
LINE
  8
0
 10
322.685
 20
555.556
 11
323.27
 21
556.344
  0
LINE
  8
0
 10
323.27
 20
556.344
 11
323.929
 21
557.071
  0
LINE
  8
0
 10
323.929
 20
557.071
 11
324.656
 21
557.73
  0
LINE
  8
0
 10
324.656
 20
557.73
 11
325.444
 21
558.315
  0
LINE
  8
0
 10
325.444
 20
558.315
 11
326.286
 21
558.819
  0
LINE
  8
0
 10
326.286
 20
558.819
 11
327.173
 21
559.239
  0
LINE
  8
0
 10
327.173
 20
559.239
 11
328.097
 21
559.569
  0
LINE
  8
0
 10
328.097
 20
559.569
 11
329.049
 21
559.808
  0
LINE
  8
0
 10
329.049
 20
559.808
 11
330.02
 21
559.952
  0
LINE
  8
0
 10
330.02
 20
559.952
 11
331
 21
560
  0
LINE
  8
0
 10
331
 20
560
 11
361
 21
560
  0
LINE
  8
0
 10
361
 20
560
 11
361.98
 21
559.952
  0
LINE
  8
0
 10
361.98
 20
559.952
 11
362.951
 21
559.808
  0
LINE
  8
0
 10
362.951
 20
559.808
 11
363.903
 21
559.569
  0
LINE
  8
0
 10
363.903
 20
559.569
 11
364.827
 21
559.239
  0
LINE
  8
0
 10
364.827
 20
559.239
 11
365.714
 21
558.819
  0
LINE
  8
0
 10
365.714
 20
558.819
 11
366.556
 21
558.315
  0
LINE
  8
0
 10
366.556
 20
558.315
 11
367.344
 21
557.73
  0
LINE
  8
0
 10
367.344
 20
557.73
 11
368.071
 21
557.071
  0
LINE
  8
0
 10
368.071
 20
557.071
 11
368.73
 21
556.344
  0
LINE
  8
0
 10
368.73
 20
556.344
 11
369.315
 21
555.556
  0
LINE
  8
0
 10
369.315
 20
555.556
 11
369.819
 21
554.714
  0
LINE
  8
0
 10
369.819
 20
554.714
 11
370.239
 21
553.827
  0
LINE
  8
0
 10
370.239
 20
553.827
 11
370.569
 21
552.903
  0
LINE
  8
0
 10
370.569
 20
552.903
 11
370.808
 21
551.951
  0
LINE
  8
0
 10
370.808
 20
551.951
 11
370.952
 21
550.98
  0
LINE
  8
0
 10
370.952
 20
550.98
 11
371
 21
550
  0
LINE
  8
0
 10
371
 20
550
 11
371
 21
90
  0
LINE
  8
0
 10
371
 20
90
 11
370.952
 21
89.0198
  0
LINE
  8
0
 10
370.952
 20
89.0198
 11
370.808
 21
88.0491
  0
LINE
  8
0
 10
370.808
 20
88.0491
 11
370.569
 21
87.0972
  0
LINE
  8
0
 10
370.569
 20
87.0972
 11
370.239
 21
86.1732
  0
LINE
  8
0
 10
370.239
 20
86.1732
 11
369.819
 21
85.286
  0
LINE
  8
0
 10
369.819
 20
85.286
 11
369.315
 21
84.4443
  0
LINE
  8
0
 10
369.315
 20
84.4443
 11
368.73
 21
83.6561
  0
LINE
  8
0
 10
368.73
 20
83.6561
 11
368.071
 21
82.9289
  0
LINE
  8
0
 10
368.071
 20
82.9289
 11
367.344
 21
82.2699
  0
LINE
  8
0
 10
367.344
 20
82.2699
 11
366.556
 21
81.6853
  0
LINE
  8
0
 10
366.556
 20
81.6853
 11
365.714
 21
81.1808
  0
LINE
  8
0
 10
365.714
 20
81.1808
 11
364.827
 21
80.7612
  0
LINE
  8
0
 10
364.827
 20
80.7612
 11
363.903
 21
80.4306
  0
LINE
  8
0
 10
363.903
 20
80.4306
 11
362.951
 21
80.1922
  0
LINE
  8
0
 10
362.951
 20
80.1922
 11
361.98
 21
80.0482
  0
LINE
  8
0
 10
361.98
 20
80.0482
 11
361
 21
80
  0
LINE
  8
0
 10
361
 20
80
 11
331
 21
80
  0
LINE
  8
0
 10
423
 20
80
 11
422.02
 21
80.0482
  0
LINE
  8
0
 10
422.02
 20
80.0482
 11
421.049
 21
80.1922
  0
LINE
  8
0
 10
421.049
 20
80.1922
 11
420.097
 21
80.4306
  0
LINE
  8
0
 10
420.097
 20
80.4306
 11
419.173
 21
80.7612
  0
LINE
  8
0
 10
419.173
 20
80.7612
 11
418.286
 21
81.1808
  0
LINE
  8
0
 10
418.286
 20
81.1808
 11
417.444
 21
81.6853
  0
LINE
  8
0
 10
417.444
 20
81.6853
 11
416.656
 21
82.2699
  0
LINE
  8
0
 10
416.656
 20
82.2699
 11
415.929
 21
82.9289
  0
LINE
  8
0
 10
415.929
 20
82.9289
 11
415.27
 21
83.6561
  0
LINE
  8
0
 10
415.27
 20
83.6561
 11
414.685
 21
84.4443
  0
LINE
  8
0
 10
414.685
 20
84.4443
 11
414.181
 21
85.286
  0
LINE
  8
0
 10
414.181
 20
85.286
 11
413.761
 21
86.1732
  0
LINE
  8
0
 10
413.761
 20
86.1732
 11
413.431
 21
87.0972
  0
LINE
  8
0
 10
413.431
 20
87.0972
 11
413.192
 21
88.0491
  0
LINE
  8
0
 10
413.192
 20
88.0491
 11
413.048
 21
89.0198
  0
LINE
  8
0
 10
413.048
 20
89.0198
 11
413
 21
90
  0
LINE
  8
0
 10
413
 20
90
 11
413
 21
550
  0
LINE
  8
0
 10
413
 20
550
 11
413.048
 21
550.98
  0
LINE
  8
0
 10
413.048
 20
550.98
 11
413.192
 21
551.951
  0
LINE
  8
0
 10
413.192
 20
551.951
 11
413.431
 21
552.903
  0
LINE
  8
0
 10
413.431
 20
552.903
 11
413.761
 21
553.827
  0
LINE
  8
0
 10
413.761
 20
553.827
 11
414.181
 21
554.714
  0
LINE
  8
0
 10
414.181
 20
554.714
 11
414.685
 21
555.556
  0
LINE
  8
0
 10
414.685
 20
555.556
 11
415.27
 21
556.344
  0
LINE
  8
0
 10
415.27
 20
556.344
 11
415.929
 21
557.071
  0
LINE
  8
0
 10
415.929
 20
557.071
 11
416.656
 21
557.73
  0
LINE
  8
0
 10
416.656
 20
557.73
 11
417.444
 21
558.315
  0
LINE
  8
0
 10
417.444
 20
558.315
 11
418.286
 21
558.819
  0
LINE
  8
0
 10
418.286
 20
558.819
 11
419.173
 21
559.239
  0
LINE
  8
0
 10
419.173
 20
559.239
 11
420.097
 21
559.569
  0
LINE
  8
0
 10
420.097
 20
559.569
 11
421.049
 21
559.808
  0
LINE
  8
0
 10
421.049
 20
559.808
 11
422.02
 21
559.952
  0
LINE
  8
0
 10
422.02
 20
559.952
 11
423
 21
560
  0
LINE
  8
0
 10
423
 20
560
 11
453
 21
560
  0
LINE
  8
0
 10
453
 20
560
 11
453.98
 21
559.952
  0
LINE
  8
0
 10
453.98
 20
559.952
 11
454.951
 21
559.808
  0
LINE
  8
0
 10
454.951
 20
559.808
 11
455.903
 21
559.569
  0
LINE
  8
0
 10
455.903
 20
559.569
 11
456.827
 21
559.239
  0
LINE
  8
0
 10
456.827
 20
559.239
 11
457.714
 21
558.819
  0
LINE
  8
0
 10
457.714
 20
558.819
 11
458.556
 21
558.315
  0
LINE
  8
0
 10
458.556
 20
558.315
 11
459.344
 21
557.73
  0
LINE
  8
0
 10
459.344
 20
557.73
 11
460.071
 21
557.071
  0
LINE
  8
0
 10
460.071
 20
557.071
 11
460.73
 21
556.344
  0
LINE
  8
0
 10
460.73
 20
556.344
 11
461.315
 21
555.556
  0
LINE
  8
0
 10
461.315
 20
555.556
 11
461.819
 21
554.714
  0
LINE
  8
0
 10
461.819
 20
554.714
 11
462.239
 21
553.827
  0
LINE
  8
0
 10
462.239
 20
553.827
 11
462.569
 21
552.903
  0
LINE
  8
0
 10
462.569
 20
552.903
 11
462.808
 21
551.951
  0
LINE
  8
0
 10
462.808
 20
551.951
 11
462.952
 21
550.98
  0
LINE
  8
0
 10
462.952
 20
550.98
 11
463
 21
550
  0
LINE
  8
0
 10
463
 20
550
 11
463
 21
90
  0
LINE
  8
0
 10
463
 20
90
 11
462.952
 21
89.0198
  0
LINE
  8
0
 10
462.952
 20
89.0198
 11
462.808
 21
88.0491
  0
LINE
  8
0
 10
462.808
 20
88.0491
 11
462.569
 21
87.0972
  0
LINE
  8
0
 10
462.569
 20
87.0972
 11
462.239
 21
86.1732
  0
LINE
  8
0
 10
462.239
 20
86.1732
 11
461.819
 21
85.286
  0
LINE
  8
0
 10
461.819
 20
85.286
 11
461.315
 21
84.4443
  0
LINE
  8
0
 10
461.315
 20
84.4443
 11
460.73
 21
83.6561
  0
LINE
  8
0
 10
460.73
 20
83.6561
 11
460.071
 21
82.9289
  0
LINE
  8
0
 10
460.071
 20
82.9289
 11
459.344
 21
82.2699
  0
LINE
  8
0
 10
459.344
 20
82.2699
 11
458.556
 21
81.6853
  0
LINE
  8
0
 10
458.556
 20
81.6853
 11
457.714
 21
81.1808
  0
LINE
  8
0
 10
457.714
 20
81.1808
 11
456.827
 21
80.7612
  0
LINE
  8
0
 10
456.827
 20
80.7612
 11
455.903
 21
80.4306
  0
LINE
  8
0
 10
455.903
 20
80.4306
 11
454.951
 21
80.1922
  0
LINE
  8
0
 10
454.951
 20
80.1922
 11
453.98
 21
80.0482
  0
LINE
  8
0
 10
453.98
 20
80.0482
 11
453
 21
80
  0
LINE
  8
0
 10
453
 20
80
 11
423
 21
80
  0
LINE
  8
0
 10
515
 20
80
 11
514.02
 21
80.0482
  0
LINE
  8
0
 10
514.02
 20
80.0482
 11
513.049
 21
80.1922
  0
LINE
  8
0
 10
513.049
 20
80.1922
 11
512.097
 21
80.4306
  0
LINE
  8
0
 10
512.097
 20
80.4306
 11
511.173
 21
80.7612
  0
LINE
  8
0
 10
511.173
 20
80.7612
 11
510.286
 21
81.1808
  0
LINE
  8
0
 10
510.286
 20
81.1808
 11
509.444
 21
81.6853
  0
LINE
  8
0
 10
509.444
 20
81.6853
 11
508.656
 21
82.2699
  0
LINE
  8
0
 10
508.656
 20
82.2699
 11
507.929
 21
82.9289
  0
LINE
  8
0
 10
507.929
 20
82.9289
 11
507.27
 21
83.6561
  0
LINE
  8
0
 10
507.27
 20
83.6561
 11
506.685
 21
84.4443
  0
LINE
  8
0
 10
506.685
 20
84.4443
 11
506.181
 21
85.286
  0
LINE
  8
0
 10
506.181
 20
85.286
 11
505.761
 21
86.1732
  0
LINE
  8
0
 10
505.761
 20
86.1732
 11
505.431
 21
87.0972
  0
LINE
  8
0
 10
505.431
 20
87.0972
 11
505.192
 21
88.0491
  0
LINE
  8
0
 10
505.192
 20
88.0491
 11
505.048
 21
89.0198
  0
LINE
  8
0
 10
505.048
 20
89.0198
 11
505
 21
90
  0
LINE
  8
0
 10
505
 20
90
 11
505
 21
550
  0
LINE
  8
0
 10
505
 20
550
 11
505.048
 21
550.98
  0
LINE
  8
0
 10
505.048
 20
550.98
 11
505.192
 21
551.951
  0
LINE
  8
0
 10
505.192
 20
551.951
 11
505.431
 21
552.903
  0
LINE
  8
0
 10
505.431
 20
552.903
 11
505.761
 21
553.827
  0
LINE
  8
0
 10
505.761
 20
553.827
 11
506.181
 21
554.714
  0
LINE
  8
0
 10
506.181
 20
554.714
 11
506.685
 21
555.556
  0
LINE
  8
0
 10
506.685
 20
555.556
 11
507.27
 21
556.344
  0
LINE
  8
0
 10
507.27
 20
556.344
 11
507.929
 21
557.071
  0
LINE
  8
0
 10
507.929
 20
557.071
 11
508.656
 21
557.73
  0
LINE
  8
0
 10
508.656
 20
557.73
 11
509.444
 21
558.315
  0
LINE
  8
0
 10
509.444
 20
558.315
 11
510.286
 21
558.819
  0
LINE
  8
0
 10
510.286
 20
558.819
 11
511.173
 21
559.239
  0
LINE
  8
0
 10
511.173
 20
559.239
 11
512.097
 21
559.569
  0
LINE
  8
0
 10
512.097
 20
559.569
 11
513.049
 21
559.808
  0
LINE
  8
0
 10
513.049
 20
559.808
 11
514.02
 21
559.952
  0
LINE
  8
0
 10
514.02
 20
559.952
 11
515
 21
560
  0
LINE
  8
0
 10
515
 20
560
 11
545
 21
560
  0
LINE
  8
0
 10
545
 20
560
 11
545.98
 21
559.952
  0
LINE
  8
0
 10
545.98
 20
559.952
 11
546.951
 21
559.808
  0
LINE
  8
0
 10
546.951
 20
559.808
 11
547.903
 21
559.569
  0
LINE
  8
0
 10
547.903
 20
559.569
 11
548.827
 21
559.239
  0
LINE
  8
0
 10
548.827
 20
559.239
 11
549.714
 21
558.819
  0
LINE
  8
0
 10
549.714
 20
558.819
 11
550.556
 21
558.315
  0
LINE
  8
0
 10
550.556
 20
558.315
 11
551.344
 21
557.73
  0
LINE
  8
0
 10
551.344
 20
557.73
 11
552.071
 21
557.071
  0
LINE
  8
0
 10
552.071
 20
557.071
 11
552.73
 21
556.344
  0
LINE
  8
0
 10
552.73
 20
556.344
 11
553.315
 21
555.556
  0
LINE
  8
0
 10
553.315
 20
555.556
 11
553.819
 21
554.714
  0
LINE
  8
0
 10
553.819
 20
554.714
 11
554.239
 21
553.827
  0
LINE
  8
0
 10
554.239
 20
553.827
 11
554.569
 21
552.903
  0
LINE
  8
0
 10
554.569
 20
552.903
 11
554.808
 21
551.951
  0
LINE
  8
0
 10
554.808
 20
551.951
 11
554.952
 21
550.98
  0
LINE
  8
0
 10
554.952
 20
550.98
 11
555
 21
550
  0
LINE
  8
0
 10
555
 20
550
 11
555
 21
90
  0
LINE
  8
0
 10
555
 20
90
 11
554.952
 21
89.0198
  0
LINE
  8
0
 10
554.952
 20
89.0198
 11
554.808
 21
88.0491
  0
LINE
  8
0
 10
554.808
 20
88.0491
 11
554.569
 21
87.0972
  0
LINE
  8
0
 10
554.569
 20
87.0972
 11
554.239
 21
86.1732
  0
LINE
  8
0
 10
554.239
 20
86.1732
 11
553.819
 21
85.286
  0
LINE
  8
0
 10
553.819
 20
85.286
 11
553.315
 21
84.4443
  0
LINE
  8
0
 10
553.315
 20
84.4443
 11
552.73
 21
83.6561
  0
LINE
  8
0
 10
552.73
 20
83.6561
 11
552.071
 21
82.9289
  0
LINE
  8
0
 10
552.071
 20
82.9289
 11
551.344
 21
82.2699
  0
LINE
  8
0
 10
551.344
 20
82.2699
 11
550.556
 21
81.6853
  0
LINE
  8
0
 10
550.556
 20
81.6853
 11
549.714
 21
81.1808
  0
LINE
  8
0
 10
549.714
 20
81.1808
 11
548.827
 21
80.7612
  0
LINE
  8
0
 10
548.827
 20
80.7612
 11
547.903
 21
80.4306
  0
LINE
  8
0
 10
547.903
 20
80.4306
 11
546.951
 21
80.1922
  0
LINE
  8
0
 10
546.951
 20
80.1922
 11
545.98
 21
80.0482
  0
LINE
  8
0
 10
545.98
 20
80.0482
 11
545
 21
80
  0
LINE
  8
0
 10
545
 20
80
 11
515
 21
80
  0
LINE
  8
0
 10
22.1814
 20
31.7656
 11
21.866
 21
31.8124
  0
LINE
  8
0
 10
21.866
 20
31.8124
 11
21.5566
 21
31.8899
  0
LINE
  8
0
 10
21.5566
 20
31.8899
 11
21.2563
 21
31.9974
  0
LINE
  8
0
 10
21.2563
 20
31.9974
 11
20.968
 21
32.1337
  0
LINE
  8
0
 10
20.968
 20
32.1337
 11
20.6944
 21
32.2977
  0
LINE
  8
0
 10
20.6944
 20
32.2977
 11
20.4382
 21
32.4877
  0
LINE
  8
0
 10
20.4382
 20
32.4877
 11
20.2019
 21
32.7019
  0
LINE
  8
0
 10
20.2019
 20
32.7019
 11
19.9877
 21
32.9382
  0
LINE
  8
0
 10
19.9877
 20
32.9382
 11
19.7977
 21
33.1944
  0
LINE
  8
0
 10
19.7977
 20
33.1944
 11
19.6337
 21
33.468
  0
LINE
  8
0
 10
19.6337
 20
33.468
 11
19.4974
 21
33.7563
  0
LINE
  8
0
 10
19.4974
 20
33.7563
 11
19.3899
 21
34.0566
  0
LINE
  8
0
 10
19.3899
 20
34.0566
 11
19.3124
 21
34.366
  0
LINE
  8
0
 10
19.3124
 20
34.366
 11
19.2656
 21
34.6814
  0
LINE
  8
0
 10
19.2656
 20
34.6814
 11
19.25
 21
35
  0
LINE
  8
0
 10
19.25
 20
35
 11
19.2656
 21
35.3185
  0
LINE
  8
0
 10
19.2656
 20
35.3185
 11
19.3124
 21
35.634
  0
LINE
  8
0
 10
19.3124
 20
35.634
 11
19.3899
 21
35.9434
  0
LINE
  8
0
 10
19.3899
 20
35.9434
 11
19.4974
 21
36.2437
  0
LINE
  8
0
 10
19.4974
 20
36.2437
 11
19.6337
 21
36.532
  0
LINE
  8
0
 10
19.6337
 20
36.532
 11
19.7977
 21
36.8056
  0
LINE
  8
0
 10
19.7977
 20
36.8056
 11
19.9877
 21
37.0618
  0
LINE
  8
0
 10
19.9877
 20
37.0618
 11
20.2019
 21
37.2981
  0
LINE
  8
0
 10
20.2019
 20
37.2981
 11
20.4382
 21
37.5123
  0
LINE
  8
0
 10
20.4382
 20
37.5123
 11
20.6944
 21
37.7023
  0
LINE
  8
0
 10
20.6944
 20
37.7023
 11
20.968
 21
37.8662
  0
LINE
  8
0
 10
20.968
 20
37.8662
 11
21.2563
 21
38.0026
  0
LINE
  8
0
 10
21.2563
 20
38.0026
 11
21.5566
 21
38.11
  0
LINE
  8
0
 10
21.5566
 20
38.11
 11
21.866
 21
38.1875
  0
LINE
  8
0
 10
21.866
 20
38.1875
 11
22.1814
 21
38.2343
  0
LINE
  8
0
 10
22.1814
 20
38.2343
 11
22.5
 21
38.25
  0
LINE
  8
0
 10
22.5
 20
38.25
 11
22.8185
 21
38.2343
  0
LINE
  8
0
 10
22.8185
 20
38.2343
 11
23.134
 21
38.1875
  0
LINE
  8
0
 10
23.134
 20
38.1875
 11
23.4434
 21
38.11
  0
LINE
  8
0
 10
23.4434
 20
38.11
 11
23.7437
 21
38.0026
  0
LINE
  8
0
 10
23.7437
 20
38.0026
 11
24.032
 21
37.8662
  0
LINE
  8
0
 10
24.032
 20
37.8662
 11
24.3056
 21
37.7023
  0
LINE
  8
0
 10
24.3056
 20
37.7023
 11
24.5618
 21
37.5123
  0
LINE
  8
0
 10
24.5618
 20
37.5123
 11
24.7981
 21
37.2981
  0
LINE
  8
0
 10
24.7981
 20
37.2981
 11
25.0123
 21
37.0618
  0
LINE
  8
0
 10
25.0123
 20
37.0618
 11
25.2023
 21
36.8056
  0
LINE
  8
0
 10
25.2023
 20
36.8056
 11
25.3662
 21
36.532
  0
LINE
  8
0
 10
25.3662
 20
36.532
 11
25.5026
 21
36.2437
  0
LINE
  8
0
 10
25.5026
 20
36.2437
 11
25.61
 21
35.9434
  0
LINE
  8
0
 10
25.61
 20
35.9434
 11
25.6875
 21
35.634
  0
LINE
  8
0
 10
25.6875
 20
35.634
 11
25.7343
 21
35.3185
  0
LINE
  8
0
 10
25.7343
 20
35.3185
 11
25.75
 21
35
  0
LINE
  8
0
 10
25.75
 20
35
 11
25.7343
 21
34.6814
  0
LINE
  8
0
 10
25.7343
 20
34.6814
 11
25.6875
 21
34.366
  0
LINE
  8
0
 10
25.6875
 20
34.366
 11
25.61
 21
34.0566
  0
LINE
  8
0
 10
25.61
 20
34.0566
 11
25.5026
 21
33.7563
  0
LINE
  8
0
 10
25.5026
 20
33.7563
 11
25.3662
 21
33.468
  0
LINE
  8
0
 10
25.3662
 20
33.468
 11
25.2023
 21
33.1944
  0
LINE
  8
0
 10
25.2023
 20
33.1944
 11
25.0123
 21
32.9382
  0
LINE
  8
0
 10
25.0123
 20
32.9382
 11
24.7981
 21
32.7019
  0
LINE
  8
0
 10
24.7981
 20
32.7019
 11
24.5618
 21
32.4877
  0
LINE
  8
0
 10
24.5618
 20
32.4877
 11
24.3056
 21
32.2977
  0
LINE
  8
0
 10
24.3056
 20
32.2977
 11
24.032
 21
32.1337
  0
LINE
  8
0
 10
24.032
 20
32.1337
 11
23.7437
 21
31.9974
  0
LINE
  8
0
 10
23.7437
 20
31.9974
 11
23.4434
 21
31.8899
  0
LINE
  8
0
 10
23.4434
 20
31.8899
 11
23.134
 21
31.8124
  0
LINE
  8
0
 10
23.134
 20
31.8124
 11
22.8185
 21
31.7656
  0
LINE
  8
0
 10
22.8185
 20
31.7656
 11
22.5
 21
31.75
  0
LINE
  8
0
 10
22.5
 20
31.75
 11
22.1814
 21
31.7656
  0
LINE
  8
0
 10
577.181
 20
31.7656
 11
576.866
 21
31.8124
  0
LINE
  8
0
 10
576.866
 20
31.8124
 11
576.557
 21
31.8899
  0
LINE
  8
0
 10
576.557
 20
31.8899
 11
576.256
 21
31.9974
  0
LINE
  8
0
 10
576.256
 20
31.9974
 11
575.968
 21
32.1337
  0
LINE
  8
0
 10
575.968
 20
32.1337
 11
575.694
 21
32.2977
  0
LINE
  8
0
 10
575.694
 20
32.2977
 11
575.438
 21
32.4877
  0
LINE
  8
0
 10
575.438
 20
32.4877
 11
575.202
 21
32.7019
  0
LINE
  8
0
 10
575.202
 20
32.7019
 11
574.988
 21
32.9382
  0
LINE
  8
0
 10
574.988
 20
32.9382
 11
574.798
 21
33.1944
  0
LINE
  8
0
 10
574.798
 20
33.1944
 11
574.634
 21
33.468
  0
LINE
  8
0
 10
574.634
 20
33.468
 11
574.497
 21
33.7563
  0
LINE
  8
0
 10
574.497
 20
33.7563
 11
574.39
 21
34.0566
  0
LINE
  8
0
 10
574.39
 20
34.0566
 11
574.312
 21
34.366
  0
LINE
  8
0
 10
574.312
 20
34.366
 11
574.266
 21
34.6814
  0
LINE
  8
0
 10
574.266
 20
34.6814
 11
574.25
 21
35
  0
LINE
  8
0
 10
574.25
 20
35
 11
574.266
 21
35.3185
  0
LINE
  8
0
 10
574.266
 20
35.3185
 11
574.312
 21
35.634
  0
LINE
  8
0
 10
574.312
 20
35.634
 11
574.39
 21
35.9434
  0
LINE
  8
0
 10
574.39
 20
35.9434
 11
574.497
 21
36.2437
  0
LINE
  8
0
 10
574.497
 20
36.2437
 11
574.634
 21
36.532
  0
LINE
  8
0
 10
574.634
 20
36.532
 11
574.798
 21
36.8056
  0
LINE
  8
0
 10
574.798
 20
36.8056
 11
574.988
 21
37.0618
  0
LINE
  8
0
 10
574.988
 20
37.0618
 11
575.202
 21
37.2981
  0
LINE
  8
0
 10
575.202
 20
37.2981
 11
575.438
 21
37.5123
  0
LINE
  8
0
 10
575.438
 20
37.5123
 11
575.694
 21
37.7023
  0
LINE
  8
0
 10
575.694
 20
37.7023
 11
575.968
 21
37.8662
  0
LINE
  8
0
 10
575.968
 20
37.8662
 11
576.256
 21
38.0026
  0
LINE
  8
0
 10
576.256
 20
38.0026
 11
576.557
 21
38.11
  0
LINE
  8
0
 10
576.557
 20
38.11
 11
576.866
 21
38.1875
  0
LINE
  8
0
 10
576.866
 20
38.1875
 11
577.181
 21
38.2343
  0
LINE
  8
0
 10
577.181
 20
38.2343
 11
577.5
 21
38.25
  0
LINE
  8
0
 10
577.5
 20
38.25
 11
577.819
 21
38.2343
  0
LINE
  8
0
 10
577.819
 20
38.2343
 11
578.134
 21
38.1875
  0
LINE
  8
0
 10
578.134
 20
38.1875
 11
578.443
 21
38.11
  0
LINE
  8
0
 10
578.443
 20
38.11
 11
578.744
 21
38.0026
  0
LINE
  8
0
 10
578.744
 20
38.0026
 11
579.032
 21
37.8662
  0
LINE
  8
0
 10
579.032
 20
37.8662
 11
579.306
 21
37.7023
  0
LINE
  8
0
 10
579.306
 20
37.7023
 11
579.562
 21
37.5123
  0
LINE
  8
0
 10
579.562
 20
37.5123
 11
579.798
 21
37.2981
  0
LINE
  8
0
 10
579.798
 20
37.2981
 11
580.012
 21
37.0618
  0
LINE
  8
0
 10
580.012
 20
37.0618
 11
580.202
 21
36.8056
  0
LINE
  8
0
 10
580.202
 20
36.8056
 11
580.366
 21
36.532
  0
LINE
  8
0
 10
580.366
 20
36.532
 11
580.503
 21
36.2437
  0
LINE
  8
0
 10
580.503
 20
36.2437
 11
580.61
 21
35.9434
  0
LINE
  8
0
 10
580.61
 20
35.9434
 11
580.688
 21
35.634
  0
LINE
  8
0
 10
580.688
 20
35.634
 11
580.734
 21
35.3185
  0
LINE
  8
0
 10
580.734
 20
35.3185
 11
580.75
 21
35
  0
LINE
  8
0
 10
580.75
 20
35
 11
580.734
 21
34.6814
  0
LINE
  8
0
 10
580.734
 20
34.6814
 11
580.688
 21
34.366
  0
LINE
  8
0
 10
580.688
 20
34.366
 11
580.61
 21
34.0566
  0
LINE
  8
0
 10
580.61
 20
34.0566
 11
580.503
 21
33.7563
  0
LINE
  8
0
 10
580.503
 20
33.7563
 11
580.366
 21
33.468
  0
LINE
  8
0
 10
580.366
 20
33.468
 11
580.202
 21
33.1944
  0
LINE
  8
0
 10
580.202
 20
33.1944
 11
580.012
 21
32.9382
  0
LINE
  8
0
 10
580.012
 20
32.9382
 11
579.798
 21
32.7019
  0
LINE
  8
0
 10
579.798
 20
32.7019
 11
579.562
 21
32.4877
  0
LINE
  8
0
 10
579.562
 20
32.4877
 11
579.306
 21
32.2977
  0
LINE
  8
0
 10
579.306
 20
32.2977
 11
579.032
 21
32.1337
  0
LINE
  8
0
 10
579.032
 20
32.1337
 11
578.744
 21
31.9974
  0
LINE
  8
0
 10
578.744
 20
31.9974
 11
578.443
 21
31.8899
  0
LINE
  8
0
 10
578.443
 20
31.8899
 11
578.134
 21
31.8124
  0
LINE
  8
0
 10
578.134
 20
31.8124
 11
577.819
 21
31.7656
  0
LINE
  8
0
 10
577.819
 20
31.7656
 11
577.5
 21
31.75
  0
LINE
  8
0
 10
577.5
 20
31.75
 11
577.181
 21
31.7656
  0
ENDSEC
  0
SECTION
  2
OBJECTS
  0
DICTIONARY
  0
ENDSEC
  0
EOF
